SplineFontDB: 3.0
FontName: Sarina-Regular
FullName: Sarina
FamilyName: Sarina
Weight: Book
Copyright: Copyright (c) 2011, Sorkin Type Co (www.sorkintype.com)\nwith Reserved Font Name "Sarina". 
Version: 1.001
ItalicAngle: 0
UnderlinePosition: -103
UnderlineWidth: 102
Ascent: 1638
Descent: 410
LayerCount: 2
Layer: 0 1 "Back"  1
Layer: 1 1 "Fore"  0
XUID: [1021 631 1661839179 3760478]
FSType: 0
OS2Version: 3
OS2_WeightWidthSlopeOnly: 0
OS2_UseTypoMetrics: 1
CreationTime: 1323971640
ModificationTime: 1323972071
PfmFamily: 17
TTFWeight: 400
TTFWidth: 5
LineGap: 0
VLineGap: 0
Panose: 2 0 0 0 0 0 0 0 0 0
OS2TypoAscent: 278
OS2TypoAOffset: 1
OS2TypoDescent: -234
OS2TypoDOffset: 1
OS2TypoLinegap: 0
OS2WinAscent: 0
OS2WinAOffset: 1
OS2WinDescent: 0
OS2WinDOffset: 1
HheadAscent: 0
HheadAOffset: 1
HheadDescent: 0
HheadDOffset: 1
OS2SubXSize: 1434
OS2SubYSize: 1331
OS2SubXOff: 0
OS2SubYOff: 287
OS2SupXSize: 1434
OS2SupYSize: 1331
OS2SupXOff: 0
OS2SupYOff: 977
OS2StrikeYSize: 102
OS2StrikeYPos: 512
OS2Vendor: 'STC '
OS2CodePages: 20000093.00000000
OS2UnicodeRanges: a00000af.4000204a.00000000.00000000
DEI: 91125
TtTable: prep
PUSHW_1
 511
SCANCTRL
PUSHB_1
 4
SVTCA[y-axis]
EndTTInstrs
ShortTable: maxp 16
  1
  0
  424
  251
  6
  0
  0
  1
  0
  0
  0
  0
  0
  0
  0
  0
EndShort
LangName: 1033 "" "" "Regular" "JamesGrieshaber: Sarina: 2011" "" "Version 1.001" "" "Sarina is a trademark of Sorkin Type Co." "James Grieshaber" "James Grieshaber" "Sarina is a display typeface with brush style letterforms. Sarina's medium contrast and wide setting offers a casual breezy feeling. Sarina is appropriate for medium to larger sizes. " "www.sorkintype.com" "www.typeco.com" "This Font Software is licensed under the SIL Open Font License, Version 1.1. This license is available with a FAQ at: http://scripts.sil.org/OFL" "http://scripts.sil.org/OFL" "" "" "" "Sarina" 
GaspTable: 1 65535 14
Encoding: UnicodeBmp
UnicodeInterp: none
NameList: Adobe Glyph List
DisplaySize: -36
AntiAlias: 1

StartChar: .notdef
Encoding: 65536 -1 0
Width: 2896
Flags: HW
LayerCount: 2
Fore
SplineSet
2074 -362 m 1,0,-1
 1800 -358 l 2,1,2
 1747.38 -358 1747.38 -358 1610.69 -371.5 c 2,3,-1
 1381 -394 l 2,4,5
 1009 -430 1009 -430 868.5 -430 c 0,6,7
 618 -430 618 -430 542 -392 c 1,8,9
 411.414 -323.08 411.414 -323.08 361.5 254.5 c 0,10,11
 341 491.714 341 491.714 341 672.857 c 128,-1,12
 341 854 341 854 343.5 944.5 c 128,-1,13
 346 1035 346 1035 351.5 1116.5 c 128,-1,14
 357 1198 357 1198 364.5 1267.5 c 128,-1,15
 372 1337 372 1337 382 1391 c 0,16,17
 403.326 1506.16 403.326 1506.16 429 1530 c 0,18,19
 512.2 1608 512.2 1608 757 1608 c 0,20,21
 884.471 1608 884.471 1608 1036.24 1593 c 0,22,23
 1319.53 1565 1319.53 1565 1371.26 1565 c 0,24,25
 1461 1565 1461 1565 1569 1577 c 128,-1,26
 1677 1589 1677 1589 1770.5 1598 c 0,27,28
 2009.44 1621 2009.44 1621 2111.72 1621 c 128,-1,29
 2214 1621 2214 1621 2268 1617.5 c 128,-1,30
 2322 1614 2322 1614 2367 1605 c 0,31,32
 2464.5 1585.5 2464.5 1585.5 2503 1547 c 0,33,34
 2553 1497 2553 1497 2553 1230 c 0,35,36
 2553 1002.2 2553 1002.2 2534 804.6 c 2,37,-1
 2510 558 l 2,38,39
 2506 512 2506 512 2506 450.5 c 128,-1,40
 2506 389 2506 389 2510 315 c 128,-1,41
 2514 241 2514 241 2518.5 166.5 c 2,42,-1
 2527 20 l 2,43,44
 2531 -52 2531 -52 2531 -102 c 0,45,46
 2531 -193 2531 -193 2521.5 -237 c 128,-1,47
 2512 -281 2512 -281 2470 -304.5 c 128,-1,48
 2428 -328 2428 -328 2365.5 -341 c 0,49,50
 2264.54 -362 2264.54 -362 2074 -362 c 1,0,-1
931 237 m 1,51,52
 887.095 199.681 887.095 199.681 889.048 165.841 c 128,-1,53
 891 132 891 132 901 116.5 c 128,-1,54
 911 101 911 101 925 91 c 0,55,56
 951.6 72 951.6 72 982.8 73 c 0,57,58
 1030.92 74.5423 1030.92 74.5423 1091 130 c 1,59,-1
 1381 389 l 1,60,-1
 1533 186 l 1,61,62
 1632.18 42.745 1632.18 42.745 1726 49 c 1,63,64
 1814.16 52.3909 1814.16 52.3909 1966.5 142 c 0,65,66
 2079 208.176 2079 208.176 2079 267 c 0,67,68
 2079 293 2079 293 2058 308 c 128,-1,69
 2037 323 2037 323 2010.5 323 c 128,-1,70
 1984 323 1984 323 1970 316 c 0,71,72
 1940 301 1940 301 1906 301 c 0,73,74
 1826.26 301 1826.26 301 1774 360 c 1,75,76
 1766 367 1766 367 1749.5 387 c 2,77,-1
 1598 580 l 1,78,-1
 1879 830 l 1,79,-1
 2034 961 l 2,80,81
 2056 979 2056 979 2063.5 984.5 c 0,82,83
 2083 998.8 2083 998.8 2082 1028.4 c 128,-1,84
 2081 1058 2081 1058 2063.5 1080 c 128,-1,85
 2046 1102 2046 1102 2020.5 1118.5 c 0,86,87
 1967.18 1153 1967.18 1153 1933.59 1152.5 c 128,-1,88
 1900 1152 1900 1152 1878.5 1142 c 128,-1,89
 1857 1132 1857 1132 1833.5 1116 c 128,-1,90
 1810 1100 1810 1100 1786 1079 c 2,91,-1
 1738 1036 l 1,92,-1
 1459 761 l 1,93,-1
 1252.5 1033.5 l 2,94,95
 1207.82 1092.73 1207.82 1092.73 1180.91 1107.86 c 0,96,97
 1133.1 1134.76 1133.1 1134.76 1091.05 1132.38 c 128,-1,98
 1049 1130 1049 1130 1004.5 1119.5 c 128,-1,99
 960 1109 960 1109 924 1094.5 c 0,100,101
 867.509 1071.75 867.509 1071.75 806 1025 c 0,102,103
 786 1010.45 786 1010.45 786 984.227 c 128,-1,104
 786 958 786 958 790 943.5 c 128,-1,105
 794 929 794 929 801.5 918 c 0,106,107
 819.124 892.152 819.124 892.152 849.562 894.076 c 128,-1,108
 880 896 880 896 904.5 901.5 c 128,-1,109
 929 907 929 907 947 907 c 0,110,111
 983 907 983 907 1011 879 c 0,112,113
 1017 873 1017 873 1039.5 844.5 c 2,114,-1
 1256 560 l 1,115,-1
 931 237 l 1,51,52
EndSplineSet
EndChar

StartChar: h
Encoding: 104 104 4
Width: 1531
Flags: HW
LayerCount: 2
Fore
SplineSet
415 647 m 0,0,1
 415 611 415 611 442 611 c 0,2,3
 475.057 611 475.057 611 526.528 655 c 2,4,-1
 614 730 l 2,5,6
 752.194 849 752.194 849 877 849 c 0,7,8
 957.844 849 957.844 849 1021 714.5 c 0,9,10
 1075.85 597.68 1075.85 597.68 1120.5 368.5 c 0,11,12
 1128 330 1128 330 1133.5 330 c 128,-1,13
 1139 330 1139 330 1162.5 348 c 128,-1,14
 1186 366 1186 366 1220 394.5 c 0,15,16
 1465.02 603.078 1465.02 603.078 1503.51 627.539 c 128,-1,17
 1542 652 1542 652 1557 660.5 c 128,-1,18
 1572 669 1572 669 1588.5 675.5 c 0,19,20
 1627.85 691 1627.85 691 1651 691 c 0,21,22
 1695 691 1695 691 1695 645 c 0,23,24
 1695 575.167 1695 575.167 1603 441 c 0,25,26
 1500.42 291.41 1500.42 291.41 1330 141.5 c 0,27,28
 1131.62 -33 1131.62 -33 984 -33 c 0,29,30
 828.444 -33 828.444 -33 774 177 c 0,31,32
 760 231 760 231 751.5 278 c 2,33,-1
 737 356 l 2,34,35
 731 387 731 387 721.5 387 c 128,-1,36
 712 387 712 387 682.5 357 c 2,37,-1
 608 281.5 l 2,38,39
 483.638 155.756 483.638 155.756 400.319 97.8781 c 0,40,41
 230.626 -20 230.626 -20 104 -20 c 0,42,43
 -47.8352 -20 -47.8352 -20 -75 134.5 c 0,44,45
 -83 180 -83 180 -83 250.5 c 128,-1,46
 -83 321 -83 321 -63 423 c 128,-1,47
 -43 525 -43 525 -7.5 627 c 0,48,49
 68.2916 844.768 68.2916 844.768 181 999 c 1,50,-1
 269.5 1117 l 1,51,52
 592.807 1539 592.807 1539 810 1539 c 0,53,54
 858.6 1539 858.6 1539 881 1491 c 0,55,56
 888 1476 888 1476 888 1446 c 128,-1,57
 888 1416 888 1416 862 1368.5 c 128,-1,58
 836 1321 836 1321 798 1270 c 128,-1,59
 760 1219 760 1219 716.5 1166.5 c 128,-1,60
 673 1114 673 1114 637 1063 c 258,61,-1
 562 953.5 l 1,62,63
 415 733 415 733 415 647 c 0,0,1
EndSplineSet
EndChar

StartChar: e
Encoding: 101 101 5
Width: 1190
Flags: HW
LayerCount: 2
Fore
SplineSet
1383 735 m 256,0,1
 1431 735 1431 735 1431 681 c 0,2,3
 1431 645 1431 645 1406.5 590.5 c 128,-1,4
 1382 536 1382 536 1336 488.5 c 128,-1,5
 1290 441 1290 441 1230.5 390 c 128,-1,6
 1171 339 1171 339 1091.5 283 c 128,-1,7
 1012 227 1012 227 916 172 c 128,-1,8
 820 117 820 117 712.5 73 c 0,9,10
 473.068 -25 473.068 -25 249 -25 c 0,11,12
 77.7024 -25 77.7024 -25 -50.5 64 c 0,13,14
 -184 156.678 -184 156.678 -184 290 c 0,15,16
 -184 498.94 -184 498.94 41 687 c 0,17,18
 235.091 849.226 235.091 849.226 498 938 c 0,19,20
 657.923 992 657.923 992 769 992 c 0,21,22
 858.907 992 858.907 992 921 947.5 c 0,23,24
 987 900.2 987 900.2 987 819 c 0,25,26
 987 692.231 987 692.231 786.5 538 c 0,27,28
 754 513 754 513 728 496 c 2,29,-1
 692 472 l 1,30,31
 592.494 401.517 592.494 401.517 388 315 c 1,32,33
 451 282 451 282 505.5 282 c 128,-1,34
 560 282 560 282 603.5 295 c 128,-1,35
 647 308 647 308 702 332 c 128,-1,36
 757 356 757 356 819.5 389.5 c 128,-1,37
 882 423 882 423 946.5 463 c 0,38,39
 1089.45 551.65 1089.45 551.65 1194 645 c 1,40,41
 1249.34 696.08 1249.34 696.08 1334.5 725.5 c 0,42,43
 1362 735 1362 735 1383 735 c 256,0,1
280 454 m 1,44,-1
 335 482 l 2,45,46
 362 496 362 496 383 508.5 c 0,47,48
 584.994 623.925 584.994 623.925 612.997 650.963 c 128,-1,49
 641 678 641 678 641 688.5 c 128,-1,50
 641 699 641 699 635 713 c 128,-1,51
 629 727 629 727 619 738.5 c 0,52,53
 595.087 766 595.087 766 568 766 c 128,-1,54
 541 766 541 766 508.5 756 c 128,-1,55
 476 746 476 746 443 728.5 c 128,-1,56
 410 711 410 711 379.5 686.5 c 128,-1,57
 349 662 349 662 325.5 634 c 0,58,59
 273 571.447 273 571.447 273 525.223 c 128,-1,60
 273 479 273 479 280 454 c 1,44,-1
EndSplineSet
EndChar

StartChar: t
Encoding: 116 116 6
Width: 1020
Flags: HW
LayerCount: 2
Fore
SplineSet
1105 685 m 0,0,1
 1203 685 1203 685 1203 617 c 0,2,3
 1203 551.824 1203 551.824 1111 449 c 1,4,-1
 1061.5 398.5 l 2,5,6
 972.594 307.344 972.594 307.344 854.297 219.172 c 128,-1,7
 736 131 736 131 645.5 80.5 c 0,8,9
 436.723 -36 436.723 -36 267 -36 c 0,10,11
 106.651 -36 106.651 -36 5.5 60.5 c 0,12,13
 -81 143.023 -81 143.023 -81 235.011 c 128,-1,14
 -81 327 -81 327 -63 418 c 128,-1,15
 -45 509 -45 509 -16.5 596 c 0,16,17
 41.6184 773.414 41.6184 773.414 111 897 c 0,18,19
 129 930.75 129 930.75 129 941 c 1,20,-1
 0 941 l 2,21,22
 -73 941 -73 941 -113 975 c 128,-1,23
 -153 1009 -153 1009 -153 1052 c 128,-1,24
 -153 1095 -153 1095 -137 1115 c 128,-1,25
 -121 1135 -121 1135 -97 1144.5 c 0,26,27
 -62.8947 1158 -62.8947 1158 3 1158 c 2,28,-1
 248 1157 l 1,29,30
 256 1160 256 1160 280 1200 c 2,31,-1
 341 1305 l 1,32,33
 380 1375 380 1375 419.5 1408 c 128,-1,34
 459 1441 459 1441 512.5 1441 c 128,-1,35
 566 1441 566 1441 602.5 1431 c 128,-1,36
 639 1421 639 1421 663.5 1405.5 c 0,37,38
 713 1374.18 713 1374.18 713 1336 c 0,39,40
 713 1319.62 713 1319.62 702 1292.81 c 2,41,-1
 646 1157 l 1,42,-1
 1121 1158 l 2,43,44
 1183 1158 1183 1158 1183 1094 c 0,45,46
 1183 942 1183 942 912 942 c 2,47,-1
 546 941 l 1,48,49
 533.955 934.977 533.955 934.977 504.977 882.989 c 2,50,-1
 459.5 800 l 2,51,52
 443 769 443 769 436 753 c 2,53,-1
 414.5 704.5 l 2,54,55
 347 553.207 347 553.207 347 486.103 c 128,-1,56
 347 419 347 419 382.5 374 c 128,-1,57
 418 329 418 329 477 329 c 128,-1,58
 536 329 536 329 592.5 352 c 128,-1,59
 649 375 649 375 703 408.5 c 0,60,61
 800.882 469.223 800.882 469.223 856.941 521.111 c 128,-1,62
 913 573 913 573 950 600 c 2,63,64
 1020 649 l 1,65,66
 1074 685 1074 685 1105 685 c 0,0,1
EndSplineSet
EndChar

StartChar: d
Encoding: 100 100 7
Width: 1530
Flags: HW
LayerCount: 2
Fore
SplineSet
1705 739 m 0,0,1
 1750 739 1750 739 1750 693 c 0,2,3
 1750 619.923 1750 619.923 1654 487 c 0,4,5
 1587.48 393.875 1587.48 393.875 1377.5 229 c 0,6,7
 1129.15 34 1129.15 34 978 34 c 0,8,9
 863.877 34 863.877 34 805.5 130.5 c 0,10,11
 770.807 187.85 770.807 187.85 749 300 c 1,12,-1
 659.5 236 l 1,13,14
 293.014 -18 293.014 -18 112 -18 c 0,15,16
 -39.0909 -18 -39.0909 -18 -129.5 92.5 c 0,17,18
 -210 190.889 -210 190.889 -210 329 c 0,19,20
 -210 481.314 -210 481.314 -106 569 c 0,21,22
 106.407 746.649 106.407 746.649 421 862 c 0,23,24
 549.182 909 549.182 909 583.091 909 c 128,-1,25
 617 909 617 909 645.5 897.5 c 128,-1,26
 674 886 674 886 701.5 867.5 c 0,27,28
 768 822.764 768 822.764 768 781 c 0,29,30
 768 747 768 747 726 726 c 0,31,32
 713 719 713 719 682 707 c 128,-1,33
 651 695 651 695 605.5 673.5 c 0,34,35
 485.266 616.686 485.266 616.686 370 536 c 1,36,37
 288 466.148 288 466.148 288 424.574 c 128,-1,38
 288 383 288 383 346 383 c 0,39,40
 394 383 394 383 538.5 468 c 1,41,42
 623 519.5 l 1,43,44
 714.263 577.083 714.263 577.083 769 624 c 1,45,46
 815 773.5 l 1,47,48
 900.202 1041.53 900.202 1041.53 1004 1217 c 1,49,50
 1187.56 1570 1187.56 1570 1374 1570 c 0,51,52
 1442.31 1570 1442.31 1570 1482.16 1545 c 0,53,54
 1554 1499.92 1554 1499.92 1554 1445.46 c 128,-1,55
 1554 1391 1554 1391 1534 1330 c 128,-1,56
 1514 1269 1514 1269 1481.5 1209 c 128,-1,57
 1449 1149 1449 1149 1407 1090.5 c 1,58,-1
 1235.5 864 l 2,59,60
 1193 809 1193 809 1160 757 c 1,61,62
 1102 632.077 1102 632.077 1102 543 c 0,63,64
 1102 415 1102 415 1195 415 c 0,65,66
 1247.54 415 1247.54 415 1385.5 526.5 c 1,67,-1
 1504 626.5 l 1,68,69
 1587.18 699.78 1587.18 699.78 1668.5 730.5 c 0,70,71
 1691 739 1691 739 1705 739 c 0,0,1
EndSplineSet
EndChar

StartChar: s
Encoding: 115 115 8
Width: 1190
Flags: HW
LayerCount: 2
Fore
SplineSet
634 974.5 m 0,0,1
 644 954 644 954 644 921.382 c 128,-1,2
 644 888.765 644 888.765 611 848 c 1,3,4
 637 821 637 821 677.5 785.5 c 128,-1,5
 718 750 718 750 756 707.5 c 0,6,7
 848 604.605 848 604.605 848 511 c 0,8,9
 848 449.404 848 449.404 763 359.5 c 0,10,11
 737 332 737 332 706 308 c 1,12,13
 810.324 348.484 810.324 348.484 956 467 c 2,14,-1
 1073 563 l 2,15,16
 1175.11 647.503 1175.11 647.503 1209.55 660.751 c 128,-1,17
 1244 674 1244 674 1272 674 c 128,-1,18
 1300 674 1300 674 1326.5 660 c 128,-1,19
 1353 646 1353 646 1353 614.5 c 128,-1,20
 1353 583 1353 583 1343 553.5 c 128,-1,21
 1333 524 1333 524 1319 499 c 0,22,23
 1298.64 462.636 1298.64 462.636 1261 425 c 1,24,25
 1156 326 1156 326 1057.5 243.5 c 128,-1,26
 959 161 959 161 853.5 102 c 0,27,28
 631.771 -22 631.771 -22 362 -22 c 0,29,30
 210.688 -22 210.688 -22 100 55 c 0,31,32
 54 87 54 87 29.5 121.5 c 128,-1,33
 5 156 5 156 5 175.5 c 128,-1,34
 5 195 5 195 18 216.5 c 128,-1,35
 31 238 31 238 53 261 c 128,-1,36
 75 284 75 284 103.5 307 c 128,-1,37
 132 330 132 330 162.5 348 c 0,38,39
 231.972 389 231.972 389 266.486 389 c 128,-1,40
 301 389 301 389 319 380.5 c 128,-1,41
 337 372 337 372 352.5 361.5 c 0,42,43
 393.095 334 393.095 334 410.048 334 c 0,44,45
 451 334 451 334 451 390 c 0,46,47
 451 442.333 451 442.333 396.5 515 c 0,48,49
 374 545 374 545 350 574 c 128,-1,50
 326 603 326 603 310 631 c 1,51,52
 278 594 278 594 230.5 555 c 2,53,-1
 133 473 l 1,54,55
 31.5211 386.282 31.5211 386.282 -54 390 c 1,56,57
 -104 394.167 -104 394.167 -104 501 c 0,58,59
 -104 520 -104 520 -101 537.5 c 0,60,61
 -95.6807 568.529 -95.6807 568.529 -39.8404 612.765 c 128,-1,62
 16 657 16 657 41.5 673.5 c 128,-1,63
 67 690 67 690 85 703 c 2,64,-1
 191 775 l 1,65,66
 191 877.049 191 877.049 309 961.5 c 0,67,68
 421.479 1042 421.479 1042 531 1042 c 0,69,70
 601.073 1042 601.073 1042 634 974.5 c 0,0,1
EndSplineSet
EndChar

StartChar: i
Encoding: 105 105 9
Width: 1021
Flags: HW
LayerCount: 2
Fore
SplineSet
806 1116.5 m 128,-1,1
 772 1101 772 1101 730 1101 c 128,-1,2
 688 1101 688 1101 649 1115 c 128,-1,3
 610 1129 610 1129 581 1154 c 0,4,5
 518 1208.31 518 1208.31 518 1292 c 0,6,7
 518 1420.81 518 1420.81 734 1484.5 c 0,8,9
 806.913 1506 806.913 1506 853.957 1506 c 128,-1,10
 901 1506 901 1506 924.5 1495.5 c 128,-1,11
 948 1485 948 1485 963 1468 c 0,12,13
 993 1434 993 1434 993 1398.5 c 128,-1,14
 993 1363 993 1363 984.5 1334 c 128,-1,15
 976 1305 976 1305 960 1274 c 128,-1,16
 944 1243 944 1243 921 1212 c 128,-1,17
 898 1181 898 1181 869 1156.5 c 128,-1,0
 840 1132 840 1132 806 1116.5 c 128,-1,1
469 -7.5 m 128,-1,19
 397 -31 397 -31 327.5 -31 c 128,-1,20
 258 -31 258 -31 183.5 2.5 c 128,-1,21
 109 36 109 36 51 92 c 0,22,23
 -78 216.552 -78 216.552 -78 370 c 0,24,25
 -78 511.143 -78 511.143 6.5 656 c 0,26,27
 83.0013 787.145 83.0013 787.145 202.5 876.5 c 0,28,29
 320.855 965 320.855 965 423 965 c 0,30,31
 569.16 965 569.16 965 579 883 c 0,32,33
 582 858 582 858 582 825 c 128,-1,34
 582 792 582 792 566.5 749.5 c 128,-1,35
 551 707 551 707 526.5 664.5 c 128,-1,36
 502 622 502 622 472.5 581.5 c 128,-1,37
 443 541 443 541 415.5 507.5 c 0,38,39
 364.429 445.286 364.429 445.286 333 417 c 1,40,41
 333 383.429 333 383.429 384 347 c 0,42,43
 431.6 313 431.6 313 465.3 313 c 128,-1,44
 499 313 499 313 544.5 329 c 128,-1,45
 590 345 590 345 638.5 372 c 128,-1,46
 687 399 687 399 737.5 434 c 128,-1,47
 788 469 788 469 837 506.5 c 2,48,-1
 1020 649 l 1,49,50
 1128.62 728 1128.62 728 1197 728 c 0,51,52
 1224 728 1224 728 1238.5 708.5 c 128,-1,53
 1253 689 1253 689 1253 663 c 128,-1,54
 1253 637 1253 637 1227 591.5 c 128,-1,55
 1201 546 1201 546 1155.5 491 c 128,-1,56
 1110 436 1110 436 1049 376 c 128,-1,57
 988 316 988 316 917 258 c 128,-1,58
 846 200 846 200 769.5 147.5 c 128,-1,59
 693 95 693 95 617 55.5 c 128,-1,18
 541 16 541 16 469 -7.5 c 128,-1,19
EndSplineSet
EndChar

StartChar: o
Encoding: 111 111 10
Width: 1360
Flags: HW
LayerCount: 2
Fore
SplineSet
1060 616 m 0,0,1
 1060 562 1060 562 1152 562 c 0,2,3
 1219.55 562 1219.55 562 1330.5 627.5 c 1,4,-1
 1409.5 672.5 l 2,5,6
 1447 693 1447 693 1474.5 693 c 128,-1,7
 1502 693 1502 693 1518 676 c 128,-1,8
 1534 659 1534 659 1534 629 c 128,-1,9
 1534 599 1534 599 1514 559.5 c 128,-1,10
 1494 520 1494 520 1459 476.5 c 128,-1,11
 1424 433 1424 433 1377 390.5 c 128,-1,12
 1330 348 1330 348 1276.5 314.5 c 0,13,14
 1155.93 239 1155.93 239 1053 239 c 0,15,16
 944.217 239 944.217 239 879 276.5 c 0,17,18
 859 288 859 288 840 301 c 1,19,20
 733.364 178.682 733.364 178.682 530 77 c 0,21,22
 314 -31 314 -31 153 -31 c 0,23,24
 -16.3333 -31 -16.3333 -31 -113.5 101.5 c 0,25,26
 -193 209.909 -193 209.909 -193 321 c 0,27,28
 -193 480.673 -193 480.673 -22 625.5 c 0,29,30
 103.865 732.1 103.865 732.1 221.432 787.05 c 128,-1,31
 339 842 339 842 434.5 872 c 0,32,33
 635.05 935 635.05 935 796 935 c 0,34,35
 867.562 935 867.562 935 924.281 907.5 c 128,-1,36
 981 880 981 880 1008.5 852.5 c 0,37,38
 1072 789 1072 789 1072 691 c 0,39,40
 1072 662 1072 662 1066 646 c 128,-1,41
 1060 630 1060 630 1060 616 c 0,0,1
242 427 m 1,42,-1
 241 424 l 1,43,-1
 241 423 l 2,44,45
 241 379.96 241 379.96 260.5 367.48 c 0,46,47
 305.739 338.527 305.739 338.527 356.87 352.263 c 128,-1,48
 408 366 408 366 454 386 c 0,49,50
 567.659 435.417 567.659 435.417 660 510 c 1,51,52
 644 542 644 542 644 576 c 0,53,54
 644 647.667 644 647.667 707 720 c 1,55,56
 626.577 720 626.577 720 491 645 c 0,57,58
 341.254 562.162 341.254 562.162 266.5 473.5 c 0,59,60
 242 444.442 242 444.442 242 427 c 1,42,-1
EndSplineSet
EndChar

StartChar: n
Encoding: 110 110 11
Width: 1531
Flags: HW
LayerCount: 2
Fore
SplineSet
1113 537 m 0,0,1
 1113 446 1113 446 1166 446 c 0,2,3
 1295.91 446 1295.91 446 1504.5 622.5 c 2,4,-1
 1531 645 l 1,5,6
 1612 699 1612 699 1662.5 699 c 128,-1,7
 1713 699 1713 699 1726.5 684 c 128,-1,8
 1740 669 1740 669 1740 636 c 0,9,10
 1740 562.333 1740 562.333 1665 479 c 1,11,12
 1553.42 343.01 1553.42 343.01 1358.5 221 c 0,13,14
 1131.65 79 1131.65 79 953 79 c 0,15,16
 827.753 79 827.753 79 795.5 217.5 c 0,17,18
 787 254 787 254 783 287 c 0,19,20
 773.322 366.843 773.322 366.843 762.161 375.922 c 128,-1,21
 751 385 751 385 718.5 374.5 c 128,-1,22
 686 364 686 364 641.5 339.5 c 128,-1,23
 597 315 597 315 543 280.5 c 1,24,25
 257.161 89.5106 257.161 89.5106 214.081 62.7553 c 0,26,27
 111.424 -0.999998 111.424 -0.999998 75.2119 -0.999999 c 128,-1,28
 39 -1 39 -1 4.5 14 c 128,-1,29
 -30 29 -30 29 -55.5 52.5 c 0,30,31
 -110 102.725 -110 102.725 -110 156 c 0,32,33
 -110 459.082 -110 459.082 21.5 686.5 c 0,34,35
 109.665 838.974 109.665 838.974 237.5 898.5 c 0,36,37
 303 929 303 929 378 929 c 0,38,39
 515 929 515 929 515 839 c 0,40,41
 515 784.091 515 784.091 450.5 659 c 2,42,-1
 420 600.5 l 2,43,44
 387.629 539.226 387.629 539.226 389 531 c 0,45,46
 395 501 395 501 416 501 c 0,47,48
 439.294 501 439.294 501 484.147 535 c 2,49,-1
 667.5 672.5 l 1,50,-1
 760 736 l 1,51,52
 919.467 840 919.467 840 994 840 c 0,53,54
 1033.72 840 1033.72 840 1067.36 808 c 0,55,56
 1128 750.317 1128 750.317 1128 707 c 0,57,58
 1128 693 1128 693 1125.5 673 c 128,-1,59
 1123 653 1123 653 1120.5 630 c 2,60,-1
 1115.5 583 l 2,61,62
 1113 559 1113 559 1113 537 c 0,0,1
EndSplineSet
EndChar

StartChar: c
Encoding: 99 99 12
Width: 1190
Flags: HW
LayerCount: 2
Fore
SplineSet
1423 645 m 0,0,1
 1423 598.342 1423 598.342 1299.5 463 c 0,2,3
 1174.31 325.803 1174.31 325.803 1053 240 c 1,4,5
 819.482 65.8507 819.482 65.8507 534.5 1.5 c 0,6,7
 426 -23 426 -23 329.5 -23 c 128,-1,8
 233 -23 233 -23 169.5 -6.5 c 128,-1,9
 106 10 106 10 55.5 37.5 c 128,-1,10
 5 65 5 65 -32 101 c 128,-1,11
 -69 137 -69 137 -94 177 c 0,12,13
 -143 255.4 -143 255.4 -143 321.2 c 128,-1,14
 -143 387 -143 387 -128.5 437 c 128,-1,15
 -114 487 -114 487 -88.5 532.5 c 0,16,17
 3.36879 696.423 3.36879 696.423 277.5 822.5 c 0,18,19
 495.274 922.657 495.274 922.657 692.5 953 c 0,20,21
 777 966 777 966 813 966 c 128,-1,22
 849 966 849 966 873.5 958.5 c 128,-1,23
 898 951 898 951 916 938 c 0,24,25
 956 909.111 956 909.111 956 859.056 c 128,-1,26
 956 809 956 809 930 764.5 c 128,-1,27
 904 720 904 720 864.5 690.5 c 0,28,29
 786.169 632 786.169 632 690 632 c 0,30,31
 559 632 559 632 474 666 c 1,32,33
 415.076 644.573 415.076 644.573 374 589 c 0,34,35
 340 543 340 543 340 506.5 c 128,-1,36
 340 470 340 470 356.5 435.5 c 128,-1,37
 373 401 373 401 403 374.5 c 0,38,39
 469.226 316 469.226 316 562 316 c 0,40,41
 777.627 316 777.627 316 1065 545 c 1,42,-1
 1155.5 616 l 1,43,44
 1300.5 726 1300.5 726 1361.75 726 c 128,-1,45
 1423 726 1423 726 1423 645 c 0,0,1
EndSplineSet
EndChar

StartChar: f
Encoding: 102 102 13
Width: 850
Flags: HW
LayerCount: 2
Fore
SplineSet
382.5 74.5 m 128,-1,1
 284 43 284 43 198.167 43 c 128,-1,2
 112.333 43 112.333 43 4 121 c 1,3,4
 -12 34 -12 34 -25.5 -52.5 c 128,-1,5
 -39 -139 -39 -139 -58 -218 c 128,-1,6
 -77 -297 -77 -297 -105.5 -365 c 128,-1,7
 -134 -433 -134 -433 -180.5 -482.5 c 0,8,9
 -280.545 -589 -280.545 -589 -461 -589 c 0,10,11
 -489.462 -589 -489.462 -589 -507.231 -568 c 0,12,13
 -539.045 -530.402 -539.045 -530.402 -533.022 -481.701 c 128,-1,14
 -527 -433 -527 -433 -495 -343 c 128,-1,15
 -463 -253 -463 -253 -414 -144.5 c 128,-1,16
 -365 -36 -365 -36 -303.5 85.5 c 1,17,-1
 -175 332 l 1,18,19
 -197 384 -197 384 -197 425 c 128,-1,20
 -197 466 -197 466 -183 507 c 128,-1,21
 -169 548 -169 548 -144.5 584 c 0,22,23
 -86.6528 669 -86.6528 669 -17 669 c 0,24,25
 -4 669 -4 669 10 666 c 1,26,27
 271.718 1109.76 271.718 1109.76 311.359 1172.38 c 2,28,-1
 366 1258 l 1,29,30
 519.991 1484.63 519.991 1484.63 657.5 1529.5 c 0,31,32
 705 1545 705 1545 754 1545 c 128,-1,33
 803 1545 803 1545 834.5 1511 c 128,-1,34
 866 1477 866 1477 866 1403 c 0,35,36
 866 1191.64 866 1191.64 629.5 918 c 1,37,-1
 369.5 629.5 l 1,38,39
 301 555 301 555 238 476 c 1,40,41
 271 438 271 438 299 410.5 c 128,-1,42
 327 383 327 383 345.5 383 c 128,-1,43
 364 383 364 383 400 395.5 c 128,-1,44
 436 408 436 408 482.5 429 c 128,-1,45
 529 450 529 450 582 477.5 c 128,-1,46
 635 505 635 505 685 534 c 0,47,48
 794.794 597.68 794.794 597.68 843.397 638.84 c 0,49,50
 927.425 710 927.425 710 975 710 c 0,51,52
 1010 710 1010 710 1026.5 693.5 c 0,53,54
 1052 668 1052 668 1052 632.5 c 128,-1,55
 1052 597 1052 597 1013.5 533.5 c 128,-1,56
 975 470 975 470 909.5 403.5 c 128,-1,57
 844 337 844 337 758 272 c 128,-1,58
 672 207 672 207 576.5 156.5 c 128,-1,0
 481 106 481 106 382.5 74.5 c 128,-1,1
EndSplineSet
EndChar

StartChar: l
Encoding: 108 108 14
Width: 1021
Flags: HW
LayerCount: 2
Fore
SplineSet
1182 706 m 0,0,1
 1246 706 1246 706 1246 653 c 0,2,3
 1246 588.409 1246 588.409 1168 498 c 0,4,5
 1039.24 347.784 1039.24 347.784 863.5 206.5 c 0,6,7
 579.268 -22 579.268 -22 355 -22 c 0,8,9
 193.941 -22 193.941 -22 91 118 c 0,10,11
 -16 263.52 -16 263.52 -16 510 c 0,12,13
 -16 833.211 -16 833.211 299 1224.5 c 0,14,15
 498.998 1472.93 498.998 1472.93 676.5 1562.5 c 0,16,17
 731 1590 731 1590 760.5 1590 c 128,-1,18
 790 1590 790 1590 814.5 1580.5 c 128,-1,19
 839 1571 839 1571 860 1553.5 c 0,20,21
 909 1512.67 909 1512.67 909 1454.83 c 128,-1,22
 909 1397 909 1397 877 1317.5 c 128,-1,23
 845 1238 845 1238 784.5 1148.5 c 0,24,25
 654.848 956.701 654.848 956.701 435 782 c 1,26,27
 378 673.182 378 673.182 378 520 c 0,28,29
 378 451 378 451 422 390.5 c 0,30,31
 466.727 329 466.727 329 521 329 c 0,32,33
 595.037 329 595.037 329 803.5 482 c 1,34,-1
 981.5 619 l 1,35,36
 1091.12 706 1091.12 706 1182 706 c 0,0,1
EndSplineSet
EndChar

StartChar: k
Encoding: 107 107 15
Width: 1531
Flags: HW
LayerCount: 2
Fore
SplineSet
900 -48 m 0,0,1
 695.12 -48 695.12 -48 496 214 c 1,2,-1
 380 128 l 1,3,4
 195.2 -4 195.2 -4 134 -4 c 256,5,6
 64.9333 -4 64.9333 -4 6 48 c 0,7,8
 -11 63 -11 63 -19 80 c 1,9,10
 -56 117 -56 117 -56 273.5 c 128,-1,11
 -56 430 -56 430 -21 567 c 128,-1,12
 14 704 14 704 70 821 c 0,13,14
 158.159 1005.19 158.159 1005.19 343 1225 c 1,15,16
 447.104 1374.76 447.104 1374.76 598.5 1471 c 0,17,18
 725.927 1552 725.927 1552 812 1552 c 0,19,20
 859 1552 859 1552 891.5 1531 c 128,-1,21
 924 1510 924 1510 924 1474 c 128,-1,22
 924 1438 924 1438 896 1395 c 1,23,24
 566.921 915.451 566.921 915.451 515.961 835.225 c 128,-1,25
 465 755 465 755 444 712 c 128,-1,26
 423 669 423 669 413 646.5 c 128,-1,27
 403 624 403 624 394 600 c 0,28,29
 373 544 373 544 373 519 c 128,-1,30
 373 494 373 494 411 494 c 0,31,32
 445.552 494 445.552 494 594.5 675 c 1,33,-1
 727.5 841 l 2,34,35
 801.673 934.079 801.673 934.079 881.336 969.04 c 128,-1,36
 961 1004 961 1004 1020 1004 c 0,37,38
 1187 1004 1187 1004 1187 923 c 0,39,40
 1187 850.255 1187 850.255 1076 718 c 0,41,42
 1064 704 1064 704 1040 680 c 1,43,-1
 906 555.5 l 1,44,-1
 817 477 l 1,45,46
 911.275 366.563 911.275 366.563 1001.5 322.5 c 0,47,48
 1023 312 1023 312 1037.5 312 c 128,-1,49
 1052 312 1052 312 1090 330.5 c 128,-1,50
 1128 349 1128 349 1175.5 378.5 c 128,-1,51
 1223 408 1223 408 1276 445 c 1,52,-1
 1550 645 l 1,53,54
 1586 673 1586 673 1622.5 673 c 0,55,56
 1697 673 1697 673 1697 611 c 0,57,58
 1697 530.255 1697 530.255 1617.5 422 c 0,59,60
 1594 390 1594 390 1571.5 368.5 c 2,61,-1
 1508.5 309.5 l 1,62,63
 1240.02 60.9117 1240.02 60.9117 1022.5 -22.5 c 0,64,65
 956 -48 956 -48 900 -48 c 0,0,1
EndSplineSet
EndChar

StartChar: g
Encoding: 103 103 16
Width: 1530
Flags: HW
LayerCount: 2
Fore
SplineSet
445 587 m 128,-1,1
 384 544 384 544 337 499 c 128,-1,2
 290 454 290 454 290 421 c 128,-1,3
 290 388 290 388 343 388 c 0,4,5
 380.25 388 380.25 388 451.125 424 c 1,6,-1
 668 539 l 2,7,8
 727.862 570.428 727.862 570.428 775.431 611.714 c 2,9,-1
 845.5 673.5 l 1,10,11
 921.78 743 921.78 743 1005 743 c 0,12,13
 1047.57 743 1047.57 743 1091 695 c 0,14,15
 1134 647.474 1134 647.474 1134 597.237 c 0,16,17
 1134 481.863 1134 481.863 1040 257 c 1,18,-1
 1199.5 388 l 1,19,-1
 1530 645 l 1,20,21
 1583.33 685 1583.33 685 1618.17 685 c 0,22,23
 1694 685 1694 685 1694 612 c 0,24,25
 1694 537.279 1694 537.279 1596.5 419 c 0,26,27
 1550.28 362.932 1550.28 362.932 1468.14 297.966 c 1,28,-1
 914.5 -122.5 l 1,29,30
 859 -166 859 -166 827 -195 c 1,31,32
 694.571 -407.832 694.571 -407.832 573 -504 c 0,33,34
 396.019 -644 396.019 -644 245 -644 c 0,35,36
 177.182 -644 177.182 -644 134 -606.5 c 0,37,38
 95 -572.632 95 -572.632 95 -529 c 256,39,40
 95 -488.091 95 -488.091 117 -440.545 c 128,-1,41
 139 -393 139 -393 176 -345 c 128,-1,42
 213 -297 213 -297 260 -250 c 128,-1,43
 307 -203 307 -203 360 -159 c 1,44,45
 499.577 -47.7335 499.577 -47.7335 558.788 -5.86674 c 2,46,-1
 657 65 l 1,47,48
 714.584 187.846 714.584 187.846 757 331 c 1,49,50
 564.368 161.3 564.368 161.3 346.5 64 c 0,51,52
 236.783 15 236.783 15 164.891 15 c 128,-1,53
 93 15 93 15 33 45 c 128,-1,54
 -27 75 -27 75 -69.5 124 c 0,55,56
 -159 227.188 -159 227.188 -159 363 c 0,57,58
 -159 504.727 -159 504.727 -52 602 c 256,59,60
 108.975 748.341 108.975 748.341 403.5 856.5 c 0,61,62
 688.061 961 688.061 961 885 961 c 0,63,64
 950 961 950 961 950 897 c 0,65,66
 950 853 950 853 933.5 829.5 c 128,-1,67
 917 806 917 806 854.5 784 c 128,-1,68
 792 762 792 762 716.5 732 c 128,-1,69
 641 702 641 702 573.5 666 c 128,-1,0
 506 630 506 630 445 587 c 128,-1,1
EndSplineSet
EndChar

StartChar: j
Encoding: 106 106 17
Width: 850
Flags: HW
LayerCount: 2
Fore
SplineSet
611 1116 m 128,-1,1
 577 1100 577 1100 541.5 1100 c 128,-1,2
 506 1100 506 1100 468 1114 c 128,-1,3
 430 1128 430 1128 399 1153 c 0,4,5
 328 1210.26 328 1210.26 328 1291 c 0,6,7
 328 1430.51 328 1430.51 562.5 1492.5 c 0,8,9
 647.609 1515 647.609 1515 695.304 1515 c 128,-1,10
 743 1515 743 1515 762.5 1505 c 128,-1,11
 782 1495 782 1495 795.5 1480.5 c 0,12,13
 823 1450.96 823 1450.96 823 1420.48 c 128,-1,14
 823 1390 823 1390 812 1356 c 128,-1,15
 801 1322 801 1322 781 1286.5 c 128,-1,16
 761 1251 761 1251 734.5 1217.5 c 128,-1,17
 708 1184 708 1184 676.5 1158 c 128,-1,0
 645 1132 645 1132 611 1116 c 128,-1,1
-94 91 m 1,18,19
 -29.2529 212.401 -29.2529 212.401 16.3735 333.7 c 2,20,-1
 80 506 l 1,21,22
 92 545 92 545 92 566.5 c 128,-1,23
 92 588 92 588 86 602 c 2,24,-1
 72.5 632 l 2,25,26
 53 673.6 53 673.6 53 717.3 c 128,-1,27
 53 761 53 761 73.5 793 c 128,-1,28
 94 825 94 825 127 850 c 128,-1,29
 160 875 160 875 202 893 c 128,-1,30
 244 911 244 911 287.5 922.5 c 0,31,32
 372.609 945 372.609 945 420.304 945 c 128,-1,33
 468 945 468 945 487.5 935 c 128,-1,34
 507 925 507 925 520.5 910 c 0,35,36
 548 879.444 548 879.444 548 844.722 c 128,-1,37
 548 810 548 810 536.5 759 c 128,-1,38
 525 708 525 708 504.5 646.5 c 128,-1,39
 484 585 484 585 456.5 514.5 c 1,40,-1
 397 368 l 1,41,42
 378 324 378 324 353 271 c 1,43,-1
 522.5 403 l 1,44,-1
 793 603.5 l 1,45,46
 840 637 840 637 853.5 647.5 c 0,47,48
 890.143 676 890.143 676 927.571 676 c 0,49,50
 997.482 676 997.482 676 1012 627 c 0,51,52
 1030.46 564.226 1030.46 564.226 925 430 c 0,53,54
 892 388 892 388 859.5 359.5 c 128,-1,55
 827 331 827 331 790 303 c 0,56,57
 227.71 -103.991 227.71 -103.991 181.355 -140.495 c 128,-1,58
 135 -177 135 -177 110 -199 c 1,59,60
 49 -301 49 -301 -6 -370 c 1,61,62
 -90.7347 -490.041 -90.7347 -490.041 -199 -555 c 0,63,64
 -280.667 -604 -280.667 -604 -358.333 -604 c 128,-1,65
 -436 -604 -436 -604 -478.5 -566 c 128,-1,66
 -521 -528 -521 -528 -521 -465 c 128,-1,67
 -521 -402 -521 -402 -499.5 -345.5 c 128,-1,68
 -478 -289 -478 -289 -442.5 -236 c 128,-1,69
 -407 -183 -407 -183 -362 -135.5 c 128,-1,70
 -317 -88 -317 -88 -269.5 -46 c 128,-1,71
 -222 -4 -222 -4 -176.5 30.5 c 2,72,-1
 -94 91 l 1,18,19
EndSplineSet
EndChar

StartChar: m
Encoding: 109 109 18
Width: 2379
Flags: HW
LayerCount: 2
Fore
SplineSet
1898 548 m 0,0,1
 1898 401 1898 401 1990 401 c 0,2,3
 2054.2 401 2054.2 401 2211 513 c 1,4,5
 2353.45 618.45 2353.45 618.45 2380 645 c 1,6,7
 2442 697 2442 697 2510 697 c 0,8,9
 2539 697 2539 697 2559.5 677.5 c 128,-1,10
 2580 658 2580 658 2580 619 c 128,-1,11
 2580 580 2580 580 2561 548 c 128,-1,12
 2542 516 2542 516 2512.5 482 c 128,-1,13
 2483 448 2483 448 2439.5 406 c 128,-1,14
 2396 364 2396 364 2340 317.5 c 128,-1,15
 2284 271 2284 271 2217.5 225 c 128,-1,16
 2151 179 2151 179 2080 142.5 c 0,17,18
 1919.52 60 1919.52 60 1791 60 c 0,19,20
 1642.93 60 1642.93 60 1589.5 194.5 c 0,21,22
 1559 271.276 1559 271.276 1559 379 c 1,23,-1
 1268 181.5 l 1,24,25
 969.01 -27.5908 969.01 -27.5908 912.5 -41 c 0,26,27
 883 -48 883 -48 853.5 -48 c 128,-1,28
 824 -48 824 -48 798 -42.5 c 128,-1,29
 772 -37 772 -37 751.5 -24.5 c 0,30,31
 706 3.2439 706 3.2439 706 56 c 0,32,33
 706 77.0588 706 77.0588 734.5 157.529 c 2,34,-1
 820 393.5 l 1,35,36
 860 507.618 860 507.618 860 531 c 0,37,38
 860 539 860 539 850 539 c 128,-1,39
 840 539 840 539 813 518 c 128,-1,40
 786 497 786 497 748 464.5 c 2,41,-1
 509.5 256.5 l 1,42,-1
 385 152.5 l 1,43,44
 192.613 -1 192.613 -1 72 -1 c 0,45,46
 15.0213 -1 15.0213 -1 -43 49.5 c 0,47,48
 -106 104.333 -106 104.333 -106 180.167 c 128,-1,49
 -106 256 -106 256 -91.5 346 c 128,-1,50
 -77 436 -77 436 -50 519.5 c 128,-1,51
 -23 603 -23 603 17 676.5 c 128,-1,52
 57 750 57 750 108 804.5 c 0,53,54
 217.954 922 217.954 922 367.477 922 c 128,-1,55
 517 922 517 922 517 834 c 0,56,57
 517 796.235 517 796.235 476.5 717.618 c 0,58,59
 389 546.443 389 546.443 389 532.721 c 128,-1,60
 389 519 389 519 397.5 511.5 c 128,-1,61
 406 504 406 504 415.5 504 c 0,62,63
 436.647 504 436.647 504 476.324 537.5 c 1,64,65
 733.185 763.088 733.185 763.088 799.592 817.044 c 128,-1,66
 866 871 866 871 928.5 912 c 0,67,68
 1070.27 1005 1070.27 1005 1154 1005 c 0,69,70
 1223.14 1005 1223.14 1005 1265.57 983 c 0,71,72
 1341 943.889 1341 943.889 1341 894.944 c 128,-1,73
 1341 846 1341 846 1327.5 784 c 128,-1,74
 1314 722 1314 722 1297.5 664.5 c 2,75,-1
 1267.5 562.5 l 2,76,77
 1254 518 1254 518 1254 494.5 c 128,-1,78
 1254 471 1254 471 1274 471 c 0,79,80
 1322.03 471 1322.03 471 1465 607 c 1,81,-1
 1562.5 698.5 l 1,82,83
 1729.18 848 1729.18 848 1815 848 c 0,84,85
 1856 848 1856 848 1887.5 816.5 c 0,86,87
 1944 760 1944 760 1944 718 c 0,88,89
 1944 695.222 1944 695.222 1928 656.111 c 0,90,91
 1898 582.778 1898 582.778 1898 548 c 0,0,1
EndSplineSet
EndChar

StartChar: p
Encoding: 112 112 19
Width: 1360
Flags: HW
LayerCount: 2
Fore
SplineSet
349 249.5 m 0,0,1
 382 264 382 264 441 293.5 c 0,2,3
 801.765 478.802 801.765 478.802 836.883 497.901 c 2,4,-1
 879 521 l 1,5,6
 944 563 944 563 939 587 c 0,7,8
 928.331 638.212 928.331 638.212 884.165 628.606 c 128,-1,9
 840 619 840 619 792.5 603 c 128,-1,10
 745 587 745 587 691.5 564.5 c 0,11,12
 581.217 518.119 581.217 518.119 497.108 471.56 c 1,13,14
 202.561 303.399 202.561 303.399 143 267 c 1,15,16
 100 170 100 170 65.5 74.5 c 2,17,-1
 -55 -268.5 l 1,18,19
 -112.358 -426.765 -112.358 -426.765 -169.5 -483 c 0,20,21
 -201 -514 -201 -514 -239 -514 c 0,22,23
 -333 -514 -333 -514 -387 -448.5 c 128,-1,24
 -441 -383 -441 -383 -441 -282.5 c 128,-1,25
 -441 -182 -441 -182 -415 -84.5 c 128,-1,26
 -389 13 -389 13 -343 113 c 0,27,28
 -249.899 315.393 -249.899 315.393 -94 490 c 1,29,30
 0.743255 744.622 0.743255 744.622 222.5 985 c 0,31,32
 357.364 1131.19 357.364 1131.19 473 1191 c 0,33,34
 531 1221 531 1221 572 1221 c 128,-1,35
 613 1221 613 1221 634 1202.5 c 128,-1,36
 655 1184 655 1184 655 1156.5 c 128,-1,37
 655 1129 655 1129 638 1087 c 128,-1,38
 621 1045 621 1045 592 993 c 128,-1,39
 563 941 563 941 524 882 c 1,40,-1
 441 761 l 2,41,42
 431 746 431 746 431 734 c 0,43,44
 431 715 431 715 454 715 c 0,45,46
 479.897 715 479.897 715 550.448 748 c 2,47,-1
 709.5 821.5 l 1,48,49
 919.6 917 919.6 917 1112 917 c 0,50,51
 1211.74 917 1211.74 917 1300.5 821.5 c 0,52,53
 1389 726.279 1389 726.279 1389 616 c 0,54,55
 1389 446.065 1389 446.065 1250 354 c 2,56,-1
 1126 272.5 l 1,57,58
 1059 230 1059 230 987.5 189 c 1,59,-1
 844 110.5 l 1,60,61
 601.12 -16 601.12 -16 468.56 -16 c 128,-1,62
 336 -16 336 -16 276 17 c 128,-1,63
 216 50 216 50 216 110.449 c 0,64,65
 216 191.061 216 191.061 349 249.5 c 0,0,1
EndSplineSet
EndChar

StartChar: q
Encoding: 113 113 20
Width: 1359
Flags: HW
LayerCount: 2
Fore
SplineSet
622.5 109.5 m 2,0,1
 659 165 659 165 680.5 202.5 c 128,-1,2
 702 240 702 240 702 253.5 c 128,-1,3
 702 267 702 267 683.5 267 c 128,-1,4
 665.2 267 665.2 267 632.6 240.5 c 128,-1,5
 600 214 600 214 536.5 172 c 128,-1,6
 473 130 473 130 405.5 95.5 c 0,7,8
 253.87 18 253.87 18 143 18 c 0,9,10
 11.2316 18 11.2316 18 -76.5 123.5 c 0,11,12
 -159 222.709 -159 222.709 -159 359 c 0,13,14
 -159 537.427 -159 537.427 -10 641 c 0,15,16
 160.111 758.531 160.111 758.531 460.5 880 c 0,17,18
 769.622 1005 769.622 1005 939 1005 c 0,19,20
 1046 1005 1046 1005 1046 917 c 256,21,22
 1046 840.829 1046 840.829 969 816.414 c 128,-1,23
 892 792 892 792 812.5 759 c 128,-1,24
 733 726 733 726 657 689 c 1,25,-1
 511.5 615 l 1,26,27
 290.137 497.152 290.137 497.152 259.068 462.576 c 0,28,29
 216 414.645 216 414.645 216 384.323 c 128,-1,30
 216 354 216 354 263 354 c 128,-1,31
 310 354 310 354 355 367.5 c 128,-1,32
 400 381 400 381 450.5 404 c 128,-1,33
 501 427 501 427 557 457.5 c 1,34,-1
 788.5 589.5 l 1,35,36
 1006.67 716 1006.67 716 1082 716 c 0,37,38
 1144.79 716 1144.79 716 1195.5 671.5 c 0,39,40
 1251 622.796 1251 622.796 1251 551 c 0,41,42
 1251 481.842 1251 481.842 1120 275 c 2,43,-1
 958 19 l 2,44,45
 916 -48 916 -48 867 -135.5 c 128,-1,46
 818 -223 818 -223 759 -309.5 c 128,-1,47
 700 -396 700 -396 647 -459 c 0,48,49
 544.824 -580.454 544.824 -580.454 470 -619 c 0,50,51
 450 -629 450 -629 426.5 -617 c 128,-1,52
 403 -605 403 -605 391.5 -583 c 0,53,54
 328.02 -461.56 328.02 -461.56 417.5 -244 c 0,55,56
 456.704 -148.68 456.704 -148.68 521.352 -47.3399 c 2,57,-1
 622.5 109.5 l 2,0,1
EndSplineSet
EndChar

StartChar: u
Encoding: 117 117 21
Width: 1701
Flags: HW
LayerCount: 2
Fore
SplineSet
1221 503 m 0,0,1
 1221 402 1221 402 1310 402 c 256,2,3
 1399 402 1399 402 1617.5 573 c 1,4,-1
 1706 645 l 2,5,6
 1793 717 1793 717 1872 717 c 0,7,8
 1901 717 1901 717 1910 701.5 c 128,-1,9
 1919 686 1919 686 1919 662.5 c 128,-1,10
 1919 639 1919 639 1910.5 613.5 c 128,-1,11
 1902 588 1902 588 1887 559.5 c 0,12,13
 1853.94 496.677 1853.94 496.677 1822.97 461.839 c 128,-1,14
 1792 427 1792 427 1750.5 389.5 c 128,-1,15
 1709 352 1709 352 1652 305.5 c 128,-1,16
 1595 259 1595 259 1526 210.5 c 128,-1,17
 1457 162 1457 162 1387 121.5 c 0,18,19
 1228.85 30 1228.85 30 1127 30 c 0,20,21
 1004.91 30 1004.91 30 935.5 116.5 c 0,22,23
 871.347 196.444 871.347 196.444 863 330 c 1,24,25
 683.315 144.519 683.315 144.519 482.5 45 c 0,26,27
 359.411 -16 359.411 -16 274.205 -16 c 128,-1,28
 189 -16 189 -16 125 4.5 c 128,-1,29
 61 25 61 25 13 65.5 c 0,30,31
 -91 153.25 -91 153.25 -91 308 c 0,32,33
 -91 530.39 -91 530.39 68 735.5 c 0,34,35
 118 800 118 800 180 848 c 1,36,37
 313.538 932 313.538 932 464 932 c 0,38,39
 529.812 932 529.812 932 558 891 c 0,40,41
 569 875 569 875 569 849.5 c 128,-1,42
 569 824 569 824 554.5 790.5 c 128,-1,43
 540 757 540 757 519 720.5 c 128,-1,44
 498 684 498 684 472.5 645 c 128,-1,45
 447 606 447 606 426 569 c 0,46,47
 376 480.905 376 480.905 376 442.452 c 128,-1,48
 376 404 376 404 398 386 c 128,-1,49
 420 368 420 368 451.5 368 c 0,50,51
 522.8 368 522.8 368 572.9 402.5 c 128,-1,52
 623 437 623 437 671.5 482 c 1,53,-1
 766.5 574.5 l 1,54,-1
 857 667.5 l 2,55,56
 953.583 767.375 953.583 767.375 1004.29 791.688 c 128,-1,57
 1055 816 1055 816 1078 810 c 128,-1,58
 1101 804 1101 804 1125 788.5 c 128,-1,59
 1149 773 1149 773 1172 751 c 0,60,61
 1226.26 699.1 1226.26 699.1 1232 657 c 1,62,63
 1233.78 630.333 1233.78 630.333 1227.39 576.666 c 128,-1,64
 1221 523 1221 523 1221 503 c 0,0,1
EndSplineSet
EndChar

StartChar: v
Encoding: 118 118 22
Width: 1361
Flags: HW
LayerCount: 2
Fore
SplineSet
1188 265.5 m 128,-1,1
 1131 250 1131 250 1049.74 250 c 128,-1,2
 968.482 250 968.482 250 871 306 c 1,3,4
 724.277 177.366 724.277 177.366 605.639 106.183 c 0,5,6
 398.667 -18 398.667 -18 323 -18 c 0,7,8
 191.833 -18 191.833 -18 113 25 c 1,9,10
 -73 129.625 -73 129.625 -73 436 c 0,11,12
 -73 615.765 -73 615.765 26 773 c 0,13,14
 97.2446 886.153 97.2446 886.153 213.5 935 c 0,15,16
 273 960 273 960 326 960 c 128,-1,17
 379 960 379 960 413.5 954.5 c 128,-1,18
 448 949 448 949 477 938 c 0,19,20
 544 912.586 544 912.586 544 874 c 0,21,22
 544 827.692 544 827.692 512 785.846 c 128,-1,23
 480 744 480 744 456.5 718.5 c 2,24,-1
 410 668.5 l 2,25,26
 353.837 608.674 353.837 608.674 341.419 583.337 c 0,27,28
 321 541.678 321 541.678 321 492.339 c 128,-1,29
 321 443 321 443 330 413.5 c 128,-1,30
 339 384 339 384 353.5 360 c 0,31,32
 386.125 306 386.125 306 419 306 c 0,33,34
 465.278 306 465.278 306 614.5 441.5 c 1,35,36
 702 523 l 1,37,38
 698 543 698 543 698 568 c 128,-1,39
 698 593 698 593 712 629 c 128,-1,40
 726 665 726 665 750.5 705 c 128,-1,41
 775 745 775 745 808.5 785 c 128,-1,42
 842 825 842 825 880 857.5 c 0,43,44
 964.769 930 964.769 930 1041 930 c 0,45,46
 1176 930 1176 930 1176 789 c 0,47,48
 1176 701 1176 701 1126 601 c 1,49,50
 1126 564.28 1126 564.28 1165.5 539 c 0,51,52
 1178 531 1178 531 1195.5 531 c 128,-1,53
 1213 531 1213 531 1236 545 c 128,-1,54
 1259 559 1259 559 1281.5 577.5 c 2,55,-1
 1325 615 l 1,56,57
 1444.37 723 1444.37 723 1509 723 c 0,58,59
 1538.73 723 1538.73 723 1558.36 705 c 0,60,61
 1592 674.167 1592 674.167 1592 658.083 c 128,-1,62
 1592 642 1592 642 1584 625 c 128,-1,63
 1576 608 1576 608 1563 586.5 c 128,-1,64
 1550 565 1550 565 1533 541.5 c 0,65,66
 1463.58 447.583 1463.58 447.583 1436.29 419.292 c 128,-1,67
 1409 391 1409 391 1372.5 360.5 c 128,-1,68
 1336 330 1336 330 1290.5 305.5 c 128,-1,0
 1245 281 1245 281 1188 265.5 c 128,-1,1
EndSplineSet
EndChar

StartChar: w
Encoding: 119 119 23
Width: 2040
Flags: HW
LayerCount: 2
Fore
SplineSet
1843.5 247 m 128,-1,1
 1784 230 1784 230 1703 230 c 128,-1,2
 1622 230 1622 230 1530 282 c 1,3,4
 1300.8 72.7307 1300.8 72.7307 1108.5 -11.5 c 0,5,6
 1048 -38 1048 -38 1018 -38 c 128,-1,7
 988 -38 988 -38 961 -34 c 128,-1,8
 934 -30 934 -30 908 -23.5 c 0,9,10
 845.333 -7.83333 845.333 -7.83333 825.167 5.58334 c 128,-1,11
 805 19 805 19 784 42 c 128,-1,12
 763 65 763 65 745.5 100 c 0,13,14
 706.929 177.143 706.929 177.143 696 301 c 1,15,16
 454.296 87.0014 454.296 87.0014 400.648 51.0007 c 128,-1,17
 347 15 347 15 312.5 -1 c 0,18,19
 247.812 -31 247.812 -31 174.406 -31 c 128,-1,20
 101 -31 101 -31 46.5 1 c 128,-1,21
 -8 33 -8 33 -46 82.5 c 0,22,23
 -124 184.105 -124 184.105 -124 307 c 0,24,25
 -124 461.562 -124 461.562 -46.5 615.5 c 0,26,27
 71.6017 850.086 71.6017 850.086 282.5 930.5 c 0,28,29
 352 957 352 957 401.5 957 c 128,-1,30
 451 957 451 957 479 952.5 c 128,-1,31
 507 948 507 948 530.5 936 c 0,32,33
 584 908.681 584 908.681 584 850 c 0,34,35
 584 798.92 584 798.92 542 740.96 c 128,-1,36
 500 683 500 683 470 647 c 128,-1,37
 440 611 440 611 415 574.5 c 0,38,39
 356 488.36 356 488.36 356 425 c 0,40,41
 356 379 356 379 417 379 c 0,42,43
 512.255 379 512.255 379 715 567 c 1,44,45
 756.511 709.012 756.511 709.012 849.5 809 c 0,46,47
 953.66 921 953.66 921 1080 921 c 0,48,49
 1186.22 921 1186.22 921 1224.5 872 c 0,50,51
 1237 856 1237 856 1237 841.5 c 128,-1,52
 1237 827 1237 827 1220.5 800 c 2,53,-1
 1124.5 650 l 2,54,55
 1012 474.576 1012 474.576 1012 388 c 0,56,57
 1012 311 1012 311 1106 311 c 0,58,59
 1177.08 311 1177.08 311 1359 488 c 1,60,61
 1352 515 1352 515 1352 543 c 128,-1,62
 1352 571 1352 571 1365.5 605 c 128,-1,63
 1379 639 1379 639 1403 677 c 128,-1,64
 1427 715 1427 715 1459 753 c 128,-1,65
 1491 791 1491 791 1528 821.5 c 0,66,67
 1611.1 890 1611.1 890 1685 890 c 0,68,69
 1820 890 1820 890 1820 753 c 0,70,71
 1820 666.238 1820 666.238 1770 571 c 1,72,73
 1770 540.333 1770 540.333 1803.5 518 c 0,74,75
 1814 511 1814 511 1832.5 511 c 128,-1,76
 1851 511 1851 511 1881 527 c 128,-1,77
 1911 543 1911 543 1941 565 c 128,-1,78
 1971 587 1971 587 1997 609.5 c 128,-1,79
 2023 632 2023 632 2050.5 653.5 c 0,80,81
 2139.4 723 2139.4 723 2183 723 c 0,82,83
 2212.73 723 2212.73 723 2232.36 705 c 0,84,85
 2266 674.167 2266 674.167 2266 658.083 c 128,-1,86
 2266 642 2266 642 2258 625 c 128,-1,87
 2250 608 2250 608 2237 586.5 c 128,-1,88
 2224 565 2224 565 2207 541.5 c 0,89,90
 2137.58 447.583 2137.58 447.583 2109.29 417.292 c 128,-1,91
 2081 387 2081 387 2041.5 353 c 128,-1,92
 2002 319 2002 319 1952.5 291.5 c 128,-1,0
 1903 264 1903 264 1843.5 247 c 128,-1,1
EndSplineSet
EndChar

StartChar: x
Encoding: 120 120 24
Width: 1531
Flags: HW
LayerCount: 2
Fore
SplineSet
837 444 m 1,0,1
 908.529 330 908.529 330 990 330 c 0,2,3
 1072.08 330 1072.08 330 1299 480 c 1,4,-1
 1407.5 554 l 1,5,6
 1457 589 1457 589 1490 614.5 c 128,-1,7
 1523 640 1523 640 1547 658.5 c 0,8,9
 1600.84 700 1600.84 700 1671 700 c 0,10,11
 1693 700 1693 700 1713.5 687 c 128,-1,12
 1734 674 1734 674 1734 651.5 c 128,-1,13
 1734 629 1734 629 1727.5 606.5 c 128,-1,14
 1721 584 1721 584 1708.5 559.5 c 0,15,16
 1679.92 503.476 1679.92 503.476 1654.46 474.238 c 128,-1,17
 1629 445 1629 445 1600 416 c 128,-1,18
 1571 387 1571 387 1529.5 349 c 128,-1,19
 1488 311 1488 311 1434.5 266.5 c 128,-1,20
 1381 222 1381 222 1320 178 c 128,-1,21
 1259 134 1259 134 1191.5 93 c 128,-1,22
 1124 52 1124 52 1053 21 c 0,23,24
 894.968 -48 894.968 -48 769 -48 c 0,25,26
 630.101 -48 630.101 -48 541 104.5 c 0,27,28
 515 149 515 149 493 198 c 1,29,-1
 183 -24 l 1,30,31
 108.76 -82 108.76 -82 50 -82 c 0,32,33
 18.5 -82 18.5 -82 -4.75 -64 c 0,34,35
 -49 -29.7419 -49 -29.7419 -49 9.12903 c 128,-1,36
 -49 48 -49 48 -34.5 67.5 c 128,-1,37
 -20 87 -20 87 3 107 c 2,38,-1
 397 446 l 1,39,40
 352.319 551 352.319 551 305.66 551 c 0,41,42
 239.333 551 239.333 551 170 495 c 2,43,-1
 126 459.5 l 2,44,45
 31.8462 383 31.8462 383 -41 383 c 0,46,47
 -70 383 -70 383 -94 401 c 0,48,49
 -141 436.25 -141 436.25 -141 482 c 128,-1,50
 -141 527.833 -141 527.833 -40 612 c 2,51,-1
 -1 645 l 1,52,53
 25 669 25 669 52.5 691.5 c 2,54,-1
 257 859 l 1,55,56
 404.857 974 404.857 974 500 974 c 0,57,58
 583.213 974 583.213 974 662 813 c 0,59,60
 685 766 685 766 708 714 c 1,61,-1
 892 872 l 1,62,63
 1052 1007 1052 1007 1132 1007 c 0,64,65
 1192.6 1007 1192.6 1007 1243.8 971 c 0,66,67
 1339 904.062 1339 904.062 1339 843 c 0,68,69
 1339 804.667 1339 804.667 1307 786 c 0,70,71
 1301 783 1301 783 1286 771.5 c 2,72,-1
 1060 604 l 1,73,-1
 837 444 l 1,0,1
EndSplineSet
EndChar

StartChar: y
Encoding: 121 121 25
Width: 1530
Flags: HW
LayerCount: 2
Fore
SplineSet
356 425 m 0,0,1
 356 379 356 379 417 379 c 0,2,3
 541.444 379 541.444 379 839 688 c 1,4,-1
 935.5 785.5 l 1,5,6
 1035.24 883 1035.24 883 1067.12 883 c 128,-1,7
 1099 883 1099 883 1124 872 c 128,-1,8
 1149 861 1149 861 1167.5 844.5 c 0,9,10
 1207 809.27 1207 809.27 1207 769.635 c 128,-1,11
 1207 730 1207 730 1198.5 682.5 c 128,-1,12
 1190 635 1190 635 1172 576 c 0,13,14
 1138.55 466.358 1138.55 466.358 1053 281 c 2,15,-1
 1012 193 l 1,16,-1
 1182.5 347 l 1,17,-1
 1530 645 l 1,18,19
 1583.33 685 1583.33 685 1618.17 685 c 0,20,21
 1694 685 1694 685 1694 612 c 0,22,23
 1694 537.279 1694 537.279 1596.5 419 c 0,24,25
 1566 382 1566 382 1531 349.5 c 1,26,-1
 1295 145 l 1,27,-1
 835 -243.5 l 1,28,29
 774 -297 774 -297 743 -328 c 1,30,31
 705.67 -388.021 705.67 -388.021 685.335 -417.51 c 128,-1,32
 665 -447 665 -447 645 -480.5 c 128,-1,33
 625 -514 625 -514 606 -538 c 0,34,35
 564.833 -590 564.833 -590 524 -590 c 0,36,37
 480.545 -590 480.545 -590 440.773 -555 c 0,38,39
 367 -490.08 367 -490.08 367 -439.04 c 128,-1,40
 367 -388 367 -388 395 -320.5 c 128,-1,41
 423 -253 423 -253 467.5 -166.5 c 1,42,-1
 680 225 l 1,43,44
 527.367 86.6127 527.367 86.6127 440.184 42.3064 c 128,-1,45
 353 -2 353 -2 293.5 -16.5 c 128,-1,46
 234 -31 234 -31 167.5 -31 c 128,-1,47
 101 -31 101 -31 51 -3.5 c 128,-1,48
 1 24 1 24 -32 70.5 c 0,49,50
 -96 160.682 -96 160.682 -96 307 c 0,51,52
 -96 462.247 -96 462.247 -18.5 613 c 0,53,54
 57.3307 760.506 57.3307 760.506 180 851 c 0,55,56
 310.133 947 310.133 947 447.067 947 c 128,-1,57
 584 947 584 947 584 840 c 0,58,59
 584 772.6 584 772.6 470 641.5 c 128,-1,60
 356 510.4 356 510.4 356 425 c 0,0,1
EndSplineSet
EndChar

StartChar: z
Encoding: 122 122 26
Width: 1532
Flags: HW
LayerCount: 2
Fore
SplineSet
714 646 m 128,-1,1
 714 652 714 652 676 652 c 2,2,-1
 546 652 l 2,3,4
 395 652 395 652 374 644.5 c 128,-1,5
 353 637 353 637 325 618 c 128,-1,6
 297 599 297 599 265.5 575.5 c 2,7,-1
 201 527 l 2,8,9
 78.24 434 78.24 434 23 434 c 0,10,11
 -41 434 -41 434 -65 486.5 c 0,12,13
 -73 504 -73 504 -73 531.5 c 128,-1,14
 -73 559 -73 559 -55.5 585 c 128,-1,15
 -38 611 -38 611 -10.5 636.5 c 128,-1,16
 17 662 17 662 52.5 689 c 128,-1,17
 88 716 88 716 123.5 748 c 128,-1,18
 159 780 159 780 198 810.5 c 128,-1,19
 237 841 237 841 277 865 c 0,20,21
 365.333 918 365.333 918 429 918 c 0,22,23
 452.429 918 452.429 918 524.714 923.5 c 0,24,25
 692.688 936.645 692.688 936.645 756.844 942.322 c 0,26,27
 1054.95 968 1054.95 968 1074.47 968 c 128,-1,28
 1094 968 1094 968 1118.5 971 c 2,29,-1
 1169.5 977 l 2,30,31
 1196 980 1196 980 1220 983 c 128,-1,32
 1244 986 1244 986 1255.5 986 c 128,-1,33
 1267 986 1267 986 1287.5 977.5 c 128,-1,34
 1308 969 1308 969 1328 951 c 0,35,36
 1377 906.9 1377 906.9 1377 837 c 0,37,38
 1377 770.692 1377 770.692 1099 621 c 1,39,-1
 789.5 461.5 l 2,40,41
 716 424 716 424 663 394 c 1,42,43
 701 388 701 388 752 374 c 2,44,-1
 938 322.5 l 2,45,46
 976 312 976 312 993.5 312 c 128,-1,47
 1011 312 1011 312 1049.5 328 c 128,-1,48
 1088 344 1088 344 1136.5 371 c 128,-1,49
 1185 398 1185 398 1239.5 433 c 1,50,-1
 1347 505.5 l 1,51,52
 1462.19 587.003 1462.19 587.003 1530 649 c 0,53,54
 1561.73 677 1561.73 677 1600.37 677 c 0,55,56
 1677 677 1677 677 1677 615 c 0,57,58
 1677 534.255 1677 534.255 1597.5 426 c 0,59,60
 1574 394 1574 394 1551.5 372.5 c 2,61,-1
 1486.5 313 l 1,62,63
 1208.08 64.0602 1208.08 64.0602 983 -22 c 0,64,65
 915 -48 915 -48 859.5 -48 c 128,-1,66
 804 -48 804 -48 743 -30 c 128,-1,67
 682 -12 682 -12 622.5 9.5 c 2,68,-1
 509.5 49 l 2,69,70
 456 67 456 67 415.5 67 c 128,-1,71
 375 67 375 67 339.5 48.5 c 128,-1,72
 304 30 304 30 268 7.5 c 0,73,74
 172.8 -52 172.8 -52 104 -52 c 0,75,76
 62.375 -52 62.375 -52 30.6875 -19.5 c 0,77,78
 -28 40.6923 -28 40.6923 -28 78.3462 c 128,-1,79
 -28 116 -28 116 -3.5 150 c 128,-1,80
 21 184 21 184 58.5 219 c 128,-1,81
 96 254 96 254 142 288.5 c 1,82,83
 256.667 371.242 256.667 371.242 297.333 397.121 c 128,-1,84
 338 423 338 423 352.5 433 c 128,-1,85
 367 443 367 443 400.5 461.5 c 0,86,87
 650.335 597.557 650.335 597.557 682.167 618.778 c 128,-1,0
 714 640 714 640 714 646 c 128,-1,1
EndSplineSet
EndChar

StartChar: A
Encoding: 65 65 27
Width: 2551
Flags: HW
LayerCount: 2
Fore
SplineSet
257 -67 m 0,0,1
 205 -67 205 -67 158.5 -42.5 c 128,-1,2
 112 -18 112 -18 74.5 27 c 0,3,4
 -11 129.6 -11 129.6 -11 274 c 0,5,6
 -11 333 -11 333 35.5 392.5 c 128,-1,7
 82 452 82 452 187.5 499.5 c 0,8,9
 426.263 607 426.263 607 883 607 c 1,10,11
 1720 1255.5 l 2,12,13
 1762 1289 1762 1289 1769.5 1296.5 c 0,14,15
 1783 1310 1783 1310 1803.5 1310 c 128,-1,16
 1824 1310 1824 1310 1843.5 1306 c 128,-1,17
 1863 1302 1863 1302 1879 1295 c 0,18,19
 1914 1279.69 1914 1279.69 1914 1260 c 0,20,21
 1914 1246 1914 1246 1907 1238.5 c 2,22,-1
 1335 610 l 1,23,-1
 1579 610 l 1,24,25
 1595 646 1595 646 1632.5 709.5 c 1,26,-1
 1724 859.5 l 1,27,28
 1778 946 1778 946 1830.5 1022 c 1,29,-1
 1931 1162 l 1,30,31
 2086.25 1369 2086.25 1369 2155 1369 c 0,32,33
 2162.44 1369 2162.44 1369 2209.72 1350.5 c 128,-1,34
 2257 1332 2257 1332 2290 1314.5 c 0,35,36
 2370 1272.08 2370 1272.08 2370 1235 c 0,37,38
 2370 1200.25 2370 1200.25 2339 1161.62 c 128,-1,39
 2308 1123 2308 1123 2273.5 1071 c 128,-1,40
 2239 1019 2239 1019 2199.5 953.5 c 128,-1,41
 2160 888 2160 888 2120 814.5 c 128,-1,42
 2080 741 2080 741 2048 672 c 0,43,44
 1975 514.594 1975 514.594 1975 459.297 c 128,-1,45
 1975 404 1975 404 1983.5 379 c 128,-1,46
 1992 354 1992 354 2004.5 341.5 c 0,47,48
 2023 323 2023 323 2065 323 c 128,-1,49
 2107 323 2107 323 2150.5 338.5 c 128,-1,50
 2194 354 2194 354 2235.5 377.5 c 128,-1,51
 2277 401 2277 401 2317 428.5 c 128,-1,52
 2357 456 2357 456 2395 479.5 c 0,53,54
 2483.13 534 2483.13 534 2525.06 534 c 128,-1,55
 2567 534 2567 534 2581.5 514.5 c 128,-1,56
 2596 495 2596 495 2596 464 c 128,-1,57
 2596 433 2596 433 2570 380.5 c 128,-1,58
 2544 328 2544 328 2497 272 c 128,-1,59
 2450 216 2450 216 2386 161.5 c 128,-1,60
 2322 107 2322 107 2246 64.5 c 0,61,62
 2075.22 -30.9999 2075.22 -30.9999 1911 -31 c 0,63,64
 1762.68 -31 1762.68 -31 1649.5 73 c 0,65,66
 1524 188.324 1524 188.324 1524 370 c 0,67,68
 1524 379 1524 379 1524 388 c 128,-1,69
 1524 397 1524 397 1525 407 c 1,70,-1
 1106 354 l 1,71,72
 928.69 179.695 928.69 179.695 677.5 56.5 c 0,73,74
 425.688 -67 425.688 -67 257 -67 c 0,0,1
EndSplineSet
EndChar

StartChar: C
Encoding: 67 67 28
Width: 1639
Flags: HW
LayerCount: 2
Fore
SplineSet
538 470 m 0,0,1
 538 303 538 303 871 303 c 0,2,3
 1096 303 1096 303 1436 473 c 1,4,-1
 1538 527 l 1,5,6
 1770.05 645.392 1770.05 645.392 1800 578 c 0,7,8
 1808 560 1808 560 1808 536.5 c 128,-1,9
 1808 513 1808 513 1788.5 488.5 c 128,-1,10
 1769 464 1769 464 1736 434.5 c 128,-1,11
 1703 405 1703 405 1659 372.5 c 128,-1,12
 1615 340 1615 340 1566.5 308.5 c 1,13,-1
 1468 247 l 1,14,15
 1418 217 1418 217 1360 187.5 c 1,16,-1
 1213.5 116.5 l 1,17,18
 871.229 -44 871.229 -44 567 -44 c 0,19,20
 300.781 -44 300.781 -44 157.5 61 c 0,21,22
 30 154.435 30 154.435 30 301 c 0,23,24
 30 503.625 30 503.625 213 709.5 c 0,25,26
 371.177 887.449 371.177 887.449 646.5 1046.5 c 0,27,28
 886.332 1185.05 886.332 1185.05 1158 1274.5 c 0,29,30
 1414.63 1359 1414.63 1359 1575 1359 c 0,31,32
 1608.74 1359 1608.74 1359 1632.37 1337 c 0,33,34
 1674 1298.24 1674 1298.24 1674 1260 c 0,35,36
 1674 1111.51 1674 1111.51 1551 1021 c 0,37,38
 1446.36 944 1446.36 944 1306.18 944 c 128,-1,39
 1166 944 1166 944 1096 972 c 1,40,41
 835.013 871.205 835.013 871.205 672 701 c 0,42,43
 604 630 604 630 571 568 c 128,-1,44
 538 506 538 506 538 470 c 0,0,1
EndSplineSet
EndChar

StartChar: D
Encoding: 68 68 29
Width: 2214
Flags: HW
LayerCount: 2
Fore
SplineSet
268 200.773 m 0,0,1
 268 239.545 268 239.545 293 287.273 c 128,-1,2
 318 335 318 335 353.5 395.5 c 1,3,-1
 529.5 681 l 1,4,5
 727 986 l 1,6,7
 494.515 925.352 494.515 925.352 341.5 835 c 0,8,9
 289 804 289 804 254 771 c 1,10,11
 187.889 720 187.889 720 147.444 720 c 0,12,13
 72 720 72 720 72 787 c 0,14,15
 72 817 72 817 83.5 841 c 128,-1,16
 95 865 95 865 113.5 898 c 128,-1,17
 132 931 132 931 156.5 970.5 c 128,-1,18
 181 1010 181 1010 211 1052.5 c 128,-1,19
 241 1095 241 1095 275 1134.5 c 0,20,21
 351.185 1223.01 351.185 1223.01 406.092 1249 c 128,-1,22
 461 1275 461 1275 525.5 1294.5 c 128,-1,23
 590 1314 590 1314 677 1330 c 0,24,25
 878.188 1367 878.188 1367 1113 1367 c 0,26,27
 1622.04 1367 1622.04 1367 1913 1219.5 c 0,28,29
 2155 1096.82 2155 1096.82 2155 878 c 0,30,31
 2155 831.2 2155 831.2 2141.5 765.1 c 128,-1,32
 2128 699 2128 699 2078.5 599 c 128,-1,33
 2029 499 2029 499 1944 406 c 128,-1,34
 1859 313 1859 313 1737.5 231.5 c 128,-1,35
 1616 150 1616 150 1454.5 89 c 0,36,37
 1107.67 -42 1107.67 -42 636 -42 c 0,38,39
 452.014 -42 452.014 -42 351 39.5 c 0,40,41
 268 106.466 268 106.466 268 200.773 c 0,0,1
780 476.5 m 128,-1,43
 767 440 767 440 767 419 c 128,-1,44
 767 398 767 398 779.5 376.5 c 128,-1,45
 792 355 792 355 817 338.5 c 0,46,47
 873.818 301 873.818 301 985.909 301 c 128,-1,48
 1098 301 1098 301 1215.5 319 c 128,-1,49
 1333 337 1333 337 1431 367 c 128,-1,50
 1529 397 1529 397 1606 435.5 c 128,-1,51
 1683 474 1683 474 1737.5 514.5 c 0,52,53
 1848.23 596.789 1848.23 596.789 1861 667 c 0,54,55
 1864 683 1864 683 1864 701 c 0,56,57
 1864 906.376 1864 906.376 1426 992.5 c 0,58,59
 1258.09 1025.52 1258.09 1025.52 1063 1030 c 1,60,61
 870.852 682.545 870.852 682.545 831.926 597.772 c 128,-1,42
 793 513 793 513 780 476.5 c 128,-1,43
EndSplineSet
EndChar

StartChar: E
Encoding: 69 69 30
Width: 1867
Flags: HW
LayerCount: 2
Fore
SplineSet
101.5 112 m 128,-1,1
 58 163 58 163 43.5 208 c 0,2,3
 22 274.724 22 274.724 22 322.862 c 128,-1,4
 22 371 22 371 53.5 433 c 128,-1,5
 85 495 85 495 158.5 556 c 0,6,7
 318.467 688.762 318.467 688.762 649 784 c 1,8,9
 542.684 829.104 542.684 829.104 528 927 c 1,10,11
 513.083 1038.88 513.083 1038.88 624.5 1126.5 c 0,12,13
 828.723 1287.1 828.723 1287.1 1411.5 1343.5 c 0,14,15
 1592.33 1361 1592.33 1361 1673.67 1361 c 128,-1,16
 1755 1361 1755 1361 1789.5 1335 c 128,-1,17
 1824 1309 1824 1309 1830.5 1257.5 c 128,-1,18
 1837 1206 1837 1206 1811 1171 c 128,-1,19
 1785 1136 1785 1136 1737 1115 c 0,20,21
 1647.86 1076 1647.86 1076 1494 1076 c 0,22,23
 1381.11 1076 1381.11 1076 1288.5 1110.5 c 0,24,25
 1263 1120 1263 1120 1249 1131 c 1,26,27
 1049.41 1068.79 1049.41 1068.79 1021.5 992.5 c 0,28,29
 1014 972 1014 972 1016 955 c 0,30,31
 1025 894 1025 894 1096 865 c 128,-1,32
 1167 836 1167 836 1312 828 c 1,33,34
 1360 824 1360 824 1383.5 802 c 128,-1,35
 1407 780 1407 780 1410.5 756 c 128,-1,36
 1414 732 1414 732 1407 718.5 c 128,-1,37
 1400 705 1400 705 1386.5 696 c 0,38,39
 1362.09 679.727 1362.09 679.727 1291.05 668.864 c 128,-1,40
 1220 658 1220 658 1126 638.5 c 128,-1,41
 1032 619 1032 619 947 597 c 128,-1,42
 862 575 862 575 789.5 552 c 128,-1,43
 717 529 717 529 664.5 507.5 c 0,44,45
 552.072 461.458 552.072 461.458 556.036 432.729 c 128,-1,46
 560 404 560 404 579 383 c 128,-1,47
 598 362 598 362 630 346.5 c 0,48,49
 689.532 317.664 689.532 317.664 776.266 310.332 c 128,-1,50
 863 303 863 303 944.5 303 c 128,-1,51
 1026 303 1026 303 1119.5 316.5 c 128,-1,52
 1213 330 1213 330 1294.5 351 c 128,-1,53
 1376 372 1376 372 1444.5 395.5 c 128,-1,54
 1513 419 1513 419 1563.5 440 c 2,55,-1
 1646 474.5 l 2,56,57
 1678 488 1678 488 1704 488 c 0,58,59
 1773.1 488 1773.1 488 1782 415 c 0,60,61
 1793.64 316.043 1793.64 316.043 1559.5 191.5 c 0,62,63
 1247.11 25.3376 1247.11 25.3376 868.5 -26 c 0,64,65
 780 -38 780 -38 656.5 -38 c 128,-1,66
 533 -38 533 -38 416 -22 c 128,-1,67
 299 -6 299 -6 222 27.5 c 128,-1,0
 145 61 145 61 101.5 112 c 128,-1,1
EndSplineSet
EndChar

StartChar: G
Encoding: 71 71 31
Width: 2371
Flags: HW
LayerCount: 2
Fore
SplineSet
700 457 m 0,0,1
 700 365 700 365 907 365 c 0,2,3
 1187.42 365 1187.42 365 1444.5 464 c 0,4,5
 1525 495 1525 495 1609 532 c 1,6,-1
 1722.5 598 l 1,7,8
 1905.34 702 1905.34 702 1982 702 c 0,9,10
 2015 702 2015 702 2034 692 c 1,11,12
 2083.56 676.141 2083.56 676.141 2114.28 640.57 c 0,13,14
 2169 577.21 2169 577.21 2169 543.605 c 128,-1,15
 2169 510 2169 510 2152 457.5 c 128,-1,16
 2135 405 2135 405 2106 343.5 c 128,-1,17
 2077 282 2077 282 2039 216 c 128,-1,18
 2001 150 2001 150 1958.5 89.5 c 0,19,20
 1862.38 -47.3265 1862.38 -47.3265 1787 -108 c 1,21,22
 1759 -143 1759 -143 1718 -186 c 128,-1,23
 1677 -229 1677 -229 1605.5 -277.5 c 128,-1,24
 1534 -326 1534 -326 1456.5 -363.5 c 128,-1,25
 1379 -401 1379 -401 1298.5 -428.5 c 128,-1,26
 1218 -456 1218 -456 1144.5 -474 c 0,27,28
 1001.58 -509 1001.58 -509 925.292 -509 c 128,-1,29
 849 -509 849 -509 814.5 -478.5 c 128,-1,30
 780 -448 780 -448 780 -401.5 c 128,-1,31
 780 -355 780 -355 812.5 -309 c 128,-1,32
 845 -263 845 -263 900.5 -220 c 128,-1,33
 956 -177 956 -177 1029.5 -137.5 c 128,-1,34
 1103 -98 1103 -98 1184 -63 c 0,35,36
 1331.36 0.674701 1331.36 0.674701 1511 52 c 1,37,38
 1612.97 192.495 1612.97 192.495 1693 338 c 1,39,-1
 1643.5 310.5 l 2,40,41
 1619 297 1619 297 1595 286 c 1,42,43
 1413.96 176.91 1413.96 176.91 1138 92 c 0,44,45
 809.75 -9 809.75 -9 513 -9 c 0,46,47
 345.871 -9 345.871 -9 248.5 101.5 c 0,48,49
 159 203.067 159 203.067 159 358 c 0,50,51
 159 522.5 159 522.5 380 711 c 0,52,53
 574.402 876.813 574.402 876.813 905 1034.5 c 0,54,55
 1204.91 1177.55 1204.91 1177.55 1526.5 1270.5 c 0,56,57
 1843.07 1362 1843.07 1362 2038 1362 c 0,58,59
 2152.81 1362 2152.81 1362 2194.5 1284 c 0,60,61
 2210 1255 2210 1255 2210 1201.5 c 128,-1,62
 2210 1148 2210 1148 2170 1106 c 128,-1,63
 2130 1064 2130 1064 2065.5 1039.5 c 0,64,65
 1950.98 996 1950.98 996 1783.99 996 c 128,-1,66
 1617 996 1617 996 1482 1016 c 1,67,68
 1291.55 953.738 1291.55 953.738 1095 834 c 0,69,70
 930.1 733.543 930.1 733.543 810.5 618.5 c 0,71,72
 700 512.21 700 512.21 700 457 c 0,0,1
EndSplineSet
EndChar

StartChar: I
Encoding: 73 73 32
Width: 1531
Flags: HW
LayerCount: 2
Fore
SplineSet
1112 1034 m 0,0,1
 1112 1102 1112 1102 1061.5 1102 c 128,-1,2
 1011 1102 1011 1102 936.5 1084 c 128,-1,3
 862 1066 862 1066 777 1028 c 0,4,5
 582.933 941.241 582.933 941.241 426 788 c 1,6,7
 404.727 770 404.727 770 369.364 770 c 128,-1,8
 334 770 334 770 310 787.5 c 128,-1,9
 286 805 286 805 286 833 c 128,-1,10
 286 861 286 861 298 892.5 c 128,-1,11
 310 924 310 924 323 967.5 c 128,-1,12
 336 1011 336 1011 350.5 1053.5 c 0,13,14
 385.946 1157.39 385.946 1157.39 417 1190 c 1,15,16
 474.131 1237.05 474.131 1237.05 722.5 1294 c 0,17,18
 997.25 1357 997.25 1357 1260 1357 c 0,19,20
 1370.33 1357 1370.33 1357 1441.5 1276.5 c 0,21,22
 1504 1205.8 1504 1205.8 1504 1129 c 0,23,24
 1504 1063.25 1504 1063.25 1406.5 815.5 c 0,25,26
 1251.45 421.509 1251.45 421.509 1089 199.5 c 0,27,28
 1044 138 1044 138 1000 99 c 1,29,30
 936.25 49.4167 936.25 49.4167 832.125 14.7083 c 0,31,32
 656 -44 656 -44 603.5 -44 c 128,-1,33
 551 -44 551 -44 500 -30.5 c 128,-1,34
 449 -17 449 -17 401.5 4.5 c 128,-1,35
 354 26 354 26 313 53.5 c 128,-1,36
 272 81 272 81 241 108.5 c 0,37,38
 175 167.048 175 167.048 175 204 c 0,39,40
 175 239.083 175 239.083 260 317 c 0,41,42
 347.273 397 347.273 397 403 397 c 0,43,44
 441.062 397 441.062 397 494.531 367.5 c 2,45,-1
 572.5 324.5 l 2,46,47
 597 311 597 311 616.5 311 c 128,-1,48
 636 311 636 311 671 339.5 c 128,-1,49
 706 368 706 368 746 415 c 128,-1,50
 786 462 786 462 828.5 523 c 128,-1,51
 871 584 871 584 911.5 648.5 c 128,-1,52
 952 713 952 713 988.5 777 c 128,-1,53
 1025 841 1025 841 1052.5 894 c 0,54,55
 1112 1008.67 1112 1008.67 1112 1034 c 0,0,1
EndSplineSet
EndChar

StartChar: J
Encoding: 74 74 33
Width: 1879
Flags: HW
LayerCount: 2
Fore
SplineSet
222.5 281.5 m 0,0,1
 204 274 204 274 181.5 274 c 128,-1,2
 159 274 159 274 131.5 306 c 128,-1,3
 104 338 104 338 82.5 386 c 0,4,5
 34 494.279 34 494.279 34 597 c 0,6,7
 34 661.538 34 661.538 59 700 c 1,8,9
 151.5 802 l 2,10,11
 196 852 196 852 247 890 c 0,12,13
 836.577 1320.23 836.577 1320.23 1442.5 1352.5 c 0,14,15
 1527 1357 1527 1357 1574 1357 c 128,-1,16
 1621 1357 1621 1357 1650.5 1343.5 c 128,-1,17
 1680 1330 1680 1330 1707 1308.5 c 128,-1,18
 1734 1287 1734 1287 1758 1260.5 c 128,-1,19
 1782 1234 1782 1234 1800 1208.5 c 0,20,21
 1838 1154.67 1838 1154.67 1838 1132.83 c 128,-1,22
 1838 1111 1838 1111 1829 1081.5 c 128,-1,23
 1820 1052 1820 1052 1808 1017.5 c 128,-1,24
 1796 983 1796 983 1782.5 949 c 2,25,-1
 1760 891 l 2,26,27
 1610.72 506.195 1610.72 506.195 1406 167.5 c 0,28,29
 1338 55 1338 55 1292.5 -6.5 c 128,-1,30
 1247 -68 1247 -68 1216.5 -105 c 128,-1,31
 1186 -142 1186 -142 1151 -178 c 128,-1,32
 1116 -214 1116 -214 1076 -246.5 c 128,-1,33
 1036 -279 1036 -279 993.5 -304 c 0,34,35
 901.7 -358 901.7 -358 812 -358 c 0,36,37
 751.875 -358 751.875 -358 676.5 -295 c 0,38,39
 596 -227.716 596 -227.716 596 -159 c 0,40,41
 596 -47.4098 596 -47.4098 815 168 c 0,42,43
 929.509 280.632 929.509 280.632 1023.75 351.316 c 128,-1,44
 1118 422 1118 422 1160 447 c 1,45,46
 1317.21 744.201 1317.21 744.201 1353.11 818.601 c 2,47,-1
 1409 937.5 l 1,48,49
 1451 1030.95 1451 1030.95 1451 1049 c 0,50,51
 1451 1094 1451 1094 1403 1094 c 128,-1,52
 1355 1094 1355 1094 1280 1071 c 128,-1,53
 1205 1048 1205 1048 1119 1008.5 c 128,-1,54
 1033 969 1033 969 940.5 916.5 c 128,-1,55
 848 864 848 864 759.5 805.5 c 128,-1,56
 671 747 671 747 590.5 685 c 128,-1,57
 510 623 510 623 447.5 565 c 0,58,59
 311.141 438.459 311.141 438.459 298 369 c 1,60,61
 284.905 306.799 284.905 306.799 222.5 281.5 c 0,0,1
EndSplineSet
EndChar

StartChar: K
Encoding: 75 75 34
Width: 1871
Flags: HW
LayerCount: 2
Fore
SplineSet
1554 1360 m 0,0,1
 1701 1360 1701 1360 1701 1279 c 0,2,3
 1701 1209.13 1701 1209.13 1590 1074 c 0,4,5
 1576 1057 1576 1057 1530.5 1015.5 c 1,6,-1
 1416 914.5 l 1,7,-1
 1076 631 l 1,8,9
 1101.08 585.858 1101.08 585.858 1161.04 522.929 c 128,-1,10
 1221 460 1221 460 1267.5 419.5 c 0,11,12
 1370.26 330 1370.26 330 1392.63 330 c 128,-1,13
 1415 330 1415 330 1449.5 347 c 128,-1,14
 1484 364 1484 364 1527 391.5 c 128,-1,15
 1570 419 1570 419 1617.5 453.5 c 1,16,-1
 1870 645 l 2,17,18
 1906 673 1906 673 1942.5 673 c 0,19,20
 2017 673 2017 673 2017 611 c 0,21,22
 2017 530.255 2017 530.255 1937.5 422 c 0,23,24
 1914 390 1914 390 1892 368.5 c 2,25,-1
 1829 309.5 l 1,26,27
 1555.18 59.0534 1555.18 59.0534 1342.5 -22.5 c 0,28,29
 1276 -48 1276 -48 1224 -48 c 128,-1,30
 1172 -48 1172 -48 1124 -30 c 128,-1,31
 1076 -12 1076 -12 1029 18 c 128,-1,32
 982 48 982 48 937.5 87.5 c 128,-1,33
 893 127 893 127 853 171 c 0,34,35
 780.08 251.212 780.08 251.212 717 347 c 1,36,-1
 533 210 l 1,37,38
 238.75 -4 238.75 -4 174 -4 c 0,39,40
 104.261 -4 104.261 -4 39 35.5 c 0,41,42
 20 47 20 47 13 60 c 1,43,44
 -24 97 -24 97 -24 212 c 128,-1,45
 -24 327 -24 327 -5.5 417.5 c 128,-1,46
 13 508 13 508 44 600.5 c 128,-1,47
 75 693 75 693 116 784 c 128,-1,48
 157 875 157 875 202 958 c 128,-1,49
 247 1041 247 1041 294 1112.5 c 128,-1,50
 341 1184 341 1184 383.5 1236.5 c 0,51,52
 473.762 1348 473.762 1348 519.381 1348 c 128,-1,53
 565 1348 565 1348 611 1340 c 128,-1,54
 657 1332 657 1332 694 1315.5 c 0,55,56
 778 1278.04 778 1278.04 778 1213 c 0,57,58
 778 1174.12 778 1174.12 747 1129.06 c 128,-1,59
 716 1084 716 1084 678.5 1023 c 0,60,61
 576.161 852.436 576.161 852.436 536.081 779.718 c 1,62,-1
 469 654 l 1,63,64
 410 538.185 410 538.185 410 511 c 0,65,66
 410 488 410 488 448 488 c 0,67,68
 462.564 488 462.564 488 557.782 569.5 c 2,69,-1
 726.5 716 l 1,70,-1
 1251 1195.5 l 2,71,72
 1289 1231 1289 1231 1295 1237 c 0,73,74
 1356 1299 1356 1299 1425.5 1329.5 c 128,-1,75
 1495 1360 1495 1360 1554 1360 c 0,0,1
EndSplineSet
EndChar

StartChar: L
Encoding: 76 76 35
Width: 1870
Flags: HW
LayerCount: 2
Fore
SplineSet
760 796 m 1,0,1
 609.143 772 609.143 772 512.571 772 c 128,-1,2
 416 772 416 772 352 786 c 128,-1,3
 288 800 288 800 232.5 829 c 0,4,5
 105.352 895.438 105.352 895.438 85 1012 c 1,6,7
 77 1073.33 77 1073.33 118 1087 c 0,8,9
 130 1091 130 1091 146.5 1091 c 128,-1,10
 163 1091 163 1091 181 1083 c 1,11,12
 245.593 1036.49 245.593 1036.49 407 1012.5 c 0,13,14
 444 1007 444 1007 466 1007 c 128,-1,15
 488 1007 488 1007 524 1009 c 128,-1,16
 560 1011 560 1011 600.5 1017 c 0,17,18
 696.831 1031.27 696.831 1031.27 756.415 1063.64 c 128,-1,19
 816 1096 816 1096 865 1135 c 128,-1,20
 914 1174 914 1174 957 1212 c 2,21,-1
 1039.5 1285.5 l 2,22,23
 1124.05 1361.49 1124.05 1361.49 1193.03 1384.25 c 128,-1,24
 1262 1407 1262 1407 1301 1407 c 128,-1,25
 1340 1407 1340 1407 1374.5 1395.5 c 128,-1,26
 1409 1384 1409 1384 1444 1364 c 0,27,28
 1532 1313.71 1532 1313.71 1532 1260 c 0,29,30
 1532 1188.01 1532 1188.01 1451.5 1100 c 0,31,32
 1369.43 1010.27 1369.43 1010.27 1251 955 c 1,33,34
 887.002 518.662 887.002 518.662 834 450 c 1,35,-1
 976.5 398 l 1,36,37
 1241.31 298 1241.31 298 1374 298 c 0,38,39
 1443.83 298 1443.83 298 1542 355 c 0,40,41
 1573 373 1573 373 1597.5 399.5 c 0,42,43
 1646.96 453 1646.96 453 1692.98 453 c 128,-1,44
 1739 453 1739 453 1760.5 426 c 128,-1,45
 1782 399 1782 399 1774.5 361 c 128,-1,46
 1767 323 1767 323 1744 279.5 c 128,-1,47
 1721 236 1721 236 1685.5 188.5 c 128,-1,48
 1650 141 1650 141 1603.5 93.5 c 128,-1,49
 1557 46 1557 46 1503.5 8.5 c 0,50,51
 1382.95 -76 1382.95 -76 1274 -76 c 0,52,53
 1201.86 -76 1201.86 -76 1047.43 -29 c 1,54,-1
 677.5 80.5 l 2,55,56
 606 101 606 101 542 116 c 1,57,58
 413.526 5.87901 413.526 5.87901 265 -17.5 c 0,59,60
 211 -26 211 -26 151 -26 c 128,-1,61
 91 -26 91 -26 57 -10.5 c 128,-1,62
 23 5 23 5 5 30.5 c 0,63,64
 -24 71.5833 -24 71.5833 -24 160 c 0,65,66
 -24 210.987 -24 210.987 56.5 299 c 0,67,68
 194.565 449.951 194.565 449.951 364.5 508.5 c 0,69,70
 424 529 424 529 468.333 529 c 128,-1,71
 512.667 529 512.667 529 564 522 c 1,72,73
 738.662 735.035 738.662 735.035 760 796 c 1,0,1
1195 932 m 1,74,75
 1191 927 1191 927 1193 928 c 128,-1,76
 1195 929 1195 929 1202 934 c 1,77,-1
 1195 932 l 1,74,75
EndSplineSet
EndChar

StartChar: M
Encoding: 77 77 36
Width: 2725
Flags: HW
LayerCount: 2
Fore
SplineSet
1808 243 m 1,0,-1
 1810 311 l 2,1,2
 1811.73 374.964 1811.73 374.964 1821.86 450.982 c 2,3,-1
 1837.5 569 l 2,4,5
 1843 611 1843 611 1848 645 c 1,6,7
 1753.15 541.154 1753.15 541.154 1695.08 483.077 c 2,8,-1
 1580.5 371 l 1,9,10
 1193.96 9.99997 1193.96 9.99997 1120 10 c 0,11,12
 1010.64 10 1010.64 10 891 57 c 0,13,14
 825.88 82.5827 825.88 82.5827 817 111 c 1,15,16
 803 146 803 146 803 206.5 c 128,-1,17
 803 267 803 267 807 318 c 128,-1,18
 811 369 811 369 817 419.5 c 128,-1,19
 823 470 823 470 829.5 516.5 c 128,-1,20
 836 563 836 563 840.5 598.5 c 0,21,22
 850.451 677 850.451 677 844 677 c 1,23,-1
 471.5 220.5 l 1,24,25
 209.291 -89.1897 209.291 -89.1897 173.146 -122.095 c 0,26,27
 96.3562 -192 96.3562 -192 3 -192 c 0,28,29
 -43 -192 -43 -192 -73 -169 c 128,-1,30
 -103 -146 -103 -146 -103 -111.5 c 0,31,32
 -103 -43.5484 -103 -43.5484 -46 30 c 2,33,-1
 841.5 1159 l 1,34,-1
 945.5 1284.5 l 1,35,36
 1132.02 1503 1132.02 1503 1190 1503 c 0,37,38
 1270.94 1503 1270.94 1503 1344.5 1462 c 0,39,40
 1408.91 1426.1 1408.91 1426.1 1418 1392 c 0,41,42
 1421.65 1379.24 1421.65 1379.24 1401.32 1271.12 c 2,43,-1
 1366 1082.5 l 2,44,45
 1307 765.867 1307 765.867 1307 674.433 c 128,-1,46
 1307 583 1307 583 1328 583 c 0,47,48
 1396.12 583 1396.12 583 1589.5 806 c 1,49,-1
 1914 1193.5 l 1,50,51
 2020.65 1317.17 2020.65 1317.17 2056 1334 c 0,52,53
 2066 1339 2066 1339 2085 1339 c 128,-1,54
 2104 1339 2104 1339 2127.5 1334 c 128,-1,55
 2151 1329 2151 1329 2175.5 1321 c 128,-1,56
 2200 1313 2200 1313 2223 1302 c 128,-1,57
 2246 1291 2246 1291 2264 1279 c 0,58,59
 2303 1253 2303 1253 2302.5 1236.5 c 128,-1,60
 2302 1220 2302 1220 2294 1165.5 c 128,-1,61
 2286 1111 2286 1111 2273.5 1033 c 0,62,63
 2191.33 515.649 2191.33 515.649 2187.67 432.825 c 128,-1,64
 2184 350 2184 350 2204.5 329 c 128,-1,65
 2225 308 2225 308 2265 308 c 0,66,67
 2337.8 308 2337.8 308 2477 395 c 0,68,69
 2571.03 454 2571.03 454 2632.52 454 c 128,-1,70
 2694 454 2694 454 2694 395 c 0,71,72
 2694 333.662 2694 333.662 2628.5 247 c 0,73,74
 2533.3 121.043 2533.3 121.043 2343.5 19 c 0,75,76
 2185.4 -66.0001 2185.4 -66.0001 2042 -66 c 0,77,78
 1808 -66 1808 -66 1808 243 c 1,0,-1
EndSplineSet
EndChar

StartChar: N
Encoding: 78 78 37
Width: 2041
Flags: HW
LayerCount: 2
Fore
SplineSet
213 42 m 2,0,1
 150.975 -36.7243 150.975 -36.7243 111.487 -45.3621 c 128,-1,2
 72 -54 72 -54 46 -47 c 128,-1,3
 20 -40 20 -40 0.5 -23.5 c 0,4,5
 -42 12.4615 -42 12.4615 -42 72 c 0,6,7
 -42 115.643 -42 115.643 -15 160 c 0,8,9
 567.666 1087.26 567.666 1087.26 619.333 1164.13 c 0,10,11
 739.343 1341.63 739.343 1341.63 757.671 1363.81 c 2,12,-1
 783 1394 l 1,13,14
 895.462 1523 895.462 1523 1074 1523 c 0,15,16
 1212.96 1523 1212.96 1523 1264.5 1462.5 c 0,17,18
 1276 1449 1276 1449 1276.5 1412 c 128,-1,19
 1277 1375 1277 1375 1279.5 1294 c 2,20,-1
 1285 1122 l 2,21,22
 1288 1031 1288 1031 1291.5 935.5 c 2,23,-1
 1298.5 750 l 2,24,25
 1305.5 570 1305.5 570 1312 440 c 1,26,27
 1351 509 1351 509 1391 601 c 2,28,-1
 1476.5 795 l 1,29,30
 1592.3 1054.6 1592.3 1054.6 1700 1206 c 1,31,32
 1767.72 1303 1767.72 1303 1924 1303 c 0,33,34
 2038.83 1303 2038.83 1303 2130.5 1253 c 0,35,36
 2185.48 1223.01 2185.48 1223.01 2184.5 1200.5 c 0,37,38
 2183.57 1179.09 2183.57 1179.09 2169.28 1160.05 c 2,39,-1
 2148 1131 l 1,40,41
 2077 1032 2077 1032 2008 925 c 1,42,-1
 1874.5 712.5 l 1,43,44
 1591.92 245.526 1591.92 245.526 1546.96 176.763 c 128,-1,45
 1502 108 1502 108 1478.5 80.5 c 128,-1,46
 1455 53 1455 53 1417.5 34 c 128,-1,47
 1380 15 1380 15 1332.5 0 c 0,48,49
 1228 -33 1228 -33 1159 -33 c 0,50,51
 1042.76 -33 1042.76 -33 1002 0 c 1,52,53
 957.687 40.2847 957.687 40.2847 878 464.5 c 1,54,-1
 844.5 651.5 l 2,55,56
 828 748 828 748 815 843 c 1,57,58
 782 792 782 792 730.5 721.5 c 1,59,-1
 436 330.5 l 1,60,-1
 213 42 l 2,0,1
EndSplineSet
EndChar

StartChar: Q
Encoding: 81 81 38
Width: 2552
Flags: HW
LayerCount: 2
Fore
SplineSet
1831 289 m 1,0,1
 2035.25 194 2035.25 194 2123 194 c 0,2,3
 2135 194 2135 194 2157.5 199 c 2,4,-1
 2207.5 210.5 l 2,5,6
 2235 217 2235 217 2265.5 225 c 128,-1,7
 2296 233 2296 233 2324.5 239 c 0,8,9
 2433.08 261.859 2433.08 261.859 2453 226 c 0,10,11
 2463 208 2463 208 2463 190.5 c 0,12,13
 2463 134.087 2463 134.087 2433.5 93.0435 c 128,-1,14
 2404 52 2404 52 2367.5 18 c 128,-1,15
 2331 -16 2331 -16 2282.5 -49.5 c 128,-1,16
 2234 -83 2234 -83 2177 -110 c 0,17,18
 2050.33 -170 2050.33 -170 1928 -170 c 256,19,20
 1780.32 -170 1780.32 -170 1517 12 c 1,21,-1
 1386 99.5 l 1,22,23
 1239 194 1239 194 1171.5 194 c 128,-1,24
 1104 194 1104 194 1056 168.5 c 128,-1,25
 1008 143 1008 143 964 111 c 1,26,27
 1006 105 1006 105 1036 102.5 c 128,-1,28
 1066 100 1066 100 1082.5 97 c 128,-1,29
 1099 94 1099 94 1112 74.5 c 128,-1,30
 1125 55 1125 55 1125 35.5 c 128,-1,31
 1125 16 1125 16 1120 1.5 c 128,-1,32
 1115 -13 1115 -13 1104.5 -24.5 c 0,33,34
 1081.22 -50 1081.22 -50 1042.61 -50 c 128,-1,35
 1004 -50 1004 -50 946 -45.5 c 128,-1,36
 888 -41 888 -41 818 -30.5 c 128,-1,37
 748 -20 748 -20 671 -2.5 c 128,-1,38
 594 15 594 15 520 42 c 128,-1,39
 446 69 446 69 378.5 106 c 128,-1,40
 311 143 311 143 259.5 192.5 c 0,41,42
 148 299.67 148 299.67 148 444 c 0,43,44
 148 713.464 148 713.464 489.5 953 c 0,45,46
 810.047 1177.84 810.047 1177.84 1285 1289.5 c 0,47,48
 1597.63 1363 1597.63 1363 1898 1363 c 0,49,50
 2119.21 1363 2119.21 1363 2225.5 1315 c 0,51,52
 2381 1244.77 2381 1244.77 2381 1032 c 0,53,54
 2381 835.69 2381 835.69 2235 628 c 0,55,56
 2079.2 406.364 2079.2 406.364 1831 289 c 1,0,1
1588 409 m 1,57,58
 1818.11 557.461 1818.11 557.461 1906.5 766.5 c 0,59,60
 1938 841 1938 841 1938 933.5 c 0,61,62
 1938 1123 1938 1123 1698 1123 c 0,63,64
 1505.65 1123 1505.65 1123 1208 966 c 0,65,66
 903.02 805.131 903.02 805.131 739 604.5 c 0,67,68
 618 456.491 618 456.491 618 331 c 0,69,70
 618 235 618 235 738 175 c 1,71,72
 822.713 286.003 822.713 286.003 1030.5 399.5 c 0,73,74
 1232.8 510 1232.8 510 1308.2 510 c 128,-1,75
 1383.6 510 1383.6 510 1588 409 c 1,57,58
EndSplineSet
EndChar

StartChar: S
Encoding: 83 83 39
Width: 2044
Flags: HW
LayerCount: 2
Fore
SplineSet
1640 1006 m 0,0,1
 1541.35 1006 1541.35 1006 1502 1100 c 1,2,3
 1358.17 1100 1358.17 1100 1186.5 1030 c 0,4,5
 1079.28 986.279 1079.28 986.279 1042.14 949.139 c 128,-1,6
 1005 912 1005 912 1002.5 891 c 128,-1,7
 1000 870 1000 870 1023 855.5 c 128,-1,8
 1046 841 1046 841 1087.5 828 c 128,-1,9
 1129 815 1129 815 1184.5 802 c 0,10,11
 1472.02 734.993 1472.02 734.993 1548.51 709.496 c 0,12,13
 1702.4 658.2 1702.4 658.2 1778 597 c 1,14,15
 1850 535.909 1850 535.909 1850 431 c 0,16,17
 1850 343.69 1850 343.69 1796.5 283.845 c 128,-1,18
 1743 224 1743 224 1655 177 c 128,-1,19
 1567 130 1567 130 1458.5 93.5 c 128,-1,20
 1350 57 1350 57 1229.5 31 c 128,-1,21
 1109 5 1109 5 992.5 -11.5 c 0,22,23
 763.03 -44 763.03 -44 601.015 -44 c 0,24,25
 305.75 -44 305.75 -44 146 27 c 0,26,27
 85.8613 53.5318 85.8613 53.5318 48.5 162 c 0,28,29
 18 250.548 18 250.548 18 308.274 c 128,-1,30
 18 366 18 366 28 372 c 128,-1,31
 38 378 38 378 69 372.5 c 128,-1,32
 100 367 100 367 150 353.5 c 2,33,-1
 269.5 322.5 l 1,34,35
 549.486 252 549.486 252 860 252 c 0,36,37
 1089.09 252 1089.09 252 1247.5 293 c 0,38,39
 1342.45 317.577 1342.45 317.577 1348 349 c 1,40,41
 1351.58 375.859 1351.58 375.859 1200 416.5 c 0,42,43
 1131 435 1131 435 1040.5 456.5 c 0,44,45
 598.805 563.156 598.805 563.156 507.903 594.078 c 128,-1,46
 417 625 417 625 389.5 649 c 128,-1,47
 362 673 362 673 344.5 702.5 c 0,48,49
 311 758.971 311 758.971 311 810.486 c 128,-1,50
 311 862 311 862 316.5 890 c 128,-1,51
 322 918 322 918 332 941.5 c 0,52,53
 353.084 991.047 353.084 991.047 385 1009 c 0,54,55
 642.3 1152.87 642.3 1152.87 1140 1262.5 c 0,56,57
 1582.62 1360 1582.62 1360 1869 1360 c 0,58,59
 1927.23 1360 1927.23 1360 1955.62 1339.5 c 0,60,61
 2005.88 1303.19 2005.88 1303.19 1999.94 1261.1 c 128,-1,62
 1994 1219 1994 1219 1974.5 1183.5 c 128,-1,63
 1955 1148 1955 1148 1926 1119.5 c 128,-1,64
 1897 1091 1897 1091 1861.5 1069.5 c 128,-1,65
 1826 1048 1826 1048 1788 1034 c 0,66,67
 1712 1006 1712 1006 1640 1006 c 0,0,1
EndSplineSet
EndChar

StartChar: T
Encoding: 84 84 40
Width: 1868
Flags: HW
LayerCount: 2
Fore
SplineSet
1822 1382 m 0,0,1
 1889 1382 1889 1382 1889 1335 c 0,2,3
 1889 1274.81 1889 1274.81 1795.5 1164 c 2,4,-1
 1777 1142 l 1,5,6
 1695.06 1042.24 1695.06 1042.24 1569 1005 c 0,7,8
 1525 992 1525 992 1497 992 c 0,9,10
 1461 992 1461 992 1441 994 c 128,-1,11
 1421 996 1421 996 1383 999 c 2,12,-1
 1297.5 1005.5 l 2,13,14
 1190.33 1013.4 1190.33 1013.4 1082 1019 c 1,15,16
 883.156 823.707 883.156 823.707 744.5 594.5 c 0,17,18
 693 509.367 693 509.367 693 489 c 0,19,20
 693 393 693 393 757.5 353 c 128,-1,21
 822 313 822 313 931.5 313 c 128,-1,22
 1041 313 1041 313 1118.5 324.5 c 128,-1,23
 1196 336 1196 336 1264.5 353.5 c 128,-1,24
 1333 371 1333 371 1391.5 392.5 c 128,-1,25
 1450 414 1450 414 1494.5 433 c 128,-1,26
 1539 452 1539 452 1568 467 c 2,27,-1
 1607 487 l 1,28,29
 1638.23 495.329 1638.23 495.329 1664.62 479.665 c 0,30,31
 1713 450.938 1713 450.938 1713 414 c 0,32,33
 1713 377.391 1713 377.391 1670 340 c 0,34,35
 1322.59 41.3983 1322.59 41.3983 881 -23 c 0,36,37
 737 -44 737 -44 608 -44 c 128,-1,38
 479 -44 479 -44 406.5 -30.5 c 128,-1,39
 334 -17 334 -17 285.5 6 c 128,-1,40
 237 29 237 29 209 59.5 c 128,-1,41
 181 90 181 90 167 124 c 0,42,43
 146 175 146 175 146 243.5 c 128,-1,44
 146 312 146 312 165.5 356 c 128,-1,45
 185 400 185 400 214 441 c 128,-1,46
 243 482 243 482 277.5 522 c 128,-1,47
 312 562 312 562 333.5 592 c 128,-1,48
 355 622 355 622 381.5 651.5 c 1,49,50
 535.5 812.294 535.5 812.294 589.25 864.147 c 2,51,-1
 761 1028 l 1,52,53
 602.571 1028 602.571 1028 541.286 1011.5 c 128,-1,54
 480 995 480 995 436.5 981 c 128,-1,55
 393 967 393 967 348 951 c 128,-1,56
 303 935 303 935 265.5 920 c 0,57,58
 181.125 886.25 181.125 886.25 166.062 873.625 c 128,-1,59
 151 861 151 861 129 861 c 128,-1,60
 107 861 107 861 88.5 868.5 c 128,-1,61
 70 876 70 876 55 889.5 c 0,62,63
 22 919.2 22 919.2 22 954.6 c 128,-1,64
 22 990 22 990 45.5 1024 c 128,-1,65
 69 1058 69 1058 118 1101.5 c 128,-1,66
 167 1145 167 1145 219 1185.5 c 2,67,-1
 314.5 1261 l 2,68,69
 358 1296 358 1296 373 1318 c 256,70,71
 416.739 1382.15 416.739 1382.15 583.5 1404.5 c 0,72,73
 632 1411 632 1411 682.5 1411 c 128,-1,74
 733 1411 733 1411 820.5 1403 c 128,-1,75
 908 1395 908 1395 1029.5 1385.5 c 0,76,77
 1355.63 1360 1355.63 1360 1509.32 1360 c 128,-1,78
 1663 1360 1663 1360 1685 1363.5 c 2,79,-1
 1730.5 1371 l 2,80,81
 1795.12 1382 1795.12 1382 1822 1382 c 0,0,1
EndSplineSet
EndChar

StartChar: U
Encoding: 85 85 41
Width: 2039
Flags: HW
LayerCount: 2
Fore
SplineSet
1578 473 m 0,0,1
 1578 372 1578 372 1641 372 c 0,2,3
 1668.56 372 1668.56 372 1737.78 416.5 c 1,4,5
 1873.66 506.719 1873.66 506.719 1925.83 544.359 c 2,6,-1
 2006 603 l 2,7,8
 2034 624 2034 624 2061.5 646 c 128,-1,9
 2089 668 2089 668 2129 684.5 c 128,-1,10
 2169 701 2169 701 2194 701 c 128,-1,11
 2219 701 2219 701 2226 683 c 128,-1,12
 2233 665 2233 665 2233 639 c 128,-1,13
 2233 613 2233 613 2222.5 586.5 c 128,-1,14
 2212 560 2212 560 2195 530.5 c 0,15,16
 2146.93 447.089 2146.93 447.089 2096.97 399.044 c 128,-1,17
 2047 351 2047 351 2010 319.5 c 1,18,-1
 1927 252 l 1,19,20
 1694.03 69.6774 1694.03 69.6774 1530 15 c 0,21,22
 1485 0 1485 0 1424.5 0 c 128,-1,23
 1364 0 1364 0 1308 29 c 128,-1,24
 1252 58 1252 58 1219 104.5 c 0,25,26
 1160 187.636 1160 187.636 1160 332 c 0,27,28
 1160 393 1160 393 1170 451 c 1,29,30
 951.218 216.097 951.218 216.097 793 116 c 0,31,32
 584.355 -16 584.355 -16 355 -16 c 0,33,34
 221.047 -16 221.047 -16 111 75 c 0,35,36
 -6 171.75 -6 171.75 -6 308 c 0,37,38
 -6 567.406 -6 567.406 333.5 1038 c 1,39,-1
 431 1167.5 l 1,40,41
 530.508 1293.47 530.508 1293.47 588 1347 c 1,42,43
 601 1357 601 1357 623 1357 c 256,44,45
 696 1357 696 1357 788.5 1283 c 0,46,47
 886.682 1204.45 886.682 1204.45 878 1135 c 1,48,49
 869.606 1052.74 869.606 1052.74 773.5 930 c 0,50,51
 732 877 732 877 684.5 822.5 c 128,-1,52
 637 768 637 768 594.5 712.5 c 0,53,54
 494.733 582.216 494.733 582.216 483 485 c 0,55,56
 475.964 432.227 475.964 432.227 523.5 406 c 0,57,58
 538 398 538 398 579 398 c 128,-1,59
 620 398 620 398 691.5 424.5 c 128,-1,60
 763 451 763 451 836.5 494.5 c 128,-1,61
 910 538 910 538 982.5 593 c 128,-1,62
 1055 648 1055 648 1120.5 705 c 128,-1,63
 1186 762 1186 762 1241 816.5 c 2,64,-1
 1336 913 l 1,65,66
 1632 1240.88 1632 1240.88 1666.5 1276.44 c 0,67,68
 1739.81 1352 1739.81 1352 1756.9 1352 c 128,-1,69
 1774 1352 1774 1352 1795.5 1343 c 128,-1,70
 1817 1334 1817 1334 1841.5 1319 c 128,-1,71
 1866 1304 1866 1304 1890.5 1285 c 128,-1,72
 1915 1266 1915 1266 1935.5 1244.5 c 0,73,74
 1981.26 1196.51 1981.26 1196.51 1985 1161 c 1,75,76
 1990.55 1138.78 1990.55 1138.78 1956.28 1073.39 c 128,-1,77
 1922 1008 1922 1008 1882 961.5 c 2,78,-1
 1794.5 860.5 l 2,79,80
 1612.52 651.699 1612.52 651.699 1586 539 c 0,81,82
 1578 505 1578 505 1578 473 c 0,0,1
EndSplineSet
EndChar

StartChar: V
Encoding: 86 86 42
Width: 1703
Flags: HW
LayerCount: 2
Fore
SplineSet
345.5 -26 m 128,-1,1
 308 -6 308 -6 258.5 47.5 c 128,-1,2
 209 101 209 101 165.5 186 c 0,3,4
 64 384.333 64 384.333 64 649 c 0,5,6
 64 928.846 64 928.846 214.5 1145.5 c 0,7,8
 308.124 1280.28 308.124 1280.28 424.5 1332 c 0,9,10
 483 1358 483 1358 546.5 1358 c 128,-1,11
 610 1358 610 1358 658.5 1334.5 c 128,-1,12
 707 1311 707 1311 738 1278.5 c 128,-1,13
 769 1246 769 1246 783.5 1213 c 128,-1,14
 798 1180 798 1180 798 1143.5 c 128,-1,15
 798 1107 798 1107 774 1064 c 128,-1,16
 750 1021 750 1021 715.5 985 c 128,-1,17
 681 949 681 949 641 916.5 c 128,-1,18
 601 884 601 884 570 850 c 1,19,20
 498 701.2 498 701.2 498 560 c 0,21,22
 498 412 498 412 575 335 c 0,23,24
 599 311 599 311 629 300 c 1,25,26
 743.074 337.141 743.074 337.141 959.5 583 c 1,27,28
 1122.28 776.882 1122.28 776.882 1188.64 866.941 c 1,29,-1
 1302 1024 l 1,30,31
 1462.66 1255.64 1462.66 1255.64 1632 1332.5 c 0,32,33
 1697 1362 1697 1362 1756.5 1361 c 128,-1,34
 1816 1360 1816 1360 1851.5 1346.5 c 128,-1,35
 1887 1333 1887 1333 1909.5 1311 c 0,36,37
 1954 1267.49 1954 1267.49 1954 1211.24 c 0,38,39
 1954 1108.47 1954 1108.47 1883.5 1027.23 c 1,40,41
 1674.49 796.683 1674.49 796.683 1563.75 685.341 c 1,42,-1
 1356.5 482.5 l 1,43,-1
 1165.5 308 l 1,44,45
 727.157 -77 727.157 -77 556 -77 c 0,46,47
 455.85 -77 455.85 -77 419.425 -61.5 c 128,-1,0
 383 -46 383 -46 345.5 -26 c 128,-1,1
EndSplineSet
EndChar

StartChar: W
Encoding: 87 87 43
Width: 2547
Flags: HW
LayerCount: 2
Fore
SplineSet
2506 1398 m 0,0,1
 2703 1398 2703 1398 2703 1236 c 0,2,3
 2703 1135.57 2703 1135.57 2644 1032.79 c 128,-1,4
 2585 930 2585 930 2517.5 837.5 c 128,-1,5
 2450 745 2450 745 2372.5 654.5 c 128,-1,6
 2295 564 2295 564 2209.5 478.5 c 128,-1,7
 2124 393 2124 393 2037.5 317 c 128,-1,8
 1951 241 1951 241 1866.5 178 c 128,-1,9
 1782 115 1782 115 1706.5 69.5 c 0,10,11
 1546.37 -27 1546.37 -27 1458 -27 c 0,12,13
 1295.05 -27 1295.05 -27 1170.5 101.5 c 0,14,15
 1063.71 211.679 1063.71 211.679 1069 410 c 1,16,17
 920.528 249.883 920.528 249.883 708.5 123 c 0,18,19
 501.289 -0.999998 501.289 -0.999998 384 -1 c 0,20,21
 284.844 -1 284.844 -1 189.5 112 c 0,22,23
 98 220.444 98 220.444 98 307.722 c 128,-1,24
 98 395 98 395 124.5 483 c 128,-1,25
 151 571 151 571 195.5 663 c 128,-1,26
 240 755 240 755 298 847.5 c 128,-1,27
 356 940 356 940 418 1027.5 c 128,-1,28
 480 1115 480 1115 541.5 1193 c 1,29,-1
 655 1334 l 2,30,31
 678 1361 678 1361 714.5 1361 c 128,-1,32
 751 1361 751 1361 791 1340 c 128,-1,33
 831 1319 831 1319 864 1286.5 c 0,34,35
 940.99 1210.68 940.99 1210.68 939 1143 c 1,36,37
 934.436 1058.57 934.436 1058.57 753.5 820.5 c 1,38,-1
 665.5 700 l 1,39,40
 570.629 564.136 570.629 564.136 569 512 c 1,41,42
 566.997 481.96 566.997 481.96 585.999 460.48 c 0,43,44
 620.038 422 620.038 422 644 422 c 0,45,46
 789.898 422 789.898 422 1047.5 669.5 c 1,47,-1
 1204 826 l 1,48,49
 1348.05 1101.74 1348.05 1101.74 1505.5 1281 c 0,50,51
 1574.89 1360 1574.89 1360 1600 1360 c 0,52,53
 1693.44 1360 1693.44 1360 1760.5 1290.5 c 0,54,55
 1817.6 1231.33 1817.6 1231.33 1815.8 1188.16 c 128,-1,56
 1814 1145 1814 1145 1796 1107 c 128,-1,57
 1778 1069 1778 1069 1749.5 1028.5 c 128,-1,58
 1721 988 1721 988 1686 946 c 2,59,-1
 1614.5 860.5 l 2,60,61
 1496.93 720.385 1496.93 720.385 1474 653.5 c 0,62,63
 1449 580.583 1449 580.583 1448 539.792 c 128,-1,64
 1447 499 1447 499 1465 471.5 c 128,-1,65
 1483 444 1483 444 1512.5 427 c 0,66,67
 1569.76 394 1569.76 394 1653 394 c 0,68,69
 1703.33 394 1703.33 394 1801.5 479.5 c 0,70,71
 1964.85 621.773 1964.85 621.773 2085.5 834 c 0,72,73
 2127 907 2127 907 2146.5 958 c 128,-1,74
 2166 1009 2166 1009 2184.5 1050 c 128,-1,75
 2203 1091 2203 1091 2228 1137 c 128,-1,76
 2253 1183 2253 1183 2284 1229.5 c 128,-1,77
 2315 1276 2315 1276 2350.5 1313.5 c 0,78,79
 2430.49 1398 2430.49 1398 2506 1398 c 0,0,1
EndSplineSet
EndChar

StartChar: X
Encoding: 88 88 44
Width: 1867
Flags: HW
LayerCount: 2
Fore
SplineSet
171 -7.5 m 128,-1,1
 158 14 158 14 158 49 c 128,-1,2
 158 84 158 84 175.5 107.5 c 128,-1,3
 193 131 193 131 221 154 c 2,4,-1
 672 545 l 1,5,-1
 481 917.5 l 2,6,7
 461 955 461 955 449 970 c 0,8,9
 424.2 1001 424.2 1001 387.1 1001 c 128,-1,10
 350 1001 350 1001 313.5 993 c 128,-1,11
 277 985 277 985 237 983 c 128,-1,12
 197 981 197 981 183 1002.5 c 128,-1,13
 169 1024 169 1024 169 1053.5 c 0,14,15
 169 1124.64 169 1124.64 215.5 1154.82 c 128,-1,16
 262 1185 262 1185 301 1205 c 128,-1,17
 340 1225 340 1225 385.5 1239 c 0,18,19
 474.588 1266.41 474.588 1266.41 628 1276 c 1,20,21
 690.438 1278.84 690.438 1278.84 745.5 1222 c 0,22,23
 761 1206 761 1206 769 1193 c 2,24,-1
 989 820 l 1,25,-1
 1453 1222 l 1,26,27
 1620.66 1365 1620.66 1365 1712 1365 c 0,28,29
 1777.33 1365 1777.33 1365 1851 1313 c 0,30,31
 1932 1255.82 1932 1255.82 1932 1190 c 0,32,33
 1932 1147.69 1932 1147.69 1900 1128 c 0,34,35
 1894 1125 1894 1125 1877 1113 c 2,36,-1
 1635 933 l 1,37,-1
 1148 552 l 1,38,39
 1306.04 292.944 1306.04 292.944 1330 263 c 1,40,41
 1382.77 183 1382.77 183 1488 183 c 0,42,43
 1536.4 183 1536.4 183 1575.2 198 c 128,-1,44
 1614 213 1614 213 1646 213 c 128,-1,45
 1678 213 1678 213 1701 197.5 c 128,-1,46
 1724 182 1724 182 1724 157 c 0,47,48
 1724 102.571 1724 102.571 1633 32 c 1,49,50
 1545.94 -33.2941 1545.94 -33.2941 1329.5 -112 c 0,51,52
 1215.8 -153.344 1215.8 -153.344 1161.9 -156.172 c 128,-1,53
 1108 -159 1108 -159 1074 -143 c 128,-1,54
 1040 -127 1040 -127 1013.5 -100.5 c 0,55,56
 970 -57 970 -57 930 28 c 1,57,-1
 803 283 l 1,58,-1
 437 -3 l 2,59,60
 399 -33 399 -33 362 -53 c 128,-1,61
 325 -73 325 -73 293.5 -73 c 128,-1,62
 262 -73 262 -73 241.5 -65.5 c 128,-1,63
 221 -58 221 -58 202.5 -43.5 c 128,-1,0
 184 -29 184 -29 171 -7.5 c 128,-1,1
EndSplineSet
EndChar

StartChar: Y
Encoding: 89 89 45
Width: 1869
Flags: HW
LayerCount: 2
Fore
SplineSet
294.5 104 m 0,0,1
 237 104 237 104 185 129.5 c 128,-1,2
 133 155 133 155 96 197.5 c 0,3,4
 -21.1968 332.118 -21.1968 332.118 54.5 533.5 c 0,5,6
 127.053 726.518 127.053 726.518 323 995.5 c 0,7,8
 424.126 1134.32 424.126 1134.32 502.563 1218.66 c 0,9,10
 634.01 1360 634.01 1360 665.505 1360 c 128,-1,11
 697 1360 697 1360 735.5 1340 c 128,-1,12
 774 1320 774 1320 807.5 1289.5 c 0,13,14
 885.89 1218.13 885.89 1218.13 882 1152 c 0,15,16
 878.689 1099.03 878.689 1099.03 783 973 c 1,17,-1
 695 860.5 l 1,18,19
 408.581 504 408.581 504 564 504 c 0,20,21
 597.875 504 597.875 504 634 521 c 0,22,23
 1026.17 699.709 1026.17 699.709 1363 1038.5 c 1,24,-1
 1512.5 1192 l 1,25,26
 1576 1259 1576 1259 1618.5 1299.5 c 128,-1,27
 1661 1340 1661 1340 1686 1340 c 128,-1,28
 1711 1340 1711 1340 1739 1323 c 128,-1,29
 1767 1306 1767 1306 1788 1282.5 c 0,30,31
 1835.2 1229.68 1835.2 1229.68 1833 1190 c 0,32,33
 1814.74 941.715 1814.74 941.715 1516.5 350 c 0,34,35
 1454 226 1454 226 1386.5 104.5 c 1,36,37
 1207.13 -206.054 1207.13 -206.054 1134.06 -316.527 c 128,-1,38
 1061 -427 1061 -427 1007.5 -496 c 0,39,40
 893.522 -643 893.522 -643 850 -643 c 0,41,42
 801.055 -643 801.055 -643 683.5 -546.5 c 0,43,44
 560 -445.119 560 -445.119 560 -384 c 0,45,46
 560 -364.56 560 -364.56 632 -272.78 c 2,47,-1
 892.5 53.5 l 1,48,49
 1091.31 309.723 1091.31 309.723 1163.15 412.362 c 0,50,51
 1319.92 636.318 1319.92 636.318 1394 788 c 1,52,53
 1140.66 578.142 1140.66 578.142 1048.33 507.071 c 1,54,-1
 876.5 380 l 1,55,56
 484.679 104 484.679 104 294.5 104 c 0,0,1
EndSplineSet
EndChar

StartChar: Z
Encoding: 90 90 46
Width: 1871
Flags: HW
LayerCount: 2
Fore
SplineSet
697 402 m 1,0,1
 735.857 419 735.857 419 788.929 419 c 128,-1,2
 842 419 842 419 877 411 c 128,-1,3
 912 403 912 403 956 389.5 c 0,4,5
 1089.99 346.963 1089.99 346.963 1145.5 326.981 c 2,6,-1
 1332 260.5 l 2,7,8
 1412.85 231 1412.85 231 1425 231 c 0,9,10
 1488 231 1488 231 1563 267.5 c 128,-1,11
 1638 304 1638 304 1697.5 345 c 128,-1,12
 1757 386 1757 386 1779 393 c 128,-1,13
 1801 400 1801 400 1825 400 c 128,-1,14
 1849 400 1849 400 1866.5 384.5 c 128,-1,15
 1884 369 1884 369 1881 340.5 c 128,-1,16
 1878 312 1878 312 1864.5 280 c 128,-1,17
 1851 248 1851 248 1830 214.5 c 0,18,19
 1785.25 143.12 1785.25 143.12 1741.63 104.06 c 1,20,-1
 1652.5 27 l 1,21,22
 1465.71 -129 1465.71 -129 1260 -129 c 0,23,24
 1204.35 -129 1204.35 -129 1072.68 -87 c 2,25,-1
 764.5 13 l 1,26,27
 564.763 79 564.763 79 507.382 79 c 128,-1,28
 450 79 450 79 395 60.5 c 128,-1,29
 340 42 340 42 284 20.5 c 128,-1,30
 228 -1 228 -1 169.5 -19.5 c 128,-1,31
 111 -38 111 -38 67.5 -38 c 128,-1,32
 24 -38 24 -38 2.5 -25.5 c 128,-1,33
 -19 -13 -19 -13 -36.5 7 c 0,34,35
 -78.534 55.0388 -78.534 55.0388 -74.767 92.5194 c 128,-1,36
 -71 130 -71 130 -43 164 c 128,-1,37
 -15 198 -15 198 26 233 c 128,-1,38
 67 268 67 268 115.5 302.5 c 128,-1,39
 164 337 164 337 209 366 c 2,40,-1
 338 446 l 2,41,42
 351 454 351 454 393.5 482 c 2,43,-1
 918.5 840.5 l 1,44,45
 1161 1012.02 1161 1012.02 1161 1020 c 256,46,47
 1161 1027 1161 1027 1123 1027 c 0,48,49
 981.25 1027 981.25 1027 881.625 1027 c 128,-1,50
 782 1027 782 1027 725 1026.5 c 2,51,-1
 615.5 1025.5 l 2,52,53
 434.951 1023.78 434.951 1023.78 411.976 1015.39 c 128,-1,54
 389 1007 389 1007 357.5 984.5 c 2,55,-1
 294.5 940.5 l 1,56,57
 216.116 887 216.116 887 164 887 c 0,58,59
 99 887 99 887 81 939.5 c 0,60,61
 63.8053 989.651 63.8053 989.651 96.9026 1035.33 c 128,-1,62
 130 1081 130 1081 167.5 1115.5 c 128,-1,63
 205 1150 205 1150 251.5 1182 c 128,-1,64
 298 1214 298 1214 344.5 1238.5 c 0,65,66
 446.041 1292 446.041 1292 493.02 1292 c 128,-1,67
 540 1292 540 1292 604.5 1295 c 128,-1,68
 669 1298 669 1298 750.5 1302.5 c 128,-1,69
 832 1307 832 1307 925.5 1313.5 c 2,70,-1
 1114 1326 l 2,71,72
 1209 1332 1209 1332 1299 1338.5 c 128,-1,73
 1389 1345 1389 1345 1464 1349.5 c 2,74,-1
 1593.5 1357 l 2,75,76
 1648 1360 1648 1360 1665.5 1360 c 128,-1,77
 1683 1360 1683 1360 1706.5 1343 c 128,-1,78
 1730 1326 1730 1326 1752.5 1297.5 c 0,79,80
 1809.88 1224.82 1809.88 1224.82 1803 1156 c 0,81,82
 1797.61 1099.36 1797.61 1099.36 1502 900 c 1,83,-1
 1322.5 782 l 1,84,-1
 954.5 554 l 1,85,-1
 697 402 l 1,0,1
EndSplineSet
EndChar

StartChar: ampersand
Encoding: 38 38 47
Width: 2382
Flags: HW
LayerCount: 2
Fore
SplineSet
1195 -5 m 1,0,1
 975.7 -48 975.7 -48 792.35 -48 c 128,-1,2
 609 -48 609 -48 496.5 -20.5 c 128,-1,3
 384 7 384 7 306.5 54 c 0,4,5
 149 149.516 149 149.516 149 301 c 0,6,7
 149 586.294 149 586.294 769 796 c 1,8,9
 789.152 1072.37 789.152 1072.37 990 1237 c 0,10,11
 1176.66 1390 1176.66 1390 1415 1390 c 0,12,13
 1584.32 1390 1584.32 1390 1683 1327.5 c 0,14,15
 1774 1269.87 1774 1269.87 1774 1196.43 c 128,-1,16
 1774 1123 1774 1123 1725.5 1058.5 c 128,-1,17
 1677 994 1677 994 1595 932.5 c 0,18,19
 1443.68 819.013 1443.68 819.013 1181 709 c 1,20,21
 1268.16 468.352 1268.16 468.352 1484 300 c 1,22,23
 1673.97 362.709 1673.97 362.709 1759 486 c 0,24,25
 1759 487 1759 487 1759.5 487 c 128,-1,26
 1760 487 1760 487 1760 490 c 128,-1,27
 1760 493 1760 493 1741.5 497 c 2,28,-1
 1695.5 506.5 l 2,29,30
 1571.24 531.351 1571.24 531.351 1530.5 576.5 c 0,31,32
 1512 597 1512 597 1512 628.5 c 128,-1,33
 1512 660 1512 660 1534 686.5 c 128,-1,34
 1556 713 1556 713 1592 732.5 c 128,-1,35
 1628 752 1628 752 1673.5 766 c 128,-1,36
 1719 780 1719 780 1766 789 c 0,37,38
 1854.78 806 1854.78 806 1917.39 806 c 128,-1,39
 1980 806 1980 806 2029.5 800 c 128,-1,40
 2079 794 2079 794 2119.5 779 c 0,41,42
 2212 744.741 2212 744.741 2212 672 c 0,43,44
 2212 580.662 2212 580.662 2079 440.5 c 0,45,46
 1933.46 287.119 1933.46 287.119 1699 168 c 1,47,48
 1931 58 1931 58 2165 58 c 0,49,50
 2217 58 2217 58 2263.5 66.5 c 128,-1,51
 2310 75 2310 75 2317 75 c 0,52,53
 2349 75 2349 75 2349 41 c 0,54,55
 2349 22 2349 22 2339 14.5 c 128,-1,56
 2329 7 2329 7 2307 -13.5 c 128,-1,57
 2285 -34 2285 -34 2249 -61 c 128,-1,58
 2213 -88 2213 -88 2164 -118.5 c 128,-1,59
 2115 -149 2115 -149 2055.5 -174.5 c 0,60,61
 1916.67 -234 1916.67 -234 1783 -234 c 0,62,63
 1468.9 -234 1468.9 -234 1195 -5 c 1,0,1
1429 1146 m 0,64,65
 1429 1223 1429 1223 1335 1223 c 0,66,67
 1193.56 1223 1193.56 1223 1143 1104.5 c 0,68,69
 1127 1067 1127 1067 1127 1030.5 c 0,70,71
 1127 981.5 1127 981.5 1132 919 c 1,72,73
 1337.71 1003.9 1337.71 1003.9 1406 1090 c 0,74,75
 1429 1119 1429 1119 1429 1146 c 0,64,65
804 545 m 1,76,77
 640 456.167 640 456.167 640 380 c 0,78,79
 640 330.574 640 330.574 698.5 285.5 c 0,80,81
 771.83 229 771.83 229 896 229 c 2,82,-1
 935.5 229 l 2,83,84
 955 229 955 229 974 230 c 1,85,86
 858.731 385.017 858.731 385.017 804 545 c 1,76,77
EndSplineSet
EndChar

StartChar: zero
Encoding: 48 48 48
Width: 2039
Flags: HW
LayerCount: 2
Fore
SplineSet
1360 1158 m 1,0,1
 1397.5 1173 1397.5 1173 1446.25 1173 c 128,-1,2
 1495 1173 1495 1173 1541 1165.5 c 128,-1,3
 1587 1158 1587 1158 1637 1142 c 128,-1,4
 1687 1126 1687 1126 1736 1100 c 128,-1,5
 1785 1074 1785 1074 1824.5 1037 c 0,6,7
 1913 954.101 1913 954.101 1913 840 c 0,8,9
 1913 717.684 1913 717.684 1848.5 594.342 c 128,-1,10
 1784 471 1784 471 1692.5 377 c 128,-1,11
 1601 283 1601 283 1481 206.5 c 128,-1,12
 1361 130 1361 130 1222.5 76 c 0,13,14
 932.676 -37 932.676 -37 628 -37 c 0,15,16
 245.806 -37 245.806 -37 172 178 c 0,17,18
 149 245 149 245 149 296.5 c 0,19,20
 149 356 149 356 154.5 413.5 c 128,-1,21
 160 471 160 471 200.5 539 c 128,-1,22
 241 607 241 607 305 677.5 c 128,-1,23
 369 748 369 748 450.5 818.5 c 128,-1,24
 532 889 532 889 620.5 953 c 128,-1,25
 709 1017 709 1017 798 1072.5 c 128,-1,26
 887 1128 887 1128 966 1168.5 c 0,27,28
 1134.73 1255 1134.73 1255 1208 1255 c 0,29,30
 1232.73 1255 1232.73 1255 1291.36 1212 c 128,-1,31
 1350 1169 1350 1169 1360 1158 c 1,0,1
587 451.5 m 0,32,33
 554 402 554 402 550.5 365.5 c 128,-1,34
 547 329 547 329 553 307 c 128,-1,35
 559 285 559 285 576.5 271.5 c 0,36,37
 609.556 246 609.556 246 702.778 246 c 128,-1,38
 796 246 796 246 894 270 c 128,-1,39
 992 294 992 294 1082.5 336 c 128,-1,40
 1173 378 1173 378 1251.5 433.5 c 128,-1,41
 1330 489 1330 489 1389.5 552.5 c 0,42,43
 1516.3 687.829 1516.3 687.829 1530 815 c 0,44,45
 1539.68 908.529 1539.68 908.529 1435.5 939.5 c 0,46,47
 1406.91 948 1406.91 948 1383.45 948 c 128,-1,48
 1360 948 1360 948 1341 946.5 c 128,-1,49
 1322 945 1322 945 1302.5 943 c 0,50,51
 1262.65 938.913 1262.65 938.913 1235 932 c 1,52,53
 997.094 818.073 997.094 818.073 793 659 c 0,54,55
 652.143 549.214 652.143 549.214 587 451.5 c 0,32,33
EndSplineSet
EndChar

StartChar: one
Encoding: 49 49 49
Width: 1022
Flags: HW
LayerCount: 2
Fore
SplineSet
194 712 m 0,0,1
 146 712 146 712 146 775 c 0,2,3
 146 859 146 859 227 940 c 1,4,5
 261.717 997.861 261.717 997.861 512 1120.5 c 1,6,-1
 611 1167 l 1,7,8
 778.045 1242 778.045 1242 825 1242 c 0,9,10
 834 1242 834 1242 851 1242.5 c 128,-1,11
 868 1243 868 1243 887.5 1239 c 0,12,13
 936.669 1228.91 936.669 1228.91 957.834 1201.46 c 128,-1,14
 979 1174 979 1174 983 1159 c 128,-1,15
 987 1144 987 1144 979.5 1114 c 128,-1,16
 972 1084 972 1084 952 1026 c 128,-1,17
 932 968 932 968 905.5 898.5 c 1,18,19
 829.266 706.938 829.266 706.938 788.133 611.969 c 1,20,21
 599.685 188.404 599.685 188.404 560.842 115.202 c 128,-1,22
 522 42 522 42 498.5 15 c 128,-1,23
 475 -12 475 -12 453 -25.5 c 0,24,25
 417.963 -47 417.963 -47 385.481 -47 c 128,-1,26
 353 -47 353 -47 318 -45.5 c 128,-1,27
 283 -44 283 -44 246 -40 c 0,28,29
 136.809 -28.1955 136.809 -28.1955 103 3.5 c 0,30,31
 95 11 95 11 95 27 c 0,32,33
 95 58.8182 95 58.8182 114 102 c 2,34,-1
 455 842 l 1,35,-1
 294 748.5 l 2,36,37
 230 712 230 712 194 712 c 0,0,1
EndSplineSet
EndChar

StartChar: two
Encoding: 50 50 50
Width: 1700
Flags: HW
LayerCount: 2
Fore
SplineSet
563.5 -23 m 0,0,1
 367 -23 367 -23 111 -7 c 1,2,3
 41 -1 41 -1 13 39 c 128,-1,4
 -15 79 -15 79 -9 136.5 c 128,-1,5
 -3 194 -3 194 24 230.5 c 128,-1,6
 51 267 51 267 104 288.5 c 128,-1,7
 157 310 157 310 244.5 348.5 c 1,8,9
 479.623 456.022 479.623 456.022 595.812 513.511 c 1,10,11
 963.753 700.439 963.753 700.439 1096 787 c 0,12,13
 1168.63 834.781 1168.63 834.781 1173 896 c 1,14,15
 1178.65 946.808 1178.65 946.808 1140 990 c 0,16,17
 1103.32 1031 1103.32 1031 1063.16 1031 c 128,-1,18
 1023 1031 1023 1031 987 1024 c 128,-1,19
 951 1017 951 1017 912.5 1005.5 c 0,20,21
 834.605 982.233 834.605 982.233 764 948 c 1,22,23
 729.897 869.764 729.897 869.764 630 806 c 128,-1,24
 530.175 742.282 530.175 742.282 420 728 c 0,25,26
 355.278 720.233 355.278 720.233 302.139 752.117 c 128,-1,27
 249 784 249 784 226 818.5 c 128,-1,28
 203 853 203 853 207.5 898 c 128,-1,29
 212 943 212 943 266.5 984.5 c 128,-1,30
 321 1026 321 1026 410.5 1064.5 c 128,-1,31
 500 1103 500 1103 617 1137 c 128,-1,32
 734 1171 734 1171 863.5 1196.5 c 0,33,34
 1140.27 1251 1140.27 1251 1387 1251 c 0,35,36
 1513.84 1251 1513.84 1251 1589 1167 c 0,37,38
 1657 1091 1657 1091 1657 978 c 0,39,40
 1657 826.647 1657 826.647 1543 735 c 1,41,42
 1386.34 612.86 1386.34 612.86 1082 489 c 1,43,-1
 916 424 l 1,44,45
 727 354 727 354 527 296 c 1,46,47
 546 298 546 298 603 301 c 128,-1,48
 660 304 660 304 738 309 c 128,-1,49
 816 314 816 314 906.5 321.5 c 128,-1,50
 997 329 997 329 1083 340.5 c 0,51,52
 1285.03 367.516 1285.03 367.516 1356 403 c 0,53,54
 1408.2 430 1408.2 430 1438.6 430 c 128,-1,55
 1469 430 1469 430 1483.5 423 c 128,-1,56
 1498 416 1498 416 1507 405 c 0,57,58
 1537.56 367.653 1537.56 367.653 1514 334 c 0,59,60
 1507 325 1507 325 1488.5 299 c 0,61,62
 1339.4 96.0388 1339.4 96.0388 1304.2 60.0194 c 128,-1,63
 1269 24 1269 24 1257 20 c 0,64,65
 1113.67 -23 1113.67 -23 563.5 -23 c 0,0,1
EndSplineSet
EndChar

StartChar: three
Encoding: 51 51 51
Width: 1703
Flags: HW
LayerCount: 2
Fore
SplineSet
-61 85 m 1,0,1
 -84 138 -84 138 -84 184 c 128,-1,2
 -84 230 -84 230 -61 254 c 128,-1,3
 -38 278 -38 278 -7 268 c 0,4,5
 2.01639 264.393 2.01639 264.393 50.5082 255.197 c 0,6,7
 251.198 218 251.198 218 313.099 218 c 128,-1,8
 375 218 375 218 466 229.5 c 128,-1,9
 557 241 557 241 638.5 260 c 128,-1,10
 720 279 720 279 788 304 c 128,-1,11
 856 329 856 329 904 356 c 0,12,13
 1006.17 413.47 1006.17 413.47 992 458 c 1,14,15
 971 512 971 512 929.5 531 c 128,-1,16
 888 550 888 550 833.5 550 c 0,17,18
 714 550 714 550 639 525 c 0,19,20
 636 524 636 524 627 524 c 128,-1,21
 618 524 618 524 606.5 531.5 c 128,-1,22
 595 539 595 539 587 550.5 c 0,23,24
 558 592.187 558 592.187 583 637.5 c 0,25,26
 591 652 591 652 608 659 c 2,27,-1
 823 750 l 1,28,29
 1029.22 841.418 1029.22 841.418 1079.61 882.709 c 128,-1,30
 1130 924 1130 924 1126.5 942.5 c 128,-1,31
 1123 961 1123 961 1117 971.5 c 128,-1,32
 1111 982 1111 982 1100 988.5 c 0,33,34
 1078.92 1000.96 1078.92 1000.96 1040.96 998.978 c 128,-1,35
 1003 997 1003 997 955 992.5 c 128,-1,36
 907 988 907 988 848.5 979.5 c 128,-1,37
 790 971 790 971 726 958 c 128,-1,38
 662 945 662 945 602.5 927.5 c 0,39,40
 464.728 886.979 464.728 886.979 414 838 c 0,41,42
 394 818 394 818 367 818 c 128,-1,43
 340 818 340 818 321 833 c 128,-1,44
 302 848 302 848 304.5 868.5 c 128,-1,45
 307 889 307 889 318.5 905 c 128,-1,46
 330 921 330 921 345 947 c 2,47,-1
 408.5 1060.5 l 2,48,49
 468.279 1167.38 468.279 1167.38 486.639 1177.19 c 128,-1,50
 505 1187 505 1187 539 1195 c 128,-1,51
 573 1203 573 1203 619 1211.5 c 128,-1,52
 665 1220 665 1220 719 1228 c 128,-1,53
 773 1236 773 1236 826.5 1242 c 0,54,55
 951.333 1256 951.333 1256 1019.67 1256 c 128,-1,56
 1088 1256 1088 1256 1160 1252.5 c 128,-1,57
 1232 1249 1232 1249 1296 1240 c 0,58,59
 1435.32 1220.41 1435.32 1220.41 1491.16 1186.2 c 0,60,61
 1584.66 1128.93 1584.66 1128.93 1575 1013 c 1,62,63
 1566.13 943.804 1566.13 943.804 1531.06 906.402 c 128,-1,64
 1496 869 1496 869 1451.5 841 c 128,-1,65
 1407 813 1407 813 1351 787.5 c 0,66,67
 1255.9 744.196 1255.9 744.196 1094 691 c 1,68,69
 1366.62 691 1366.62 691 1432 574 c 0,70,71
 1451 540 1451 540 1446 491 c 256,72,73
 1436.59 398.785 1436.59 398.785 1303.5 289.5 c 0,74,75
 1119.01 138.009 1119.01 138.009 796.5 18.5 c 0,76,77
 476.712 -100 476.712 -100 253 -100 c 0,78,79
 107.838 -100 107.838 -100 -3.5 13 c 0,80,81
 -37 47 -37 47 -61 85 c 1,0,1
EndSplineSet
EndChar

StartChar: four
Encoding: 52 52 52
Width: 2039
Flags: HW
LayerCount: 2
Fore
SplineSet
810 209 m 1,0,1
 524.25 200 524.25 200 416.125 200 c 0,2,3
 241.667 200 241.667 200 217.333 203.5 c 128,-1,4
 193 207 193 207 167 232 c 128,-1,5
 141 257 141 257 117 292.5 c 0,6,7
 58 379.771 58 379.771 58 446 c 0,8,9
 58 486.692 58 486.692 82 507 c 0,10,11
 614.704 980.514 614.704 980.514 1448 1247 c 1,12,13
 1505.27 1268 1505.27 1268 1521.14 1267.5 c 128,-1,14
 1537 1267 1537 1267 1553.5 1257 c 128,-1,15
 1570 1247 1570 1247 1586.5 1232.5 c 0,16,17
 1618.81 1204.11 1618.81 1204.11 1642 1167 c 1,18,19
 1754.32 1164.84 1754.32 1164.84 1807 1100 c 1,20,21
 1835 1072 1835 1072 1768 1005 c 1,22,23
 1572.6 789.564 1572.6 789.564 1420 511 c 1,24,-1
 1681 519 l 2,25,26
 1706 519 1706 519 1716 504 c 128,-1,27
 1726 489 1726 489 1726 478 c 128,-1,28
 1726 467 1726 467 1718.5 458 c 128,-1,29
 1711 449 1711 449 1692.5 419.5 c 2,30,-1
 1652 356.5 l 1,31,32
 1594.67 269.202 1594.67 269.202 1571 255 c 0,33,34
 1552.09 243.655 1552.09 243.655 1279 230 c 1,35,36
 1188.38 41.7892 1188.38 41.7892 1134 -17 c 1,37,38
 1082.91 -74.1014 1082.91 -74.1014 967.5 -92.5 c 0,39,40
 933 -98 933 -98 900 -98 c 0,41,42
 751 -98 751 -98 751 12 c 0,43,44
 751 86.7857 751 86.7857 810 209 c 1,0,1
625 486 m 2,45,-1
 861 498 l 1,46,-1
 911 498 l 2,47,48
 942 498 942 498 981 499 c 1,49,50
 1111.74 687.26 1111.74 687.26 1170.37 764.63 c 1,51,-1
 1345 990 l 1,52,53
 1030.15 842.799 1030.15 842.799 768.5 646 c 0,54,55
 648.874 556.025 648.874 556.025 590 487 c 1,56,57
 598 486 598 486 607 486 c 128,-1,58
 616 486 616 486 625 486 c 2,45,-1
EndSplineSet
EndChar

StartChar: five
Encoding: 53 53 53
Width: 1700
Flags: HW
LayerCount: 2
Fore
SplineSet
1285 980 m 2,0,-1
 1088 981 l 1,1,2
 852 981 852 981 817 967 c 1,3,-1
 619 771 l 1,4,5
 783.836 824.173 783.836 824.173 1129 843 c 0,6,7
 1184 846 1184 846 1233.5 846 c 128,-1,8
 1283 846 1283 846 1334 832.5 c 128,-1,9
 1385 819 1385 819 1425.5 786.5 c 0,10,11
 1515 714.679 1515 714.679 1515 566 c 0,12,13
 1515 540 1515 540 1511 502 c 128,-1,14
 1507 464 1507 464 1470 405.5 c 128,-1,15
 1433 347 1433 347 1367.5 286.5 c 128,-1,16
 1302 226 1302 226 1209.5 168 c 128,-1,17
 1117 110 1117 110 1001.5 64.5 c 0,18,19
 746.385 -36 746.385 -36 455 -36 c 0,20,21
 274.945 -36 274.945 -36 172 47.5 c 0,22,23
 84 118.878 84 118.878 84 209 c 0,24,25
 84 254 84 254 111 285.5 c 128,-1,26
 138 317 138 317 180 317 c 0,27,28
 264.053 317 264.053 317 358 247 c 1,29,30
 400.167 224 400.167 224 461.083 224 c 128,-1,31
 522 224 522 224 588 240 c 128,-1,32
 654 256 654 256 720 282 c 128,-1,33
 786 308 786 308 847.5 341 c 128,-1,34
 909 374 909 374 957 407.5 c 0,35,36
 1107.74 512.707 1107.74 512.707 1055 576 c 0,37,38
 1028.24 608.111 1028.24 608.111 979.62 613.056 c 128,-1,39
 931 618 931 618 904 618 c 2,40,-1
 851 617 l 1,41,42
 735.938 617 735.938 617 413.5 540 c 0,43,44
 380 532 380 532 366.5 526 c 0,45,46
 337.25 513 337.25 513 293 513 c 256,47,48
 222.741 513 222.741 513 198.5 551.5 c 0,49,50
 190 565 190 565 190 581.5 c 0,51,52
 190 626.652 190 626.652 227 677.326 c 1,53,54
 310.104 786.725 310.104 786.725 356.052 841.862 c 1,55,-1
 627 1157 l 2,56,57
 646 1179 646 1179 651 1187.5 c 128,-1,58
 656 1196 656 1196 670.5 1206 c 128,-1,59
 685 1216 685 1216 704.5 1223.5 c 0,60,61
 744.8 1239 744.8 1239 794 1239 c 2,62,-1
 1661 1239 l 2,63,64
 1684 1239 1684 1239 1692 1223 c 128,-1,65
 1700 1207 1700 1207 1686 1189 c 0,66,67
 1595.86 1073.11 1595.86 1073.11 1534.43 1039.05 c 0,68,69
 1427.9 980 1427.9 980 1285 980 c 2,0,-1
EndSplineSet
EndChar

StartChar: six
Encoding: 54 54 54
Width: 1702
Flags: HW
LayerCount: 2
Fore
SplineSet
673 163 m 0,0,1
 754.951 163 754.951 163 924.5 261.5 c 0,2,3
 1038.67 327.828 1038.67 327.828 1096 410 c 0,4,5
 1126 453 1126 453 1130 490 c 128,-1,6
 1134 527 1134 527 1118.5 542.5 c 128,-1,7
 1103 558 1103 558 1080.5 566.5 c 0,8,9
 1044.76 580 1044.76 580 982.882 580 c 128,-1,10
 921 580 921 580 868 555.5 c 128,-1,11
 815 531 815 531 790 531 c 128,-1,12
 765 531 765 531 746.5 546.5 c 128,-1,13
 728 562 728 562 728 582 c 0,14,15
 728 623.769 728 623.769 778 658.885 c 128,-1,16
 828 694 828 694 890.5 729 c 128,-1,17
 953 764 953 764 1023.5 790 c 0,18,19
 1180.77 848 1180.77 848 1326 848 c 0,20,21
 1431.56 848 1431.56 848 1498.5 763.5 c 0,22,23
 1563 682.082 1563 682.082 1563 569 c 0,24,25
 1563 440.467 1563 440.467 1482 349.233 c 128,-1,26
 1401 258 1401 258 1290.5 183 c 128,-1,27
 1180 108 1180 108 1050.5 52 c 0,28,29
 770.688 -69 770.688 -69 506 -69 c 0,30,31
 172.793 -69 172.793 -69 95 119 c 0,32,33
 71 177 71 177 71 223 c 128,-1,34
 71 269 71 269 76.5 321.5 c 128,-1,35
 82 374 82 374 122 460.5 c 128,-1,36
 162 547 162 547 225 633.5 c 128,-1,37
 288 720 288 720 370 804.5 c 128,-1,38
 452 889 452 889 545 965 c 128,-1,39
 638 1041 638 1041 737.5 1105.5 c 128,-1,40
 837 1170 837 1170 935 1217 c 0,41,42
 1143.51 1317 1143.51 1317 1296 1317 c 0,43,44
 1347.29 1317 1347.29 1317 1374.14 1293.5 c 0,45,46
 1436.61 1238.84 1436.61 1238.84 1407 1205 c 0,47,48
 1394.26 1190.44 1394.26 1190.44 1374.13 1187.22 c 128,-1,49
 1354 1184 1354 1184 1335.5 1178 c 128,-1,50
 1317 1172 1317 1172 1272 1149.5 c 128,-1,51
 1227 1127 1227 1127 1170 1092 c 128,-1,52
 1113 1057 1113 1057 1047.5 1010.5 c 128,-1,53
 982 964 982 964 916.5 908.5 c 128,-1,54
 851 853 851 853 789.5 790 c 128,-1,55
 728 727 728 727 679 658.5 c 0,56,57
 554 483.755 554 483.755 554 323.378 c 128,-1,58
 554 163 554 163 673 163 c 0,0,1
EndSplineSet
EndChar

StartChar: seven
Encoding: 55 55 55
Width: 1530
Flags: HW
LayerCount: 2
Fore
SplineSet
261 803 m 0,0,1
 211 803 211 803 211 847 c 0,2,3
 211 884.258 211 884.258 256.5 935.629 c 128,-1,4
 302 987 302 987 336.5 1022 c 1,5,-1
 447 1129 l 1,6,7
 502.477 1176.55 502.477 1176.55 548.738 1189.28 c 128,-1,8
 595 1202 595 1202 633.5 1208 c 128,-1,9
 672 1214 672 1214 717.5 1219 c 128,-1,10
 763 1224 763 1224 812.5 1228 c 128,-1,11
 862 1232 862 1232 907.5 1234.5 c 0,12,13
 989.4 1239 989.4 1239 1053 1239 c 2,14,-1
 1096 1239 l 2,15,16
 1392.61 1239 1392.61 1239 1477.5 1211.5 c 0,17,18
 1547.06 1188.97 1547.06 1188.97 1574 1112 c 0,19,20
 1599.06 1040.4 1599.06 1040.4 1567.5 1003 c 0,21,22
 1520.35 947.116 1520.35 947.116 1457.67 926.058 c 128,-1,23
 1395 905 1395 905 1342 867.5 c 128,-1,24
 1289 830 1289 830 1233 778.5 c 128,-1,25
 1177 727 1177 727 1120 664.5 c 128,-1,26
 1063 602 1063 602 1009.5 536 c 128,-1,27
 956 470 956 470 909.5 404 c 128,-1,28
 863 338 863 338 827 280 c 0,29,30
 750.942 157.463 750.942 157.463 745.971 107.731 c 128,-1,31
 741 58 741 58 711.5 28.5 c 128,-1,32
 682 -1 682 -1 639.5 -20 c 128,-1,33
 597 -39 597 -39 546.5 -48.5 c 128,-1,34
 496 -58 496 -58 448 -62 c 0,35,36
 388 -67 388 -67 337 -67 c 128,-1,37
 286 -67 286 -67 268 -64 c 128,-1,38
 250 -61 250 -61 234.5 -52 c 0,39,40
 164.668 -11.4527 164.668 -11.4527 242.5 149 c 0,41,42
 350.481 371.608 350.481 371.608 723.5 668.5 c 1,43,-1
 1085 945 l 1,44,45
 1043.4 958 1043.4 958 955.2 958 c 128,-1,46
 867 958 867 958 800 949.5 c 128,-1,47
 733 941 733 941 667.5 927.5 c 128,-1,48
 602 914 602 914 541.5 898 c 128,-1,49
 481 882 481 882 432.5 866.5 c 0,50,51
 335.98 835.653 335.98 835.653 317.49 823.327 c 0,52,53
 287 803 287 803 261 803 c 0,0,1
EndSplineSet
EndChar

StartChar: eight
Encoding: 56 56 56
Width: 1702
Flags: HW
LayerCount: 2
Fore
SplineSet
1372 1267 m 0,0,1
 1425.43 1267 1425.43 1267 1429 1192 c 0,2,3
 1429 1182 1429 1182 1426 1169 c 1,4,5
 1568.85 1165.34 1568.85 1165.34 1633.5 1105 c 0,6,7
 1656 1084 1656 1084 1659 1055 c 128,-1,8
 1662 1026 1662 1026 1662 988.5 c 0,9,10
 1662 894.5 1662 894.5 1618 856 c 1,11,12
 1568.39 799.306 1568.39 799.306 1328 695.5 c 2,13,-1
 1196 639 l 1,14,-1
 1371.5 512 l 1,15,16
 1463 442.757 1463 442.757 1463 340 c 0,17,18
 1463 287 1463 287 1439.5 240.5 c 128,-1,19
 1416 194 1416 194 1370 154.5 c 128,-1,20
 1324 115 1324 115 1235.5 76 c 128,-1,21
 1147 37 1147 37 1042.5 10.5 c 0,22,23
 831.528 -43 831.528 -43 649.764 -43 c 128,-1,24
 468 -43 468 -43 377 -34 c 128,-1,25
 286 -25 286 -25 228 -11.5 c 0,26,27
 136.421 9.81579 136.421 9.81579 87 51 c 1,28,29
 34 97.087 34 97.087 34 201 c 0,30,31
 34 278.526 34 278.526 69 343 c 1,32,33
 117.809 414.929 117.809 414.929 420 546 c 1,34,-1
 584 615 l 1,35,-1
 488.5 691 l 2,36,37
 446.109 725.783 446.109 725.783 435.554 745.891 c 128,-1,38
 425 766 425 766 425 810 c 128,-1,39
 425 854 425 854 448 912 c 128,-1,40
 471 970 471 970 524 1019 c 1,41,42
 662.94 1165.88 662.94 1165.88 1033.5 1235.5 c 0,43,44
 1201.16 1267 1201.16 1267 1372 1267 c 0,0,1
1007 791 m 1,45,46
 1237.64 892.636 1237.64 892.636 1265 920 c 1,47,48
 1289 942.286 1289 942.286 1289 974.643 c 128,-1,49
 1289 1007 1289 1007 1284.5 1029 c 128,-1,50
 1280 1051 1280 1051 1277 1071 c 1,51,52
 907.84 1025.66 907.84 1025.66 899 952 c 1,53,54
 893.68 895.255 893.68 895.255 1007 791 c 1,45,46
446.5 261 m 0,55,56
 445 241 445 241 464.5 222.5 c 128,-1,57
 484 204 484 204 516.5 191.5 c 0,58,59
 582.8 166 582.8 166 640.9 166 c 128,-1,60
 699 166 699 166 740.5 171.5 c 128,-1,61
 782 177 782 177 818.5 190.5 c 0,62,63
 904.576 222.336 904.576 222.336 910 282 c 1,64,65
 913.418 336.694 913.418 336.694 777 459 c 1,66,-1
 656.5 405 l 1,67,68
 450.157 309.765 450.157 309.765 446.5 261 c 0,55,56
EndSplineSet
EndChar

StartChar: nine
Encoding: 57 57 57
Width: 1701
Flags: HW
LayerCount: 2
Fore
SplineSet
1062 1028 m 0,0,1
 980.049 1028 980.049 1028 810.5 929.5 c 0,2,3
 697.104 863.623 697.104 863.623 638.5 781 c 0,4,5
 608 738 608 738 604 701 c 128,-1,6
 600 664 600 664 616 648.5 c 128,-1,7
 632 633 632 633 654.5 624.5 c 0,8,9
 690.235 611 690.235 611 751.118 611 c 128,-1,10
 812 611 812 611 866 635.5 c 128,-1,11
 920 660 920 660 945 660 c 128,-1,12
 970 660 970 660 988.5 644 c 128,-1,13
 1007 628 1007 628 1007 608 c 0,14,15
 1007 567.231 1007 567.231 956.5 531.615 c 128,-1,16
 906 496 906 496 843.5 461.5 c 128,-1,17
 781 427 781 427 711 401 c 0,18,19
 554.846 343 554.846 343 409 343 c 0,20,21
 303.442 343 303.442 343 236.5 427.5 c 0,22,23
 172 508.918 172 508.918 172 622 c 0,24,25
 172 750.533 172 750.533 253 841.767 c 128,-1,26
 334 933 334 933 444.5 1008 c 128,-1,27
 555 1083 555 1083 684 1139 c 0,28,29
 962.732 1260 962.732 1260 1228 1260 c 0,30,31
 1562.21 1260 1562.21 1260 1640 1072 c 0,32,33
 1664 1014 1664 1014 1664 967.5 c 128,-1,34
 1664 921 1664 921 1658.5 868.5 c 128,-1,35
 1653 816 1653 816 1611.5 728 c 128,-1,36
 1570 640 1570 640 1504 550.5 c 128,-1,37
 1438 461 1438 461 1353 372.5 c 128,-1,38
 1268 284 1268 284 1171.5 204 c 128,-1,39
 1075 124 1075 124 972 55.5 c 128,-1,40
 869 -13 869 -13 768.5 -63 c 0,41,42
 553.43 -170 553.43 -170 402 -170 c 0,43,44
 353.143 -170 353.143 -170 332.5 -136 c 0,45,46
 288.271 -63.1525 288.271 -63.1525 393.5 7 c 0,47,48
 410 18 410 18 428.5 27.5 c 128,-1,49
 447 37 447 37 491 61.5 c 128,-1,50
 535 86 535 86 590.5 121 c 128,-1,51
 646 156 646 156 709 201 c 128,-1,52
 772 246 772 246 834.5 299 c 128,-1,53
 897 352 897 352 955.5 412 c 128,-1,54
 1014 472 1014 472 1061 538 c 0,55,56
 1181 706.511 1181 706.511 1181 867.255 c 128,-1,57
 1181 1028 1181 1028 1062 1028 c 0,0,1
EndSplineSet
EndChar

StartChar: dollar
Encoding: 36 36 58
Width: 2044
Flags: HW
LayerCount: 2
Fore
SplineSet
1515 1331 m 1,0,1
 1628.75 1338 1628.75 1338 1699.88 1338 c 128,-1,2
 1771 1338 1771 1338 1797 1330.5 c 128,-1,3
 1823 1323 1823 1323 1843 1310 c 0,4,5
 1886 1282.05 1886 1282.05 1886 1239.53 c 128,-1,6
 1886 1197 1886 1197 1871.5 1161.5 c 128,-1,7
 1857 1126 1857 1126 1832.5 1097.5 c 128,-1,8
 1808 1069 1808 1069 1776.5 1047.5 c 128,-1,9
 1745 1026 1745 1026 1711.5 1012 c 0,10,11
 1644.5 984 1644.5 984 1599.25 984 c 128,-1,12
 1554 984 1554 984 1528 990.5 c 128,-1,13
 1502 997 1502 997 1481.5 1013 c 0,14,15
 1441.77 1044.01 1441.77 1044.01 1424 1123 c 1,16,-1
 1267 773 l 1,17,-1
 1404.5 739 l 1,18,19
 1643.53 677.093 1643.53 677.093 1761 597 c 1,20,21
 1805 565 1805 565 1831.5 511 c 128,-1,22
 1858 457 1858 457 1858 412.5 c 0,23,24
 1858 331.1 1858 331.1 1822 284.05 c 128,-1,25
 1786 237 1786 237 1727 198 c 128,-1,26
 1668 159 1668 159 1593 127 c 128,-1,27
 1518 95 1518 95 1430.5 69.5 c 128,-1,28
 1343 44 1343 44 1251.5 24.5 c 0,29,30
 1078.8 -12.3046 1078.8 -12.3046 893 -30 c 1,31,-1
 845.5 -126 l 2,32,33
 827 -162 827 -162 817.5 -174.5 c 128,-1,34
 808 -187 808 -187 788 -197 c 128,-1,35
 768 -207 768 -207 747.5 -212.5 c 0,36,37
 706.927 -223.385 706.927 -223.385 684.964 -218.193 c 0,38,39
 652 -210.399 652 -210.399 652 -175 c 0,40,41
 652 -159 652 -159 657 -147 c 2,42,-1
 702 -43 l 1,43,44
 689 -44 689 -44 677 -44 c 2,45,-1
 654 -44 l 2,46,47
 365.625 -44 365.625 -44 197 27 c 1,48,49
 139.436 66.2483 139.436 66.2483 99.5 235.5 c 0,50,51
 79.3042 321.092 79.3042 321.092 77.6521 364.046 c 128,-1,52
 76 407 76 407 82.5 414 c 128,-1,53
 89 421 89 421 117 414 c 128,-1,54
 145 407 145 407 190.5 389.5 c 2,55,-1
 299.5 349 l 1,56,57
 560.75 254.374 560.75 254.374 829 252 c 1,58,-1
 930 487 l 1,59,-1
 660 545 l 1,60,61
 522 576 522 576 398 612 c 1,62,63
 266.421 655.86 266.421 655.86 231 794 c 0,64,65
 221 833 221 833 221 875 c 0,66,67
 221 972.167 221 972.167 273 1009 c 1,68,69
 610.788 1238.7 610.788 1238.7 1281 1312 c 1,70,-1
 1323 1409 l 2,71,72
 1341 1451 1341 1451 1346.5 1467 c 128,-1,73
 1352 1483 1352 1483 1371 1496.5 c 128,-1,74
 1390 1510 1390 1510 1415.5 1520.5 c 0,75,76
 1470.14 1543 1470.14 1543 1511.57 1543 c 128,-1,77
 1553 1543 1553 1543 1571 1533.5 c 128,-1,78
 1589 1524 1589 1524 1585 1506.5 c 128,-1,79
 1581 1489 1581 1489 1562.5 1444.5 c 2,80,-1
 1515 1331 l 1,0,1
878 962 m 0,81,82
 849 936 849 936 849.5 917 c 128,-1,83
 850 898 850 898 866.5 886 c 128,-1,84
 883 874 883 874 912.5 862.5 c 0,85,86
 963.396 842.659 963.396 842.659 1071 818 c 1,87,-1
 1127 950 l 1,88,89
 1135 976 1135 976 1151.5 1015.5 c 2,90,-1
 1188 1102 l 1,91,92
 967.913 1042.61 967.913 1042.61 878 962 c 0,81,82
1030 258 m 1,93,94
 1300.16 273.22 1300.16 273.22 1406 315 c 0,95,96
 1444 330 1444 330 1444 349 c 128,-1,97
 1444 367.92 1444 367.92 1376 387.46 c 128,-1,98
 1308 407 1308 407 1248.5 420.5 c 2,99,-1
 1118 449 l 1,100,-1
 1030 258 l 1,93,94
EndSplineSet
EndChar

StartChar: parenleft
Encoding: 40 40 59
Width: 1525
Flags: HW
LayerCount: 2
Fore
SplineSet
321.5 189.5 m 128,-1,1
 301 254 301 254 301 325.5 c 128,-1,2
 301 397 301 397 331 477 c 128,-1,3
 361 557 361 557 410.5 643 c 128,-1,4
 460 729 460 729 523 816.5 c 128,-1,5
 586 904 586 904 651.5 985 c 1,6,7
 814.796 1178.04 814.796 1178.04 879.398 1246.52 c 2,8,-1
 975 1346 l 2,9,10
 1006 1377 1006 1377 1010.5 1382.5 c 0,11,12
 1021.55 1396 1021.55 1396 1044.27 1396 c 128,-1,13
 1067 1396 1067 1396 1086 1380.5 c 128,-1,14
 1105 1365 1105 1365 1105 1342 c 128,-1,15
 1105 1319 1105 1319 1091.5 1302 c 128,-1,16
 1078 1285 1078 1285 1051 1248 c 0,17,18
 689.893 732.932 689.893 732.932 606.5 401.5 c 0,19,20
 587 324 587 324 587 274.5 c 128,-1,21
 587 225 587 225 591 186.5 c 128,-1,22
 595 148 595 148 607 105.5 c 0,23,24
 634.251 8.98483 634.251 8.98483 701 -74 c 1,25,26
 732 -110.471 732 -110.471 732 -138.735 c 0,27,28
 732 -190 732 -190 656 -190 c 0,29,30
 618 -190 618 -190 607.5 -179 c 128,-1,31
 597 -168 597 -168 571.5 -149 c 128,-1,32
 546 -130 546 -130 512.5 -99 c 128,-1,33
 479 -68 479 -68 441.5 -25 c 128,-1,34
 404 18 404 18 373 71.5 c 128,-1,0
 342 125 342 125 321.5 189.5 c 128,-1,1
EndSplineSet
EndChar

StartChar: parenright
Encoding: 41 41 60
Width: 1525
Flags: HW
LayerCount: 2
Fore
SplineSet
448 -159.5 m 128,-1,1
 429 -144 429 -144 429 -121 c 128,-1,2
 429 -98 429 -98 442.5 -81 c 128,-1,3
 456 -64 456 -64 483 -27 c 0,4,5
 844.107 488.068 844.107 488.068 927.5 819.5 c 0,6,7
 947 897 947 897 947 946.5 c 128,-1,8
 947 996 947 996 943 1034.5 c 128,-1,9
 939 1073 939 1073 927 1115.5 c 0,10,11
 899.749 1212.02 899.749 1212.02 833 1295 c 1,12,13
 802 1331.47 802 1331.47 802 1359.74 c 0,14,15
 802 1411 802 1411 878 1411 c 0,16,17
 916 1411 916 1411 930 1397 c 256,18,19
 937 1390 937 1390 962.5 1370.5 c 128,-1,20
 988 1351 988 1351 1021.5 1320 c 128,-1,21
 1055 1289 1055 1289 1092.5 1246 c 128,-1,22
 1130 1203 1130 1203 1161 1149.5 c 0,23,24
 1233 1025.24 1233 1025.24 1233 891 c 0,25,26
 1233 669.443 1233 669.443 882.5 236 c 1,27,28
 719.204 42.9559 719.204 42.9559 654.602 -25.5221 c 2,29,-1
 527 -158 l 2,30,31
 511.889 -175 511.889 -175 489.444 -175 c 128,-1,0
 467 -175 467 -175 448 -159.5 c 128,-1,1
EndSplineSet
EndChar

StartChar: colon
Encoding: 58 58 61
Width: 1187
Flags: HW
LayerCount: 2
Fore
SplineSet
811.5 739 m 0,0,1
 831 712 831 712 831 665.5 c 128,-1,2
 831 619 831 619 802 577.5 c 128,-1,3
 773 536 773 536 727 506.5 c 0,4,5
 632.661 446 632.661 446 514 446 c 0,6,7
 398.957 446 398.957 446 351.5 505 c 0,8,9
 325 537.946 325 537.946 325 582.973 c 0,10,11
 325 672.048 325 672.048 415.873 741.024 c 128,-1,12
 506.746 810 506.746 810 633.484 810 c 128,-1,13
 760.222 810 760.222 810 811.5 739 c 0,0,1
665.5 268 m 0,14,15
 685 241 685 241 685 194.5 c 128,-1,16
 685 148 685 148 656 106.5 c 128,-1,17
 627 65 627 65 581 35.5 c 0,18,19
 486.661 -25 486.661 -25 368 -25 c 0,20,21
 252.957 -25 252.957 -25 205.5 34 c 0,22,23
 179 66.9459 179 66.9459 179 111.973 c 0,24,25
 179 201.048 179 201.048 269.873 270.024 c 128,-1,26
 360.746 339 360.746 339 487.484 339 c 128,-1,27
 614.222 339 614.222 339 665.5 268 c 0,14,15
EndSplineSet
EndChar

StartChar: semicolon
Encoding: 59 59 62
Width: 1187
Flags: HW
LayerCount: 2
Fore
SplineSet
808.5 739 m 0,0,1
 828 712 828 712 828 665.5 c 128,-1,2
 828 619 828 619 799 577.5 c 128,-1,3
 770 536 770 536 724 506.5 c 0,4,5
 629.661 446 629.661 446 511 446 c 0,6,7
 395.957 446 395.957 446 348.5 505 c 0,8,9
 322 537.946 322 537.946 322 582.973 c 0,10,11
 322 672.048 322 672.048 412.873 741.024 c 128,-1,12
 503.746 810 503.746 810 630.484 810 c 128,-1,13
 757.222 810 757.222 810 808.5 739 c 0,0,1
24.5 -199 m 2,14,15
 13 -187 13 -187 13 -170.794 c 128,-1,16
 13 -154.588 13 -154.588 37.5 -143.294 c 2,17,-1
 88.5 -119.5 l 2,18,19
 205.857 -64.1428 205.857 -64.1428 258 -12 c 1,20,21
 168.368 -1.85303 168.368 -1.85303 131.5 49 c 0,22,23
 111 77.2759 111 77.2759 111 116.638 c 128,-1,24
 111 156 111 156 136 194.5 c 128,-1,25
 161 233 161 233 202.5 263 c 0,26,27
 292.417 328 292.417 328 410 328 c 0,28,29
 548.647 328 548.647 328 599.5 261.5 c 0,30,31
 619 236 619 236 619 186 c 128,-1,32
 619 136 619 136 593 81.5 c 128,-1,33
 567 27 567 27 525.5 -19 c 128,-1,34
 484 -65 484 -65 431 -103 c 128,-1,35
 378 -141 378 -141 324.5 -169 c 0,36,37
 139.644 -265.747 139.644 -265.747 61 -230 c 0,38,39
 50 -225 50 -225 43 -218 c 2,40,-1
 24.5 -199 l 2,14,15
EndSplineSet
EndChar

StartChar: hyphen
Encoding: 45 45 63
Width: 1694
Flags: HW
LayerCount: 2
Fore
SplineSet
437 300 m 2,0,1
 402 300 402 300 402 341 c 0,2,3
 402 379.75 402 379.75 424.5 419.875 c 128,-1,4
 447 460 447 460 467 476.5 c 128,-1,5
 487 493 487 493 510.5 505.5 c 0,6,7
 560.32 532 560.32 532 598 532 c 2,8,-1
 1177 532 l 2,9,10
 1193 532 1193 532 1207 520.5 c 128,-1,11
 1221 509 1221 509 1221 489 c 0,12,13
 1221 449.071 1221 449.071 1194.5 404.536 c 128,-1,14
 1168 360 1168 360 1131.5 329.5 c 128,-1,15
 1095 299 1095 299 1057 299 c 2,16,-1
 437 300 l 2,0,1
EndSplineSet
EndChar

StartChar: exclam
Encoding: 33 33 64
Width: 1359
Flags: HW
LayerCount: 2
Fore
SplineSet
381.5 420 m 0,0,1
 368 418 368 418 359 419 c 128,-1,2
 350 420 350 420 342 423.5 c 0,3,4
 323 431.812 323 431.812 323 449.406 c 128,-1,5
 323 467 323 467 329 481 c 2,6,-1
 569 1015.5 l 1,7,-1
 630 1141.5 l 1,8,9
 694.191 1268.78 694.191 1268.78 712.596 1291.89 c 128,-1,10
 731 1315 731 1315 741.5 1326 c 128,-1,11
 752 1337 752 1337 766 1345.5 c 0,12,13
 798.118 1365 798.118 1365 832.059 1365 c 128,-1,14
 866 1365 866 1365 908 1356.5 c 128,-1,15
 950 1348 950 1348 989.5 1333.5 c 0,16,17
 1086 1298.08 1086 1298.08 1086 1258 c 0,18,19
 1086 1191.63 1086 1191.63 941.5 927 c 0,20,21
 791.15 651.661 791.15 651.661 682 554 c 0,22,23
 563.37 446.944 563.37 446.944 381.5 420 c 0,0,1
177 137 m 128,-1,25
 184 155 184 155 199.5 178.5 c 128,-1,26
 215 202 215 202 239.5 228.5 c 128,-1,27
 264 255 264 255 299.5 276.5 c 0,28,29
 382.884 327 382.884 327 488 327 c 0,30,31
 608.103 327 608.103 327 653 275.5 c 0,32,33
 670 256 670 256 670 218.5 c 128,-1,34
 670 181 670 181 639 137.5 c 128,-1,35
 608 94 608 94 559 60 c 0,36,37
 449.471 -16 449.471 -16 332 -16 c 256,38,39
 234.302 -16 234.302 -16 193 39.5 c 0,40,41
 170 70.4062 170 70.4062 170 94.7031 c 128,-1,24
 170 119 170 119 177 137 c 128,-1,25
EndSplineSet
EndChar

StartChar: question
Encoding: 63 63 65
Width: 1698
Flags: HW
LayerCount: 2
Fore
SplineSet
373.5 643 m 128,-1,1
 396 684 396 684 432.5 723.5 c 128,-1,2
 469 763 469 763 515.5 800.5 c 128,-1,3
 562 838 562 838 610.5 871 c 128,-1,4
 659 904 659 904 705.5 932 c 2,5,6
 847.5 1015 l 2,7,8
 870 1028 870 1028 870 1033.5 c 128,-1,9
 870 1039 870 1039 850 1047.5 c 128,-1,10
 830 1056 830 1056 795 1063.5 c 0,11,12
 713.333 1081 713.333 1081 648.167 1081 c 128,-1,13
 583 1081 583 1081 546 1073.5 c 128,-1,14
 509 1066 509 1066 473.5 1056.5 c 0,15,16
 418.362 1041.74 418.362 1041.74 364 1020 c 256,17,18
 331.778 1007.11 331.778 1007.11 309.389 1026.06 c 0,19,20
 267.271 1061.69 267.271 1061.69 290 1092 c 1,21,22
 317.027 1125.78 317.027 1125.78 353.514 1158.89 c 2,23,-1
 422.5 1219.5 l 1,24,25
 542.691 1321.2 542.691 1321.2 616 1350 c 1,26,27
 687.25 1380 687.25 1380 818.625 1380 c 128,-1,28
 950 1380 950 1380 1039 1362.5 c 128,-1,29
 1128 1345 1128 1345 1200 1310 c 0,30,31
 1363 1230.76 1363 1230.76 1363 1100 c 0,32,33
 1363 1009.43 1363 1009.43 1190 873.5 c 0,34,35
 1141 835 1141 835 1090 799 c 2,36,-1
 902.5 670.5 l 2,37,38
 817 611.649 817 611.649 817 590.325 c 128,-1,39
 817 569 817 569 835.5 555 c 128,-1,40
 854 541 854 541 881.5 533.5 c 0,41,42
 931 520 931 520 995 520 c 256,43,44
 1045.67 520 1045.67 520 1115.33 529.5 c 128,-1,45
 1185 539 1185 539 1189 539 c 256,46,47
 1204.73 539 1204.73 539 1216.36 531 c 0,48,49
 1240.46 514.437 1240.46 514.437 1228.23 497.219 c 2,50,-1
 1207.5 467 l 1,51,52
 1138.19 361 1138.19 361 764 361 c 256,53,54
 443.667 361 443.667 361 369.5 494.5 c 0,55,56
 351 527.8 351 527.8 351 564.9 c 128,-1,0
 351 602 351 602 373.5 643 c 128,-1,1
365 96 m 0,57,58
 365 116 365 116 381.5 147.5 c 128,-1,59
 398 179 398 179 434.5 208.5 c 0,60,61
 524.203 281 524.203 281 669 281 c 0,62,63
 802.368 281 802.368 281 855 231 c 0,64,65
 875 212 875 212 875 180.5 c 128,-1,66
 875 149 875 149 854 112 c 128,-1,67
 833 75 833 75 797.5 43.5 c 0,68,69
 715.794 -29 715.794 -29 620 -29 c 0,70,71
 483 -29 483 -29 424 2.5 c 128,-1,72
 365 34 365 34 365 96 c 0,57,58
EndSplineSet
EndChar

StartChar: asciitilde
Encoding: 126 126 66
Width: 2208
Flags: HW
LayerCount: 2
Fore
SplineSet
313 342 m 0,0,1
 266 342 266 342 266 373 c 0,2,3
 266 394.625 266 394.625 290 416.312 c 128,-1,4
 314 438 314 438 355 470 c 128,-1,5
 396 502 396 502 450 539.5 c 128,-1,6
 504 577 504 577 568 616 c 128,-1,7
 632 655 632 655 698.5 686.5 c 0,8,9
 849.444 758 849.444 758 931.222 758 c 128,-1,10
 1013 758 1013 758 1069.5 737 c 128,-1,11
 1126 716 1126 716 1177 684.5 c 128,-1,12
 1228 653 1228 653 1274 616 c 128,-1,13
 1320 579 1320 579 1364 547.5 c 0,14,15
 1466.67 474 1466.67 474 1536 474 c 0,16,17
 1624.22 474 1624.22 474 1735 519.5 c 0,18,19
 1763 531 1763 531 1778 539.5 c 128,-1,20
 1793 548 1793 548 1810 548 c 128,-1,21
 1827 548 1827 548 1842 538 c 128,-1,22
 1857 528 1857 528 1857 515.5 c 0,23,24
 1857 492.571 1857 492.571 1836 477.786 c 128,-1,25
 1815 463 1815 463 1776.5 439.5 c 128,-1,26
 1738 416 1738 416 1684.5 388 c 128,-1,27
 1631 360 1631 360 1566.5 330 c 128,-1,28
 1502 300 1502 300 1433.5 275.5 c 0,29,30
 1275.53 219 1275.53 219 1184.77 219 c 128,-1,31
 1094 219 1094 219 1022 232.5 c 128,-1,32
 950 246 950 246 883 265.5 c 128,-1,33
 816 285 816 285 755 308.5 c 2,34,-1
 642.5 351.5 l 2,35,36
 519.692 398 519.692 398 482.846 398 c 0,37,38
 418.25 398 418.25 398 353 353 c 0,39,40
 336 342 336 342 313 342 c 0,0,1
EndSplineSet
EndChar

StartChar: dotaccent
Encoding: 729 729 67
Width: 1229
Flags: HW
LayerCount: 2
Fore
SplineSet
753 1116.5 m 128,-1,1
 719 1101 719 1101 677 1101 c 128,-1,2
 635 1101 635 1101 596 1115 c 128,-1,3
 557 1129 557 1129 528 1154 c 0,4,5
 465 1208.31 465 1208.31 465 1292 c 0,6,7
 465 1420.81 465 1420.81 681 1484.5 c 0,8,9
 753.913 1506 753.913 1506 800.957 1506 c 128,-1,10
 848 1506 848 1506 871.5 1495.5 c 128,-1,11
 895 1485 895 1485 910 1468 c 0,12,13
 940 1434 940 1434 940 1398.5 c 128,-1,14
 940 1363 940 1363 931.5 1334 c 128,-1,15
 923 1305 923 1305 907 1274 c 128,-1,16
 891 1243 891 1243 868 1212 c 128,-1,17
 845 1181 845 1181 816 1156.5 c 128,-1,0
 787 1132 787 1132 753 1116.5 c 128,-1,1
EndSplineSet
EndChar

StartChar: period
Encoding: 46 46 68
Width: 1021
Flags: HW
LayerCount: 2
Fore
SplineSet
610.5 268 m 0,0,1
 630 241 630 241 630 194.5 c 128,-1,2
 630 148 630 148 601 106.5 c 128,-1,3
 572 65 572 65 526 35.5 c 0,4,5
 431.661 -25 431.661 -25 313 -25 c 0,6,7
 197.957 -25 197.957 -25 150.5 34 c 0,8,9
 124 66.9459 124 66.9459 124 111.973 c 0,10,11
 124 201.048 124 201.048 214.873 270.024 c 128,-1,12
 305.746 339 305.746 339 432.484 339 c 128,-1,13
 559.222 339 559.222 339 610.5 268 c 0,0,1
EndSplineSet
EndChar

StartChar: ellipsis
Encoding: 8230 8230 69
Width: 3063
Flags: HW
LayerCount: 2
Fore
SplineSet
2652.5 268 m 0,0,1
 2672 241 2672 241 2672 194.5 c 128,-1,2
 2672 148 2672 148 2643 106.5 c 128,-1,3
 2614 65 2614 65 2568 35.5 c 0,4,5
 2473.66 -24.9999 2473.66 -24.9999 2355 -25 c 0,6,7
 2239.96 -25 2239.96 -25 2192.5 34 c 0,8,9
 2166 66.9459 2166 66.9459 2166 111.973 c 0,10,11
 2166 201.048 2166 201.048 2256.87 270.024 c 128,-1,12
 2347.75 339 2347.75 339 2474.48 339 c 128,-1,13
 2601.22 339 2601.22 339 2652.5 268 c 0,0,1
1631.5 268 m 0,14,15
 1651 241 1651 241 1651 194.5 c 128,-1,16
 1651 148 1651 148 1622 106.5 c 128,-1,17
 1593 65 1593 65 1547 35.5 c 0,18,19
 1452.66 -25 1452.66 -25 1334 -25 c 0,20,21
 1218.96 -25 1218.96 -25 1171.5 34 c 0,22,23
 1145 66.9459 1145 66.9459 1145 111.973 c 0,24,25
 1145 201.048 1145 201.048 1235.87 270.024 c 128,-1,26
 1326.75 339 1326.75 339 1453.48 339 c 128,-1,27
 1580.22 339 1580.22 339 1631.5 268 c 0,14,15
610.5 268 m 0,28,29
 630 241 630 241 630 194.5 c 128,-1,30
 630 148 630 148 601 106.5 c 128,-1,31
 572 65 572 65 526 35.5 c 0,32,33
 431.661 -25 431.661 -25 313 -25 c 0,34,35
 197.957 -25 197.957 -25 150.5 34 c 0,36,37
 124 66.9459 124 66.9459 124 111.973 c 0,38,39
 124 201.048 124 201.048 214.873 270.024 c 128,-1,40
 305.746 339 305.746 339 432.484 339 c 128,-1,41
 559.222 339 559.222 339 610.5 268 c 0,28,29
EndSplineSet
EndChar

StartChar: dotaccent.cap
Encoding: 65539 -1 70
Width: 851
Flags: HW
LayerCount: 2
Fore
SplineSet
476 1526.5 m 128,-1,1
 442 1511 442 1511 400 1511 c 128,-1,2
 358 1511 358 1511 319 1525 c 128,-1,3
 280 1539 280 1539 251 1564 c 0,4,5
 188 1618.31 188 1618.31 188 1702 c 0,6,7
 188 1830.81 188 1830.81 404 1894.5 c 0,8,9
 476.913 1916 476.913 1916 523.957 1916 c 128,-1,10
 571 1916 571 1916 594.5 1905.5 c 128,-1,11
 618 1895 618 1895 633 1878 c 0,12,13
 663 1844 663 1844 663 1808.5 c 128,-1,14
 663 1773 663 1773 654.5 1744 c 128,-1,15
 646 1715 646 1715 630 1684 c 128,-1,16
 614 1653 614 1653 591 1622 c 128,-1,17
 568 1591 568 1591 539 1566.5 c 128,-1,0
 510 1542 510 1542 476 1526.5 c 128,-1,1
EndSplineSet
EndChar

StartChar: cedilla
Encoding: 184 184 71
Width: 1229
Flags: HW
LayerCount: 2
Fore
SplineSet
544 -122 m 1,0,1
 750 -178.65 750 -178.65 750 -300 c 256,2,3
 750 -398.825 750 -398.825 569.5 -523.5 c 0,4,5
 475.282 -588.578 475.282 -588.578 413.141 -612.789 c 128,-1,6
 351 -637 351 -637 327 -637 c 128,-1,7
 303 -637 303 -637 287 -615 c 128,-1,8
 271 -593 271 -593 271 -568.5 c 128,-1,9
 271 -544 271 -544 294 -519 c 2,10,-1
 344.5 -466 l 1,11,12
 418 -391.164 418 -391.164 418 -333 c 0,13,14
 418 -320 418 -320 394.5 -302 c 2,15,-1
 343 -262 l 2,16,17
 268 -203.071 268 -203.071 268 -161 c 0,18,19
 268 -124.556 268 -124.556 333.5 -51.7778 c 128,-1,20
 399 21 399 21 450 68 c 128,-1,21
 501 115 501 115 552.5 153.5 c 0,22,23
 670.883 242 670.883 242 733 242 c 0,24,25
 779.571 242 779.571 242 817.286 214.5 c 0,26,27
 888 162.938 888 162.938 888 110 c 0,28,29
 888 63.814 888 63.814 847.5 36.5 c 0,30,31
 808.309 10.0688 808.309 10.0688 751.654 -15.4656 c 2,32,-1
 660.5 -57 l 2,33,34
 580.799 -93.963 580.799 -93.963 544 -122 c 1,0,1
EndSplineSet
EndChar

StartChar: gdotaccent
Encoding: 289 289 72
Width: 1530
Flags: HW
LayerCount: 2
Fore
SplineSet
840 1116.5 m 128,-1,1
 806 1101 806 1101 764 1101 c 128,-1,2
 722 1101 722 1101 683 1115 c 128,-1,3
 644 1129 644 1129 615 1154 c 0,4,5
 552 1208.31 552 1208.31 552 1292 c 0,6,7
 552 1420.81 552 1420.81 768 1484.5 c 0,8,9
 840.913 1506 840.913 1506 887.957 1506 c 128,-1,10
 935 1506 935 1506 958.5 1495.5 c 128,-1,11
 982 1485 982 1485 997 1468 c 0,12,13
 1027 1434 1027 1434 1027 1398.5 c 128,-1,14
 1027 1363 1027 1363 1018.5 1334 c 128,-1,15
 1010 1305 1010 1305 994 1274 c 128,-1,16
 978 1243 978 1243 955 1212 c 128,-1,17
 932 1181 932 1181 903 1156.5 c 128,-1,0
 874 1132 874 1132 840 1116.5 c 128,-1,1
445 587 m 128,-1,19
 384 544 384 544 337 499 c 128,-1,20
 290 454 290 454 290 421 c 128,-1,21
 290 388 290 388 343 388 c 0,22,23
 380.25 388 380.25 388 451.125 424 c 1,24,-1
 668 539 l 2,25,26
 727.862 570.428 727.862 570.428 775.431 611.714 c 2,27,-1
 845.5 673.5 l 1,28,29
 921.78 743 921.78 743 1005 743 c 0,30,31
 1047.57 743 1047.57 743 1091 695 c 0,32,33
 1134 647.474 1134 647.474 1134 597.237 c 0,34,35
 1134 481.863 1134 481.863 1040 257 c 1,36,-1
 1199.5 388 l 1,37,-1
 1530 645 l 1,38,39
 1583.33 685 1583.33 685 1618.17 685 c 0,40,41
 1694 685 1694 685 1694 612 c 0,42,43
 1694 537.279 1694 537.279 1596.5 419 c 0,44,45
 1550.28 362.932 1550.28 362.932 1468.14 297.966 c 1,46,-1
 914.5 -122.5 l 1,47,48
 859 -166 859 -166 827 -195 c 1,49,50
 694.571 -407.832 694.571 -407.832 573 -504 c 0,51,52
 396.019 -644 396.019 -644 245 -644 c 0,53,54
 177.182 -644 177.182 -644 134 -606.5 c 0,55,56
 95 -572.632 95 -572.632 95 -529 c 256,57,58
 95 -488.091 95 -488.091 117 -440.545 c 128,-1,59
 139 -393 139 -393 176 -345 c 128,-1,60
 213 -297 213 -297 260 -250 c 128,-1,61
 307 -203 307 -203 360 -159 c 1,62,63
 499.577 -47.7335 499.577 -47.7335 558.788 -5.86674 c 2,64,-1
 657 65 l 1,65,66
 714.584 187.846 714.584 187.846 757 331 c 1,67,68
 564.368 161.3 564.368 161.3 346.5 64 c 0,69,70
 236.783 15 236.783 15 164.891 15 c 128,-1,71
 93 15 93 15 33 45 c 128,-1,72
 -27 75 -27 75 -69.5 124 c 0,73,74
 -159 227.188 -159 227.188 -159 363 c 0,75,76
 -159 504.727 -159 504.727 -52 602 c 256,77,78
 108.975 748.341 108.975 748.341 403.5 856.5 c 0,79,80
 688.061 961 688.061 961 885 961 c 0,81,82
 950 961 950 961 950 897 c 0,83,84
 950 853 950 853 933.5 829.5 c 128,-1,85
 917 806 917 806 854.5 784 c 128,-1,86
 792 762 792 762 716.5 732 c 128,-1,87
 641 702 641 702 573.5 666 c 128,-1,18
 506 630 506 630 445 587 c 128,-1,19
EndSplineSet
EndChar

StartChar: uni1E0B
Encoding: 7691 7691 73
Width: 1530
Flags: HW
LayerCount: 2
Fore
SplineSet
1705 739 m 0,0,1
 1750 739 1750 739 1750 693 c 0,2,3
 1750 619.923 1750 619.923 1654 487 c 0,4,5
 1587.48 393.875 1587.48 393.875 1377.5 229 c 0,6,7
 1129.15 34 1129.15 34 978 34 c 0,8,9
 863.877 34 863.877 34 805.5 130.5 c 0,10,11
 770.807 187.85 770.807 187.85 749 300 c 1,12,-1
 659.5 236 l 1,13,14
 293.014 -18 293.014 -18 112 -18 c 0,15,16
 -39.0909 -18 -39.0909 -18 -129.5 92.5 c 0,17,18
 -210 190.889 -210 190.889 -210 329 c 0,19,20
 -210 481.314 -210 481.314 -106 569 c 0,21,22
 106.407 746.649 106.407 746.649 421 862 c 0,23,24
 549.182 909 549.182 909 583.091 909 c 128,-1,25
 617 909 617 909 645.5 897.5 c 128,-1,26
 674 886 674 886 701.5 867.5 c 0,27,28
 768 822.764 768 822.764 768 781 c 0,29,30
 768 747 768 747 726 726 c 0,31,32
 713 719 713 719 682 707 c 128,-1,33
 651 695 651 695 605.5 673.5 c 0,34,35
 485.266 616.686 485.266 616.686 370 536 c 1,36,37
 288 466.148 288 466.148 288 424.574 c 128,-1,38
 288 383 288 383 346 383 c 0,39,40
 394 383 394 383 538.5 468 c 1,41,42
 623 519.5 l 1,43,44
 714.263 577.083 714.263 577.083 769 624 c 1,45,46
 815 773.5 l 1,47,48
 900.202 1041.53 900.202 1041.53 1004 1217 c 1,49,50
 1187.56 1570 1187.56 1570 1374 1570 c 0,51,52
 1442.31 1570 1442.31 1570 1482.16 1545 c 0,53,54
 1554 1499.92 1554 1499.92 1554 1445.46 c 128,-1,55
 1554 1391 1554 1391 1534 1330 c 128,-1,56
 1514 1269 1514 1269 1481.5 1209 c 128,-1,57
 1449 1149 1449 1149 1407 1090.5 c 1,58,-1
 1235.5 864 l 2,59,60
 1193 809 1193 809 1160 757 c 1,61,62
 1102 632.077 1102 632.077 1102 543 c 0,63,64
 1102 415 1102 415 1195 415 c 0,65,66
 1247.54 415 1247.54 415 1385.5 526.5 c 1,67,-1
 1504 626.5 l 1,68,69
 1587.18 699.78 1587.18 699.78 1668.5 730.5 c 0,70,71
 1691 739 1691 739 1705 739 c 0,0,1
411 1116.5 m 128,-1,73
 377 1101 377 1101 335 1101 c 128,-1,74
 293 1101 293 1101 254 1115 c 128,-1,75
 215 1129 215 1129 186 1154 c 0,76,77
 123 1208.31 123 1208.31 123 1292 c 0,78,79
 123 1420.81 123 1420.81 339 1484.5 c 0,80,81
 411.913 1506 411.913 1506 458.957 1506 c 128,-1,82
 506 1506 506 1506 529.5 1495.5 c 128,-1,83
 553 1485 553 1485 568 1468 c 0,84,85
 598 1434 598 1434 598 1398.5 c 128,-1,86
 598 1363 598 1363 589.5 1334 c 128,-1,87
 581 1305 581 1305 565 1274 c 128,-1,88
 549 1243 549 1243 526 1212 c 128,-1,89
 503 1181 503 1181 474 1156.5 c 128,-1,72
 445 1132 445 1132 411 1116.5 c 128,-1,73
EndSplineSet
EndChar

StartChar: zdotaccent
Encoding: 380 380 74
Width: 1532
Flags: HW
LayerCount: 2
Fore
SplineSet
861 1116.5 m 128,-1,1
 827 1101 827 1101 785 1101 c 128,-1,2
 743 1101 743 1101 704 1115 c 128,-1,3
 665 1129 665 1129 636 1154 c 0,4,5
 573 1208.31 573 1208.31 573 1292 c 0,6,7
 573 1420.81 573 1420.81 789 1484.5 c 0,8,9
 861.913 1506 861.913 1506 908.957 1506 c 128,-1,10
 956 1506 956 1506 979.5 1495.5 c 128,-1,11
 1003 1485 1003 1485 1018 1468 c 0,12,13
 1048 1434 1048 1434 1048 1398.5 c 128,-1,14
 1048 1363 1048 1363 1039.5 1334 c 128,-1,15
 1031 1305 1031 1305 1015 1274 c 128,-1,16
 999 1243 999 1243 976 1212 c 128,-1,17
 953 1181 953 1181 924 1156.5 c 128,-1,0
 895 1132 895 1132 861 1116.5 c 128,-1,1
714 646 m 128,-1,19
 714 652 714 652 676 652 c 2,20,-1
 546 652 l 2,21,22
 395 652 395 652 374 644.5 c 128,-1,23
 353 637 353 637 325 618 c 128,-1,24
 297 599 297 599 265.5 575.5 c 2,25,-1
 201 527 l 2,26,27
 78.24 434 78.24 434 23 434 c 0,28,29
 -41 434 -41 434 -65 486.5 c 0,30,31
 -73 504 -73 504 -73 531.5 c 128,-1,32
 -73 559 -73 559 -55.5 585 c 128,-1,33
 -38 611 -38 611 -10.5 636.5 c 128,-1,34
 17 662 17 662 52.5 689 c 128,-1,35
 88 716 88 716 123.5 748 c 128,-1,36
 159 780 159 780 198 810.5 c 128,-1,37
 237 841 237 841 277 865 c 0,38,39
 365.333 918 365.333 918 429 918 c 0,40,41
 452.429 918 452.429 918 524.714 923.5 c 0,42,43
 692.688 936.645 692.688 936.645 756.844 942.322 c 0,44,45
 1054.95 968 1054.95 968 1074.47 968 c 128,-1,46
 1094 968 1094 968 1118.5 971 c 2,47,-1
 1169.5 977 l 2,48,49
 1196 980 1196 980 1220 983 c 128,-1,50
 1244 986 1244 986 1255.5 986 c 128,-1,51
 1267 986 1267 986 1287.5 977.5 c 128,-1,52
 1308 969 1308 969 1328 951 c 0,53,54
 1377 906.9 1377 906.9 1377 837 c 0,55,56
 1377 770.692 1377 770.692 1099 621 c 1,57,-1
 789.5 461.5 l 2,58,59
 716 424 716 424 663 394 c 1,60,61
 701 388 701 388 752 374 c 2,62,-1
 938 322.5 l 2,63,64
 976 312 976 312 993.5 312 c 128,-1,65
 1011 312 1011 312 1049.5 328 c 128,-1,66
 1088 344 1088 344 1136.5 371 c 128,-1,67
 1185 398 1185 398 1239.5 433 c 1,68,-1
 1347 505.5 l 1,69,70
 1462.19 587.003 1462.19 587.003 1530 649 c 0,71,72
 1561.73 677 1561.73 677 1600.37 677 c 0,73,74
 1677 677 1677 677 1677 615 c 0,75,76
 1677 534.255 1677 534.255 1597.5 426 c 0,77,78
 1574 394 1574 394 1551.5 372.5 c 2,79,-1
 1486.5 313 l 1,80,81
 1208.08 64.0602 1208.08 64.0602 983 -22 c 0,82,83
 915 -48 915 -48 859.5 -48 c 128,-1,84
 804 -48 804 -48 743 -30 c 128,-1,85
 682 -12 682 -12 622.5 9.5 c 2,86,-1
 509.5 49 l 2,87,88
 456 67 456 67 415.5 67 c 128,-1,89
 375 67 375 67 339.5 48.5 c 128,-1,90
 304 30 304 30 268 7.5 c 0,91,92
 172.8 -52 172.8 -52 104 -52 c 0,93,94
 62.375 -52 62.375 -52 30.6875 -19.5 c 0,95,96
 -28 40.6923 -28 40.6923 -28 78.3462 c 128,-1,97
 -28 116 -28 116 -3.5 150 c 128,-1,98
 21 184 21 184 58.5 219 c 128,-1,99
 96 254 96 254 142 288.5 c 1,100,101
 256.667 371.242 256.667 371.242 297.333 397.121 c 128,-1,102
 338 423 338 423 352.5 433 c 128,-1,103
 367 443 367 443 400.5 461.5 c 0,104,105
 650.335 597.557 650.335 597.557 682.167 618.778 c 128,-1,18
 714 640 714 640 714 646 c 128,-1,19
EndSplineSet
EndChar

StartChar: cdotaccent
Encoding: 267 267 75
Width: 1190
Flags: HW
LayerCount: 2
Fore
SplineSet
865 1116.5 m 128,-1,1
 831 1101 831 1101 789 1101 c 128,-1,2
 747 1101 747 1101 708 1115 c 128,-1,3
 669 1129 669 1129 640 1154 c 0,4,5
 577 1208.31 577 1208.31 577 1292 c 0,6,7
 577 1420.81 577 1420.81 793 1484.5 c 0,8,9
 865.913 1506 865.913 1506 912.957 1506 c 128,-1,10
 960 1506 960 1506 983.5 1495.5 c 128,-1,11
 1007 1485 1007 1485 1022 1468 c 0,12,13
 1052 1434 1052 1434 1052 1398.5 c 128,-1,14
 1052 1363 1052 1363 1043.5 1334 c 128,-1,15
 1035 1305 1035 1305 1019 1274 c 128,-1,16
 1003 1243 1003 1243 980 1212 c 128,-1,17
 957 1181 957 1181 928 1156.5 c 128,-1,0
 899 1132 899 1132 865 1116.5 c 128,-1,1
1423 645 m 0,18,19
 1423 598.342 1423 598.342 1299.5 463 c 0,20,21
 1174.31 325.803 1174.31 325.803 1053 240 c 1,22,23
 819.482 65.8507 819.482 65.8507 534.5 1.5 c 0,24,25
 426 -23 426 -23 329.5 -23 c 128,-1,26
 233 -23 233 -23 169.5 -6.5 c 128,-1,27
 106 10 106 10 55.5 37.5 c 128,-1,28
 5 65 5 65 -32 101 c 128,-1,29
 -69 137 -69 137 -94 177 c 0,30,31
 -143 255.4 -143 255.4 -143 321.2 c 128,-1,32
 -143 387 -143 387 -128.5 437 c 128,-1,33
 -114 487 -114 487 -88.5 532.5 c 0,34,35
 3.36879 696.423 3.36879 696.423 277.5 822.5 c 0,36,37
 495.274 922.657 495.274 922.657 692.5 953 c 0,38,39
 777 966 777 966 813 966 c 128,-1,40
 849 966 849 966 873.5 958.5 c 128,-1,41
 898 951 898 951 916 938 c 0,42,43
 956 909.111 956 909.111 956 859.056 c 128,-1,44
 956 809 956 809 930 764.5 c 128,-1,45
 904 720 904 720 864.5 690.5 c 0,46,47
 786.169 632 786.169 632 690 632 c 0,48,49
 559 632 559 632 474 666 c 1,50,51
 415.076 644.573 415.076 644.573 374 589 c 0,52,53
 340 543 340 543 340 506.5 c 128,-1,54
 340 470 340 470 356.5 435.5 c 128,-1,55
 373 401 373 401 403 374.5 c 0,56,57
 469.226 316 469.226 316 562 316 c 0,58,59
 777.627 316 777.627 316 1065 545 c 1,60,-1
 1155.5 616 l 1,61,62
 1300.5 726 1300.5 726 1361.75 726 c 128,-1,63
 1423 726 1423 726 1423 645 c 0,18,19
EndSplineSet
EndChar

StartChar: edotaccent
Encoding: 279 279 76
Width: 1190
Flags: HW
LayerCount: 2
Fore
SplineSet
838 1116.5 m 128,-1,1
 804 1101 804 1101 762 1101 c 128,-1,2
 720 1101 720 1101 681 1115 c 128,-1,3
 642 1129 642 1129 613 1154 c 0,4,5
 550 1208.31 550 1208.31 550 1292 c 0,6,7
 550 1420.81 550 1420.81 766 1484.5 c 0,8,9
 838.913 1506 838.913 1506 885.957 1506 c 128,-1,10
 933 1506 933 1506 956.5 1495.5 c 128,-1,11
 980 1485 980 1485 995 1468 c 0,12,13
 1025 1434 1025 1434 1025 1398.5 c 128,-1,14
 1025 1363 1025 1363 1016.5 1334 c 128,-1,15
 1008 1305 1008 1305 992 1274 c 128,-1,16
 976 1243 976 1243 953 1212 c 128,-1,17
 930 1181 930 1181 901 1156.5 c 128,-1,0
 872 1132 872 1132 838 1116.5 c 128,-1,1
1383 735 m 256,18,19
 1431 735 1431 735 1431 681 c 0,20,21
 1431 645 1431 645 1406.5 590.5 c 128,-1,22
 1382 536 1382 536 1336 488.5 c 128,-1,23
 1290 441 1290 441 1230.5 390 c 128,-1,24
 1171 339 1171 339 1091.5 283 c 128,-1,25
 1012 227 1012 227 916 172 c 128,-1,26
 820 117 820 117 712.5 73 c 0,27,28
 473.068 -25 473.068 -25 249 -25 c 0,29,30
 77.7024 -25 77.7024 -25 -50.5 64 c 0,31,32
 -184 156.678 -184 156.678 -184 290 c 0,33,34
 -184 498.94 -184 498.94 41 687 c 0,35,36
 235.091 849.226 235.091 849.226 498 938 c 0,37,38
 657.923 992 657.923 992 769 992 c 0,39,40
 858.907 992 858.907 992 921 947.5 c 0,41,42
 987 900.2 987 900.2 987 819 c 0,43,44
 987 692.231 987 692.231 786.5 538 c 0,45,46
 754 513 754 513 728 496 c 2,47,-1
 692 472 l 1,48,49
 592.494 401.517 592.494 401.517 388 315 c 1,50,51
 451 282 451 282 505.5 282 c 128,-1,52
 560 282 560 282 603.5 295 c 128,-1,53
 647 308 647 308 702 332 c 128,-1,54
 757 356 757 356 819.5 389.5 c 128,-1,55
 882 423 882 423 946.5 463 c 0,56,57
 1089.45 551.65 1089.45 551.65 1194 645 c 1,58,59
 1249.34 696.08 1249.34 696.08 1334.5 725.5 c 0,60,61
 1362 735 1362 735 1383 735 c 256,18,19
280 454 m 1,62,-1
 335 482 l 2,63,64
 362 496 362 496 383 508.5 c 0,65,66
 584.994 623.925 584.994 623.925 612.997 650.963 c 128,-1,67
 641 678 641 678 641 688.5 c 128,-1,68
 641 699 641 699 635 713 c 128,-1,69
 629 727 629 727 619 738.5 c 0,70,71
 595.087 766 595.087 766 568 766 c 128,-1,72
 541 766 541 766 508.5 756 c 128,-1,73
 476 746 476 746 443 728.5 c 128,-1,74
 410 711 410 711 379.5 686.5 c 128,-1,75
 349 662 349 662 325.5 634 c 0,76,77
 273 571.447 273 571.447 273 525.223 c 128,-1,78
 273 479 273 479 280 454 c 1,62,-1
EndSplineSet
EndChar

StartChar: uni1E03
Encoding: 7683 7683 77
Width: 1360
Flags: HW
LayerCount: 2
Fore
SplineSet
889 638 m 128,-1,1
 847 638 847 638 797 622 c 128,-1,2
 747 606 747 606 687 580 c 128,-1,3
 627 554 627 554 562 521 c 128,-1,4
 497 488 497 488 437 454 c 0,5,6
 308.25 381.042 308.25 381.042 261.625 342.521 c 128,-1,7
 215 304 215 304 185.5 275 c 128,-1,8
 156 246 156 246 127 222 c 0,9,10
 59.3333 166 59.3333 166 24.1667 166 c 128,-1,11
 -11 166 -11 166 -39 177.5 c 128,-1,12
 -67 189 -67 189 -90 210.5 c 0,13,14
 -144 260.978 -144 260.978 -144 331 c 0,15,16
 -144 454.934 -144 454.934 74.5 817.5 c 0,17,18
 169.079 974.438 169.079 974.438 257.039 1092.72 c 128,-1,19
 345 1211 345 1211 426 1294.5 c 128,-1,20
 507 1378 507 1378 581 1436 c 0,21,22
 732.828 1555 732.828 1555 823 1555 c 0,23,24
 849 1555 849 1555 866 1536 c 128,-1,25
 883 1517 883 1517 883 1495 c 0,26,27
 883 1445.45 883 1445.45 851.5 1391.73 c 128,-1,28
 820 1338 820 1338 768 1257 c 1,29,-1
 555.5 933.5 l 2,30,31
 455.162 779.649 455.162 779.649 450.581 761.324 c 128,-1,32
 446 743 446 743 446 735 c 128,-1,33
 446 727 446 727 457 727 c 128,-1,34
 468 727 468 727 519.5 750.5 c 2,35,36
 647.5 807.5 l 1,37,38
 936.373 934 936.373 934 1114 934 c 0,39,40
 1214.96 934 1214.96 934 1282.5 841 c 0,41,42
 1346 753.557 1346 753.557 1346 652.779 c 128,-1,43
 1346 552 1346 552 1315 479 c 128,-1,44
 1284 406 1284 406 1223.5 364 c 128,-1,45
 1163 322 1163 322 1103 285.5 c 1,46,-1
 974.5 210.5 l 1,47,48
 612.429 7.00001 612.429 7.00001 448 7 c 0,49,50
 221 7 221 7 221 125 c 0,51,52
 221 189 221 189 283 220 c 1,53,54
 853.699 528.542 853.699 528.542 878.85 544.771 c 0,55,56
 931 578.422 931 578.422 931 608.211 c 128,-1,0
 931 638 931 638 889 638 c 128,-1,1
1055 1214 m 128,-1,58
 1038 1249 1038 1249 1038 1289.5 c 128,-1,59
 1038 1330 1038 1330 1057 1361 c 128,-1,60
 1076 1392 1076 1392 1107 1415.5 c 128,-1,61
 1138 1439 1138 1439 1176.5 1456 c 128,-1,62
 1215 1473 1215 1473 1254 1484.5 c 0,63,64
 1326.91 1506 1326.91 1506 1373.96 1506 c 128,-1,65
 1421 1506 1421 1506 1444.5 1495.5 c 128,-1,66
 1468 1485 1468 1485 1483 1468 c 0,67,68
 1513 1434 1513 1434 1513 1398.5 c 128,-1,69
 1513 1363 1513 1363 1504.5 1334 c 128,-1,70
 1496 1305 1496 1305 1480 1274 c 128,-1,71
 1464 1243 1464 1243 1441 1212 c 128,-1,72
 1418 1181 1418 1181 1389 1156.5 c 0,73,74
 1323.31 1101 1323.31 1101 1265.65 1101 c 128,-1,75
 1208 1101 1208 1101 1169 1115 c 128,-1,76
 1130 1129 1130 1129 1101 1154 c 128,-1,57
 1072 1179 1072 1179 1055 1214 c 128,-1,58
EndSplineSet
EndChar

StartChar: uni1E57
Encoding: 7767 7767 78
Width: 1359
Flags: HW
LayerCount: 2
Fore
SplineSet
1180 1116.5 m 128,-1,1
 1146 1101 1146 1101 1104 1101 c 128,-1,2
 1062 1101 1062 1101 1023 1115 c 128,-1,3
 984 1129 984 1129 955 1154 c 0,4,5
 892 1208.31 892 1208.31 892 1292 c 0,6,7
 892 1420.81 892 1420.81 1108 1484.5 c 0,8,9
 1180.91 1506 1180.91 1506 1227.96 1506 c 128,-1,10
 1275 1506 1275 1506 1298.5 1495.5 c 128,-1,11
 1322 1485 1322 1485 1337 1468 c 0,12,13
 1367 1434 1367 1434 1367 1398.5 c 128,-1,14
 1367 1363 1367 1363 1358.5 1334 c 128,-1,15
 1350 1305 1350 1305 1334 1274 c 128,-1,16
 1318 1243 1318 1243 1295 1212 c 128,-1,17
 1272 1181 1272 1181 1243 1156.5 c 128,-1,0
 1214 1132 1214 1132 1180 1116.5 c 128,-1,1
349 249.5 m 0,18,19
 382 264 382 264 441 293.5 c 0,20,21
 801.765 478.802 801.765 478.802 836.883 497.901 c 2,22,-1
 879 521 l 1,23,24
 944 563 944 563 939 587 c 0,25,26
 928.331 638.212 928.331 638.212 884.165 628.606 c 128,-1,27
 840 619 840 619 792.5 603 c 128,-1,28
 745 587 745 587 691.5 564.5 c 0,29,30
 581.217 518.119 581.217 518.119 497.108 471.56 c 1,31,32
 202.561 303.399 202.561 303.399 143 267 c 1,33,34
 100 170 100 170 65.5 74.5 c 2,35,-1
 -55 -268.5 l 1,36,37
 -112.358 -426.765 -112.358 -426.765 -169.5 -483 c 0,38,39
 -201 -514 -201 -514 -239 -514 c 0,40,41
 -333 -514 -333 -514 -387 -448.5 c 128,-1,42
 -441 -383 -441 -383 -441 -282.5 c 128,-1,43
 -441 -182 -441 -182 -415 -84.5 c 128,-1,44
 -389 13 -389 13 -343 113 c 0,45,46
 -249.899 315.393 -249.899 315.393 -94 490 c 1,47,48
 0.743255 744.622 0.743255 744.622 222.5 985 c 0,49,50
 357.364 1131.19 357.364 1131.19 473 1191 c 0,51,52
 531 1221 531 1221 572 1221 c 128,-1,53
 613 1221 613 1221 634 1202.5 c 128,-1,54
 655 1184 655 1184 655 1156.5 c 128,-1,55
 655 1129 655 1129 638 1087 c 128,-1,56
 621 1045 621 1045 592 993 c 128,-1,57
 563 941 563 941 524 882 c 1,58,-1
 441 761 l 2,59,60
 431 746 431 746 431 734 c 0,61,62
 431 715 431 715 454 715 c 0,63,64
 479.897 715 479.897 715 550.448 748 c 2,65,-1
 709.5 821.5 l 1,66,67
 919.6 917 919.6 917 1112 917 c 0,68,69
 1211.74 917 1211.74 917 1300.5 821.5 c 0,70,71
 1389 726.279 1389 726.279 1389 616 c 0,72,73
 1389 446.065 1389 446.065 1250 354 c 2,74,-1
 1126 272.5 l 1,75,76
 1059 230 1059 230 987.5 189 c 1,77,-1
 844 110.5 l 1,78,79
 601.12 -16 601.12 -16 468.56 -16 c 128,-1,80
 336 -16 336 -16 276 17 c 128,-1,81
 216 50 216 50 216 110.449 c 0,82,83
 216 191.061 216 191.061 349 249.5 c 0,18,19
EndSplineSet
EndChar

StartChar: Zdotaccent
Encoding: 379 379 79
Width: 1871
Flags: HW
LayerCount: 2
Fore
SplineSet
1211 1526.5 m 128,-1,1
 1177 1511 1177 1511 1135 1511 c 128,-1,2
 1093 1511 1093 1511 1054 1525 c 128,-1,3
 1015 1539 1015 1539 986 1564 c 0,4,5
 923 1618.31 923 1618.31 923 1702 c 0,6,7
 923 1830.81 923 1830.81 1139 1894.5 c 0,8,9
 1211.91 1916 1211.91 1916 1258.96 1916 c 128,-1,10
 1306 1916 1306 1916 1329.5 1905.5 c 128,-1,11
 1353 1895 1353 1895 1368 1878 c 0,12,13
 1398 1844 1398 1844 1398 1808.5 c 128,-1,14
 1398 1773 1398 1773 1389.5 1744 c 128,-1,15
 1381 1715 1381 1715 1365 1684 c 128,-1,16
 1349 1653 1349 1653 1326 1622 c 128,-1,17
 1303 1591 1303 1591 1274 1566.5 c 128,-1,0
 1245 1542 1245 1542 1211 1526.5 c 128,-1,1
697 402 m 1,18,19
 735.857 419 735.857 419 788.929 419 c 128,-1,20
 842 419 842 419 877 411 c 128,-1,21
 912 403 912 403 956 389.5 c 0,22,23
 1089.99 346.963 1089.99 346.963 1145.5 326.981 c 2,24,-1
 1332 260.5 l 2,25,26
 1412.85 231 1412.85 231 1425 231 c 0,27,28
 1488 231 1488 231 1563 267.5 c 128,-1,29
 1638 304 1638 304 1697.5 345 c 128,-1,30
 1757 386 1757 386 1779 393 c 128,-1,31
 1801 400 1801 400 1825 400 c 128,-1,32
 1849 400 1849 400 1866.5 384.5 c 128,-1,33
 1884 369 1884 369 1881 340.5 c 128,-1,34
 1878 312 1878 312 1864.5 280 c 128,-1,35
 1851 248 1851 248 1830 214.5 c 0,36,37
 1785.25 143.12 1785.25 143.12 1741.63 104.06 c 1,38,-1
 1652.5 27 l 1,39,40
 1465.71 -129 1465.71 -129 1260 -129 c 0,41,42
 1204.35 -129 1204.35 -129 1072.68 -87 c 2,43,-1
 764.5 13 l 1,44,45
 564.763 79 564.763 79 507.382 79 c 128,-1,46
 450 79 450 79 395 60.5 c 128,-1,47
 340 42 340 42 284 20.5 c 128,-1,48
 228 -1 228 -1 169.5 -19.5 c 128,-1,49
 111 -38 111 -38 67.5 -38 c 128,-1,50
 24 -38 24 -38 2.5 -25.5 c 128,-1,51
 -19 -13 -19 -13 -36.5 7 c 0,52,53
 -78.534 55.0388 -78.534 55.0388 -74.767 92.5194 c 128,-1,54
 -71 130 -71 130 -43 164 c 128,-1,55
 -15 198 -15 198 26 233 c 128,-1,56
 67 268 67 268 115.5 302.5 c 128,-1,57
 164 337 164 337 209 366 c 2,58,-1
 338 446 l 2,59,60
 351 454 351 454 393.5 482 c 2,61,-1
 918.5 840.5 l 1,62,63
 1161 1012.02 1161 1012.02 1161 1020 c 256,64,65
 1161 1027 1161 1027 1123 1027 c 0,66,67
 981.25 1027 981.25 1027 881.625 1027 c 128,-1,68
 782 1027 782 1027 725 1026.5 c 2,69,-1
 615.5 1025.5 l 2,70,71
 434.951 1023.78 434.951 1023.78 411.976 1015.39 c 128,-1,72
 389 1007 389 1007 357.5 984.5 c 2,73,-1
 294.5 940.5 l 1,74,75
 216.116 887 216.116 887 164 887 c 0,76,77
 99 887 99 887 81 939.5 c 0,78,79
 63.8053 989.651 63.8053 989.651 96.9026 1035.33 c 128,-1,80
 130 1081 130 1081 167.5 1115.5 c 128,-1,81
 205 1150 205 1150 251.5 1182 c 128,-1,82
 298 1214 298 1214 344.5 1238.5 c 0,83,84
 446.041 1292 446.041 1292 493.02 1292 c 128,-1,85
 540 1292 540 1292 604.5 1295 c 128,-1,86
 669 1298 669 1298 750.5 1302.5 c 128,-1,87
 832 1307 832 1307 925.5 1313.5 c 2,88,-1
 1114 1326 l 2,89,90
 1209 1332 1209 1332 1299 1338.5 c 128,-1,91
 1389 1345 1389 1345 1464 1349.5 c 2,92,-1
 1593.5 1357 l 2,93,94
 1648 1360 1648 1360 1665.5 1360 c 128,-1,95
 1683 1360 1683 1360 1706.5 1343 c 128,-1,96
 1730 1326 1730 1326 1752.5 1297.5 c 0,97,98
 1809.88 1224.82 1809.88 1224.82 1803 1156 c 0,99,100
 1797.61 1099.36 1797.61 1099.36 1502 900 c 1,101,-1
 1322.5 782 l 1,102,-1
 954.5 554 l 1,103,-1
 697 402 l 1,18,19
EndSplineSet
EndChar

StartChar: uni1E56
Encoding: 7766 7766 80
Width: 2039
Flags: HW
LayerCount: 2
Fore
SplineSet
1387 1526.5 m 128,-1,1
 1353 1511 1353 1511 1311 1511 c 128,-1,2
 1269 1511 1269 1511 1230 1525 c 128,-1,3
 1191 1539 1191 1539 1162 1564 c 0,4,5
 1099 1618.31 1099 1618.31 1099 1702 c 0,6,7
 1099 1830.81 1099 1830.81 1315 1894.5 c 0,8,9
 1387.91 1916 1387.91 1916 1434.96 1916 c 128,-1,10
 1482 1916 1482 1916 1505.5 1905.5 c 128,-1,11
 1529 1895 1529 1895 1544 1878 c 0,12,13
 1574 1844 1574 1844 1574 1808.5 c 128,-1,14
 1574 1773 1574 1773 1565.5 1744 c 128,-1,15
 1557 1715 1557 1715 1541 1684 c 128,-1,16
 1525 1653 1525 1653 1502 1622 c 128,-1,17
 1479 1591 1479 1591 1450 1566.5 c 128,-1,0
 1421 1542 1421 1542 1387 1526.5 c 128,-1,1
176.5 61.5 m 0,18,19
 159 91 159 91 163.5 118.5 c 128,-1,20
 168 146 168 146 190 190.5 c 128,-1,21
 212 235 212 235 249.5 301.5 c 1,22,-1
 337.5 452.5 l 1,23,-1
 446.5 630 l 1,24,-1
 568.5 821.5 l 1,25,-1
 696 1014 l 1,26,27
 454.811 953.703 454.811 953.703 328 871 c 0,28,29
 307 857 307 857 292.5 842 c 2,30,-1
 258 808 l 2,31,32
 227 777 227 777 197 777 c 128,-1,33
 167 777 167 777 150.5 784.5 c 128,-1,34
 134 792 134 792 123.5 804.5 c 0,35,36
 99.4844 833.09 99.4844 833.09 115 868 c 1,37,38
 158.448 1005.58 158.448 1005.58 237.5 1149.5 c 0,39,40
 281.523 1229.64 281.523 1229.64 308 1242 c 0,41,42
 498.492 1324.17 498.492 1324.17 1100 1361 c 0,43,44
 1296 1373 1296 1373 1512 1373 c 0,45,46
 1653.39 1373 1653.39 1373 1779.5 1271.5 c 0,47,48
 1922 1156.8 1922 1156.8 1922 984 c 0,49,50
 1922 758.232 1922 758.232 1534.5 555.5 c 0,51,52
 1319.35 442.94 1319.35 442.94 1130 398.5 c 0,53,54
 1081 387 1081 387 1054.5 387 c 128,-1,55
 1028 387 1028 387 994.5 394 c 128,-1,56
 961 401 961 401 933.5 414.5 c 0,57,58
 870 445.673 870 445.673 870 491 c 0,59,60
 870 554.514 870 554.514 993 621.257 c 2,61,-1
 1207.5 737 l 2,62,63
 1398.87 839.481 1398.87 839.481 1443.93 885.241 c 128,-1,64
 1489 931 1489 931 1489 960.5 c 128,-1,65
 1489 990 1489 990 1477.5 1015 c 128,-1,66
 1466 1040 1466 1040 1446.5 1059.5 c 0,67,68
 1403 1103 1403 1103 1353.5 1103 c 0,69,70
 1252 1103 1252 1103 1108 1087 c 1,71,-1
 985.5 871.5 l 1,72,73
 752.109 446.986 752.109 446.986 668 108 c 1,74,75
 634 -24 634 -24 411 -24 c 0,76,77
 227.22 -24 227.22 -24 176.5 61.5 c 0,18,19
EndSplineSet
EndChar

StartChar: uni1E41
Encoding: 7745 7745 81
Width: 2379
Flags: HW
LayerCount: 2
Fore
SplineSet
1332 1214 m 128,-1,1
 1315 1249 1315 1249 1315 1289.5 c 128,-1,2
 1315 1330 1315 1330 1334 1361 c 128,-1,3
 1353 1392 1353 1392 1384 1415.5 c 128,-1,4
 1415 1439 1415 1439 1453.5 1456 c 128,-1,5
 1492 1473 1492 1473 1531 1484.5 c 0,6,7
 1603.91 1506 1603.91 1506 1650.96 1506 c 128,-1,8
 1698 1506 1698 1506 1721.5 1495.5 c 128,-1,9
 1745 1485 1745 1485 1760 1468 c 0,10,11
 1790 1434 1790 1434 1790 1398.5 c 128,-1,12
 1790 1363 1790 1363 1781.5 1334 c 128,-1,13
 1773 1305 1773 1305 1757 1274 c 128,-1,14
 1741 1243 1741 1243 1718 1212 c 128,-1,15
 1695 1181 1695 1181 1666 1156.5 c 0,16,17
 1600.31 1101 1600.31 1101 1542.65 1101 c 128,-1,18
 1485 1101 1485 1101 1446 1115 c 128,-1,19
 1407 1129 1407 1129 1378 1154 c 128,-1,0
 1349 1179 1349 1179 1332 1214 c 128,-1,1
1898 548 m 0,20,21
 1898 401 1898 401 1990 401 c 0,22,23
 2054.2 401 2054.2 401 2211 513 c 1,24,25
 2353.45 618.45 2353.45 618.45 2380 645 c 1,26,27
 2442 697 2442 697 2510 697 c 0,28,29
 2539 697 2539 697 2559.5 677.5 c 128,-1,30
 2580 658 2580 658 2580 619 c 128,-1,31
 2580 580 2580 580 2561 548 c 128,-1,32
 2542 516 2542 516 2512.5 482 c 128,-1,33
 2483 448 2483 448 2439.5 406 c 128,-1,34
 2396 364 2396 364 2340 317.5 c 128,-1,35
 2284 271 2284 271 2217.5 225 c 128,-1,36
 2151 179 2151 179 2080 142.5 c 0,37,38
 1919.52 60 1919.52 60 1791 60 c 0,39,40
 1642.93 60 1642.93 60 1589.5 194.5 c 0,41,42
 1559 271.276 1559 271.276 1559 379 c 1,43,-1
 1268 181.5 l 1,44,45
 969.01 -27.5908 969.01 -27.5908 912.5 -41 c 0,46,47
 883 -48 883 -48 853.5 -48 c 128,-1,48
 824 -48 824 -48 798 -42.5 c 128,-1,49
 772 -37 772 -37 751.5 -24.5 c 0,50,51
 706 3.2439 706 3.2439 706 56 c 0,52,53
 706 77.0588 706 77.0588 734.5 157.529 c 2,54,-1
 820 393.5 l 1,55,56
 860 507.618 860 507.618 860 531 c 0,57,58
 860 539 860 539 850 539 c 128,-1,59
 840 539 840 539 813 518 c 128,-1,60
 786 497 786 497 748 464.5 c 2,61,-1
 509.5 256.5 l 1,62,-1
 385 152.5 l 1,63,64
 192.613 -1 192.613 -1 72 -1 c 0,65,66
 15.0213 -1 15.0213 -1 -43 49.5 c 0,67,68
 -106 104.333 -106 104.333 -106 180.167 c 128,-1,69
 -106 256 -106 256 -91.5 346 c 128,-1,70
 -77 436 -77 436 -50 519.5 c 128,-1,71
 -23 603 -23 603 17 676.5 c 128,-1,72
 57 750 57 750 108 804.5 c 0,73,74
 217.954 922 217.954 922 367.477 922 c 128,-1,75
 517 922 517 922 517 834 c 0,76,77
 517 796.235 517 796.235 476.5 717.618 c 0,78,79
 389 546.443 389 546.443 389 532.721 c 128,-1,80
 389 519 389 519 397.5 511.5 c 128,-1,81
 406 504 406 504 415.5 504 c 0,82,83
 436.647 504 436.647 504 476.324 537.5 c 1,84,85
 733.185 763.088 733.185 763.088 799.592 817.044 c 128,-1,86
 866 871 866 871 928.5 912 c 0,87,88
 1070.27 1005 1070.27 1005 1154 1005 c 0,89,90
 1223.14 1005 1223.14 1005 1265.57 983 c 0,91,92
 1341 943.889 1341 943.889 1341 894.944 c 128,-1,93
 1341 846 1341 846 1327.5 784 c 128,-1,94
 1314 722 1314 722 1297.5 664.5 c 2,95,-1
 1267.5 562.5 l 2,96,97
 1254 518 1254 518 1254 494.5 c 128,-1,98
 1254 471 1254 471 1274 471 c 0,99,100
 1322.03 471 1322.03 471 1465 607 c 1,101,-1
 1562.5 698.5 l 1,102,103
 1729.18 848 1729.18 848 1815 848 c 0,104,105
 1856 848 1856 848 1887.5 816.5 c 0,106,107
 1944 760 1944 760 1944 718 c 0,108,109
 1944 695.222 1944 695.222 1928 656.111 c 0,110,111
 1898 582.778 1898 582.778 1898 548 c 0,20,21
EndSplineSet
EndChar

StartChar: uni1E40
Encoding: 7744 7744 82
Width: 2725
Flags: HW
LayerCount: 2
Fore
SplineSet
1501 1624 m 128,-1,1
 1484 1659 1484 1659 1484 1699.5 c 128,-1,2
 1484 1740 1484 1740 1503 1771 c 128,-1,3
 1522 1802 1522 1802 1553 1825.5 c 128,-1,4
 1584 1849 1584 1849 1622.5 1866 c 128,-1,5
 1661 1883 1661 1883 1700 1894.5 c 0,6,7
 1772.91 1916 1772.91 1916 1819.96 1916 c 128,-1,8
 1867 1916 1867 1916 1890.5 1905.5 c 128,-1,9
 1914 1895 1914 1895 1929 1878 c 0,10,11
 1959 1844 1959 1844 1959 1808.5 c 128,-1,12
 1959 1773 1959 1773 1950.5 1744 c 128,-1,13
 1942 1715 1942 1715 1926 1684 c 128,-1,14
 1910 1653 1910 1653 1887 1622 c 128,-1,15
 1864 1591 1864 1591 1835 1566.5 c 0,16,17
 1769.31 1511 1769.31 1511 1711.65 1511 c 128,-1,18
 1654 1511 1654 1511 1615 1525 c 128,-1,19
 1576 1539 1576 1539 1547 1564 c 128,-1,0
 1518 1589 1518 1589 1501 1624 c 128,-1,1
1808 243 m 1,20,-1
 1810 311 l 2,21,22
 1811.73 374.964 1811.73 374.964 1821.86 450.982 c 2,23,-1
 1837.5 569 l 2,24,25
 1843 611 1843 611 1848 645 c 1,26,27
 1753.15 541.154 1753.15 541.154 1695.08 483.077 c 2,28,-1
 1580.5 371 l 1,29,30
 1193.96 9.99997 1193.96 9.99997 1120 10 c 0,31,32
 1010.64 10 1010.64 10 891 57 c 0,33,34
 825.88 82.5827 825.88 82.5827 817 111 c 1,35,36
 803 146 803 146 803 206.5 c 128,-1,37
 803 267 803 267 807 318 c 128,-1,38
 811 369 811 369 817 419.5 c 128,-1,39
 823 470 823 470 829.5 516.5 c 128,-1,40
 836 563 836 563 840.5 598.5 c 0,41,42
 850.451 677 850.451 677 844 677 c 1,43,-1
 471.5 220.5 l 1,44,45
 209.291 -89.1897 209.291 -89.1897 173.146 -122.095 c 0,46,47
 96.3562 -192 96.3562 -192 3 -192 c 0,48,49
 -43 -192 -43 -192 -73 -169 c 128,-1,50
 -103 -146 -103 -146 -103 -111.5 c 0,51,52
 -103 -43.5484 -103 -43.5484 -46 30 c 2,53,-1
 841.5 1159 l 1,54,-1
 945.5 1284.5 l 1,55,56
 1132.02 1503 1132.02 1503 1190 1503 c 0,57,58
 1270.94 1503 1270.94 1503 1344.5 1462 c 0,59,60
 1408.91 1426.1 1408.91 1426.1 1418 1392 c 0,61,62
 1421.65 1379.24 1421.65 1379.24 1401.32 1271.12 c 2,63,-1
 1366 1082.5 l 2,64,65
 1307 765.867 1307 765.867 1307 674.433 c 128,-1,66
 1307 583 1307 583 1328 583 c 0,67,68
 1396.12 583 1396.12 583 1589.5 806 c 1,69,-1
 1914 1193.5 l 1,70,71
 2020.65 1317.17 2020.65 1317.17 2056 1334 c 0,72,73
 2066 1339 2066 1339 2085 1339 c 128,-1,74
 2104 1339 2104 1339 2127.5 1334 c 128,-1,75
 2151 1329 2151 1329 2175.5 1321 c 128,-1,76
 2200 1313 2200 1313 2223 1302 c 128,-1,77
 2246 1291 2246 1291 2264 1279 c 0,78,79
 2303 1253 2303 1253 2302.5 1236.5 c 128,-1,80
 2302 1220 2302 1220 2294 1165.5 c 128,-1,81
 2286 1111 2286 1111 2273.5 1033 c 0,82,83
 2191.33 515.649 2191.33 515.649 2187.67 432.825 c 128,-1,84
 2184 350 2184 350 2204.5 329 c 128,-1,85
 2225 308 2225 308 2265 308 c 0,86,87
 2337.8 308 2337.8 308 2477 395 c 0,88,89
 2571.03 454 2571.03 454 2632.52 454 c 128,-1,90
 2694 454 2694 454 2694 395 c 0,91,92
 2694 333.662 2694 333.662 2628.5 247 c 0,93,94
 2533.3 121.043 2533.3 121.043 2343.5 19 c 0,95,96
 2185.4 -66.0001 2185.4 -66.0001 2042 -66 c 0,97,98
 1808 -66 1808 -66 1808 243 c 1,20,-1
EndSplineSet
EndChar

StartChar: dieresis
Encoding: 168 168 83
Width: 1189
Flags: HW
LayerCount: 2
Fore
SplineSet
973 1165 m 128,-1,1
 943 1151 943 1151 907 1151 c 128,-1,2
 871 1151 871 1151 837.5 1164.5 c 128,-1,3
 804 1178 804 1178 778.5 1203 c 0,4,5
 724 1256.43 724 1256.43 724 1340 c 0,6,7
 724 1457.03 724 1457.03 911.5 1513 c 0,8,9
 975.15 1532 975.15 1532 1015.58 1532 c 128,-1,10
 1056 1532 1056 1532 1076 1522 c 128,-1,11
 1096 1512 1096 1512 1109 1495 c 0,12,13
 1135 1461 1135 1461 1135 1426 c 128,-1,14
 1135 1391 1135 1391 1127.5 1365 c 128,-1,15
 1120 1339 1120 1339 1106.5 1310 c 128,-1,16
 1093 1281 1093 1281 1073 1252.5 c 128,-1,17
 1053 1224 1053 1224 1028 1201.5 c 128,-1,0
 1003 1179 1003 1179 973 1165 c 128,-1,1
351 1165 m 128,-1,19
 321 1151 321 1151 285 1151 c 128,-1,20
 249 1151 249 1151 215.5 1164.5 c 128,-1,21
 182 1178 182 1178 156.5 1203 c 0,22,23
 102 1256.43 102 1256.43 102 1340 c 0,24,25
 102 1457.03 102 1457.03 289.5 1513 c 0,26,27
 353.15 1532 353.15 1532 393.575 1532 c 128,-1,28
 434 1532 434 1532 454 1522 c 128,-1,29
 474 1512 474 1512 487 1495 c 0,30,31
 513 1461 513 1461 513 1426 c 128,-1,32
 513 1391 513 1391 505.5 1365 c 128,-1,33
 498 1339 498 1339 484.5 1310 c 128,-1,34
 471 1281 471 1281 451 1252.5 c 128,-1,35
 431 1224 431 1224 406 1201.5 c 128,-1,18
 381 1179 381 1179 351 1165 c 128,-1,19
EndSplineSet
EndChar

StartChar: dotlessj
Encoding: 567 567 84
Width: 852
Flags: HW
LayerCount: 2
Fore
SplineSet
-94 91 m 1,0,1
 -29.2529 212.401 -29.2529 212.401 16.3735 333.7 c 2,2,-1
 80 506 l 1,3,4
 92 545 92 545 92 566.5 c 128,-1,5
 92 588 92 588 86 602 c 2,6,-1
 72.5 632 l 2,7,8
 53 673.6 53 673.6 53 717.3 c 128,-1,9
 53 761 53 761 73.5 793 c 128,-1,10
 94 825 94 825 127 850 c 128,-1,11
 160 875 160 875 202 893 c 128,-1,12
 244 911 244 911 287.5 922.5 c 0,13,14
 372.609 945 372.609 945 420.304 945 c 128,-1,15
 468 945 468 945 487.5 935 c 128,-1,16
 507 925 507 925 520.5 910 c 0,17,18
 548 879.444 548 879.444 548 844.722 c 128,-1,19
 548 810 548 810 536.5 759 c 128,-1,20
 525 708 525 708 504.5 646.5 c 128,-1,21
 484 585 484 585 456.5 514.5 c 1,22,-1
 397 368 l 1,23,24
 378 324 378 324 353 271 c 1,25,-1
 522.5 403 l 1,26,-1
 793 603.5 l 1,27,28
 840 637 840 637 853.5 647.5 c 0,29,30
 890.143 676 890.143 676 927.571 676 c 0,31,32
 997.482 676 997.482 676 1012 627 c 0,33,34
 1030.46 564.226 1030.46 564.226 925 430 c 0,35,36
 892 388 892 388 859.5 359.5 c 128,-1,37
 827 331 827 331 790 303 c 0,38,39
 227.71 -103.991 227.71 -103.991 181.355 -140.495 c 128,-1,40
 135 -177 135 -177 110 -199 c 1,41,42
 49 -301 49 -301 -6 -370 c 1,43,44
 -90.7347 -490.041 -90.7347 -490.041 -199 -555 c 0,45,46
 -280.667 -604 -280.667 -604 -358.333 -604 c 128,-1,47
 -436 -604 -436 -604 -478.5 -566 c 128,-1,48
 -521 -528 -521 -528 -521 -465 c 128,-1,49
 -521 -402 -521 -402 -499.5 -345.5 c 128,-1,50
 -478 -289 -478 -289 -442.5 -236 c 128,-1,51
 -407 -183 -407 -183 -362 -135.5 c 128,-1,52
 -317 -88 -317 -88 -269.5 -46 c 128,-1,53
 -222 -4 -222 -4 -176.5 30.5 c 2,54,-1
 -94 91 l 1,0,1
EndSplineSet
EndChar

StartChar: dotlessi
Encoding: 305 305 85
Width: 1020
Flags: HW
LayerCount: 2
Fore
SplineSet
423 965 m 0,0,1
 652 965 652 965 652 829 c 0,2,3
 652 684.783 652 684.783 427 450 c 0,4,5
 404 426 404 426 393 417 c 1,6,7
 393 382.526 393 382.526 409 357.263 c 0,8,9
 437.033 313 437.033 313 463.017 313 c 128,-1,10
 489 313 489 313 531 329 c 128,-1,11
 573 345 573 345 621.5 371.5 c 128,-1,12
 670 398 670 398 723 432 c 128,-1,13
 776 466 776 466 828 503 c 1,14,-1
 1020 645 l 1,15,16
 1128.62 724 1128.62 724 1197 724 c 0,17,18
 1224 724 1224 724 1238.5 704.5 c 128,-1,19
 1253 685 1253 685 1253 659 c 128,-1,20
 1253 633 1253 633 1227 587.5 c 128,-1,21
 1201 542 1201 542 1155.5 487.5 c 128,-1,22
 1110 433 1110 433 1049 373.5 c 128,-1,23
 988 314 988 314 917 256.5 c 128,-1,24
 846 199 846 199 769.5 147 c 128,-1,25
 693 95 693 95 617 55.5 c 0,26,27
 450.57 -31 450.57 -31 354.285 -31 c 128,-1,28
 258 -31 258 -31 183.5 2.5 c 128,-1,29
 109 36 109 36 51 92 c 0,30,31
 -78 216.552 -78 216.552 -78 370 c 0,32,33
 -78 511.143 -78 511.143 6.5 656 c 0,34,35
 83.0013 787.145 83.0013 787.145 202.5 876.5 c 0,36,37
 320.855 965 320.855 965 423 965 c 0,0,1
EndSplineSet
EndChar

StartChar: dieresis.cap
Encoding: 65540 -1 86
Width: 1362
Flags: HW
LayerCount: 2
Fore
SplineSet
1036 1530 m 128,-1,1
 1006 1515 1006 1515 970 1515 c 128,-1,2
 934 1515 934 1515 900.5 1528.5 c 128,-1,3
 867 1542 867 1542 841.5 1567 c 0,4,5
 787 1620.43 787 1620.43 787 1704 c 0,6,7
 787 1833.43 787 1833.43 974.5 1895 c 0,8,9
 1038.45 1916 1038.45 1916 1078.73 1916 c 128,-1,10
 1119 1916 1119 1916 1139 1906 c 128,-1,11
 1159 1896 1159 1896 1172 1879 c 0,12,13
 1198 1845 1198 1845 1198 1809.5 c 128,-1,14
 1198 1774 1198 1774 1190.5 1745.5 c 128,-1,15
 1183 1717 1183 1717 1169.5 1686 c 128,-1,16
 1156 1655 1156 1655 1136 1624.5 c 128,-1,17
 1116 1594 1116 1594 1091 1569.5 c 128,-1,0
 1066 1545 1066 1545 1036 1530 c 128,-1,1
414 1530 m 128,-1,19
 384 1515 384 1515 348 1515 c 128,-1,20
 312 1515 312 1515 278.5 1528.5 c 128,-1,21
 245 1542 245 1542 219.5 1567 c 0,22,23
 165 1620.43 165 1620.43 165 1704 c 0,24,25
 165 1833.43 165 1833.43 352.5 1895 c 0,26,27
 416.455 1916 416.455 1916 456.727 1916 c 128,-1,28
 497 1916 497 1916 517 1906 c 128,-1,29
 537 1896 537 1896 550 1879 c 0,30,31
 576 1845 576 1845 576 1809.5 c 128,-1,32
 576 1774 576 1774 568.5 1745.5 c 128,-1,33
 561 1717 561 1717 547.5 1686 c 128,-1,34
 534 1655 534 1655 514 1624.5 c 128,-1,35
 494 1594 494 1594 469 1569.5 c 128,-1,18
 444 1545 444 1545 414 1530 c 128,-1,19
EndSplineSet
EndChar

StartChar: adieresis
Encoding: 228 228 87
Width: 1530
Flags: HW
LayerCount: 2
Fore
SplineSet
1303 1135 m 128,-1,1
 1273 1121 1273 1121 1237 1121 c 128,-1,2
 1201 1121 1201 1121 1167.5 1134.5 c 128,-1,3
 1134 1148 1134 1148 1108.5 1173 c 0,4,5
 1054 1226.43 1054 1226.43 1054 1310 c 0,6,7
 1054 1427.03 1054 1427.03 1241.5 1483 c 0,8,9
 1305.15 1502 1305.15 1502 1345.57 1502 c 128,-1,10
 1386 1502 1386 1502 1406 1492 c 128,-1,11
 1426 1482 1426 1482 1439 1465 c 0,12,13
 1465 1431 1465 1431 1465 1396 c 128,-1,14
 1465 1361 1465 1361 1457.5 1335 c 128,-1,15
 1450 1309 1450 1309 1436.5 1280 c 128,-1,16
 1423 1251 1423 1251 1403 1222.5 c 128,-1,17
 1383 1194 1383 1194 1358 1171.5 c 128,-1,0
 1333 1149 1333 1149 1303 1135 c 128,-1,1
681 1135 m 128,-1,19
 651 1121 651 1121 615 1121 c 128,-1,20
 579 1121 579 1121 545.5 1134.5 c 128,-1,21
 512 1148 512 1148 486.5 1173 c 0,22,23
 432 1226.43 432 1226.43 432 1310 c 0,24,25
 432 1427.03 432 1427.03 619.5 1483 c 0,26,27
 683.15 1502 683.15 1502 723.575 1502 c 128,-1,28
 764 1502 764 1502 784 1492 c 128,-1,29
 804 1482 804 1482 817 1465 c 0,30,31
 843 1431 843 1431 843 1396 c 128,-1,32
 843 1361 843 1361 835.5 1335 c 128,-1,33
 828 1309 828 1309 814.5 1280 c 128,-1,34
 801 1251 801 1251 781 1222.5 c 128,-1,35
 761 1194 761 1194 736 1171.5 c 128,-1,18
 711 1149 711 1149 681 1135 c 128,-1,19
1737 751 m 0,36,37
 1769 751 1769 751 1769 697 c 0,38,39
 1769 603.727 1769 603.727 1639 456 c 1,40,-1
 1581.5 397.5 l 1,41,42
 1323.47 139.465 1323.47 139.465 1094 53 c 0,43,44
 952.101 -0.469068 952.101 -0.469068 890.5 58 c 0,45,46
 839.001 106.88 839.001 106.88 809 216.5 c 2,47,-1
 785 303 l 1,48,-1
 572.5 172.5 l 1,49,-1
 449 102.5 l 1,50,51
 228.957 -18 228.957 -18 119 -18 c 0,52,53
 -21.9592 -18 -21.9592 -18 -116.5 91 c 0,54,55
 -206 194.188 -206 194.188 -206 330 c 0,56,57
 -206 464.019 -206 464.019 -99 569 c 256,58,59
 54.3497 719.456 54.3497 719.456 384 843.5 c 0,60,61
 696.26 961 696.26 961 888 961 c 0,62,63
 953 961 953 961 953 897 c 0,64,65
 953 853 953 853 936 831 c 128,-1,66
 919 809 919 809 866 785.5 c 2,67,-1
 740 731.5 l 1,68,69
 460.137 614.571 460.137 614.571 330 489 c 0,70,71
 293 454 293 454 293 421 c 128,-1,72
 293 388 293 388 346 388 c 0,73,74
 398.5 388 398.5 388 588.5 500 c 2,75,-1
 671 549 l 1,76,77
 864.333 665 864.333 665 994 665 c 0,78,79
 1104.07 665 1104.07 665 1140 568 c 0,80,81
 1149 542 1149 542 1157 515.5 c 128,-1,82
 1165 489 1165 489 1173 467.5 c 0,83,84
 1191.05 419 1191.05 419 1205.52 419 c 128,-1,85
 1220 419 1220 419 1247 433.5 c 128,-1,86
 1274 448 1274 448 1306.5 470.5 c 128,-1,87
 1339 493 1339 493 1374 520 c 2,88,-1
 1495 617 l 1,89,90
 1655.8 751 1655.8 751 1737 751 c 0,36,37
EndSplineSet
EndChar

StartChar: odieresis
Encoding: 246 246 88
Width: 1359
Flags: HW
LayerCount: 2
Fore
SplineSet
1126 1135 m 128,-1,1
 1096 1121 1096 1121 1060 1121 c 128,-1,2
 1024 1121 1024 1121 990.5 1134.5 c 128,-1,3
 957 1148 957 1148 931.5 1173 c 0,4,5
 877 1226.43 877 1226.43 877 1310 c 0,6,7
 877 1427.03 877 1427.03 1064.5 1483 c 0,8,9
 1128.15 1502 1128.15 1502 1168.57 1502 c 128,-1,10
 1209 1502 1209 1502 1229 1492 c 128,-1,11
 1249 1482 1249 1482 1262 1465 c 0,12,13
 1288 1431 1288 1431 1288 1396 c 128,-1,14
 1288 1361 1288 1361 1280.5 1335 c 128,-1,15
 1273 1309 1273 1309 1259.5 1280 c 128,-1,16
 1246 1251 1246 1251 1226 1222.5 c 128,-1,17
 1206 1194 1206 1194 1181 1171.5 c 128,-1,0
 1156 1149 1156 1149 1126 1135 c 128,-1,1
504 1135 m 128,-1,19
 474 1121 474 1121 438 1121 c 128,-1,20
 402 1121 402 1121 368.5 1134.5 c 128,-1,21
 335 1148 335 1148 309.5 1173 c 0,22,23
 255 1226.43 255 1226.43 255 1310 c 0,24,25
 255 1427.03 255 1427.03 442.5 1483 c 0,26,27
 506.15 1502 506.15 1502 546.575 1502 c 128,-1,28
 587 1502 587 1502 607 1492 c 128,-1,29
 627 1482 627 1482 640 1465 c 0,30,31
 666 1431 666 1431 666 1396 c 128,-1,32
 666 1361 666 1361 658.5 1335 c 128,-1,33
 651 1309 651 1309 637.5 1280 c 128,-1,34
 624 1251 624 1251 604 1222.5 c 128,-1,35
 584 1194 584 1194 559 1171.5 c 128,-1,18
 534 1149 534 1149 504 1135 c 128,-1,19
1067 616 m 0,36,37
 1067 562 1067 562 1159 562 c 0,38,39
 1226.55 562 1226.55 562 1337.5 627.5 c 1,40,-1
 1416.5 672.5 l 2,41,42
 1454 693 1454 693 1481.5 693 c 128,-1,43
 1509 693 1509 693 1525 676 c 128,-1,44
 1541 659 1541 659 1541 629 c 128,-1,45
 1541 599 1541 599 1521 559.5 c 128,-1,46
 1501 520 1501 520 1466 476.5 c 128,-1,47
 1431 433 1431 433 1384 390.5 c 128,-1,48
 1337 348 1337 348 1283.5 314.5 c 0,49,50
 1162.93 239 1162.93 239 1060 239 c 0,51,52
 951.217 239 951.217 239 886 276.5 c 0,53,54
 866 288 866 288 847 301 c 1,55,56
 740.364 178.682 740.364 178.682 537 77 c 0,57,58
 321 -31 321 -31 160 -31 c 0,59,60
 -9.33333 -31 -9.33333 -31 -106.5 101.5 c 0,61,62
 -186 209.909 -186 209.909 -186 321 c 0,63,64
 -186 480.673 -186 480.673 -15 625.5 c 0,65,66
 110.865 732.1 110.865 732.1 228.432 787.05 c 128,-1,67
 346 842 346 842 441.5 872 c 0,68,69
 642.05 935 642.05 935 803 935 c 0,70,71
 874.562 935 874.562 935 931.281 907.5 c 128,-1,72
 988 880 988 880 1015.5 852.5 c 0,73,74
 1079 789 1079 789 1079 691 c 0,75,76
 1079 662 1079 662 1073 646 c 128,-1,77
 1067 630 1067 630 1067 616 c 0,36,37
249 427 m 1,78,-1
 248 424 l 1,79,-1
 248 423 l 2,80,81
 248 379.96 248 379.96 267.5 367.48 c 0,82,83
 312.739 338.527 312.739 338.527 363.87 352.263 c 128,-1,84
 415 366 415 366 461 386 c 0,85,86
 574.659 435.417 574.659 435.417 667 510 c 1,87,88
 651 542 651 542 651 576 c 0,89,90
 651 647.667 651 647.667 714 720 c 1,91,92
 633.577 720 633.577 720 498 645 c 0,93,94
 409.345 595.957 409.345 595.957 351.673 547.479 c 0,95,96
 249 461.174 249 461.174 249 427 c 1,78,-1
EndSplineSet
EndChar

StartChar: ydieresis
Encoding: 255 255 89
Width: 1530
Flags: HW
LayerCount: 2
Fore
SplineSet
1215 1135 m 128,-1,1
 1185 1121 1185 1121 1149 1121 c 128,-1,2
 1113 1121 1113 1121 1079.5 1134.5 c 128,-1,3
 1046 1148 1046 1148 1020.5 1173 c 0,4,5
 966 1226.43 966 1226.43 966 1310 c 0,6,7
 966 1427.03 966 1427.03 1153.5 1483 c 0,8,9
 1217.15 1502 1217.15 1502 1257.57 1502 c 128,-1,10
 1298 1502 1298 1502 1318 1492 c 128,-1,11
 1338 1482 1338 1482 1351 1465 c 0,12,13
 1377 1431 1377 1431 1377 1396 c 128,-1,14
 1377 1361 1377 1361 1369.5 1335 c 128,-1,15
 1362 1309 1362 1309 1348.5 1280 c 128,-1,16
 1335 1251 1335 1251 1315 1222.5 c 128,-1,17
 1295 1194 1295 1194 1270 1171.5 c 128,-1,0
 1245 1149 1245 1149 1215 1135 c 128,-1,1
593 1135 m 128,-1,19
 563 1121 563 1121 527 1121 c 128,-1,20
 491 1121 491 1121 457.5 1134.5 c 128,-1,21
 424 1148 424 1148 398.5 1173 c 0,22,23
 344 1226.43 344 1226.43 344 1310 c 0,24,25
 344 1427.03 344 1427.03 531.5 1483 c 0,26,27
 595.15 1502 595.15 1502 635.575 1502 c 128,-1,28
 676 1502 676 1502 696 1492 c 128,-1,29
 716 1482 716 1482 729 1465 c 0,30,31
 755 1431 755 1431 755 1396 c 128,-1,32
 755 1361 755 1361 747.5 1335 c 128,-1,33
 740 1309 740 1309 726.5 1280 c 128,-1,34
 713 1251 713 1251 693 1222.5 c 128,-1,35
 673 1194 673 1194 648 1171.5 c 128,-1,18
 623 1149 623 1149 593 1135 c 128,-1,19
356 425 m 0,36,37
 356 379 356 379 417 379 c 0,38,39
 541.444 379 541.444 379 839 688 c 1,40,-1
 935.5 785.5 l 1,41,42
 1035.24 883 1035.24 883 1067.12 883 c 128,-1,43
 1099 883 1099 883 1124 872 c 128,-1,44
 1149 861 1149 861 1167.5 844.5 c 0,45,46
 1207 809.27 1207 809.27 1207 769.635 c 128,-1,47
 1207 730 1207 730 1198.5 682.5 c 128,-1,48
 1190 635 1190 635 1172 576 c 0,49,50
 1138.55 466.358 1138.55 466.358 1053 281 c 2,51,-1
 1012 193 l 1,52,-1
 1182.5 347 l 1,53,-1
 1530 645 l 1,54,55
 1583.33 685 1583.33 685 1618.17 685 c 0,56,57
 1694 685 1694 685 1694 612 c 0,58,59
 1694 537.279 1694 537.279 1596.5 419 c 0,60,61
 1566 382 1566 382 1531 349.5 c 1,62,-1
 1295 145 l 1,63,-1
 835 -243.5 l 1,64,65
 774 -297 774 -297 743 -328 c 1,66,67
 705.67 -388.021 705.67 -388.021 685.335 -417.51 c 128,-1,68
 665 -447 665 -447 645 -480.5 c 128,-1,69
 625 -514 625 -514 606 -538 c 0,70,71
 564.833 -590 564.833 -590 524 -590 c 0,72,73
 480.545 -590 480.545 -590 440.773 -555 c 0,74,75
 367 -490.08 367 -490.08 367 -439.04 c 128,-1,76
 367 -388 367 -388 395 -320.5 c 128,-1,77
 423 -253 423 -253 467.5 -166.5 c 1,78,-1
 680 225 l 1,79,80
 527.367 86.6127 527.367 86.6127 440.184 42.3064 c 128,-1,81
 353 -2 353 -2 293.5 -16.5 c 128,-1,82
 234 -31 234 -31 167.5 -31 c 128,-1,83
 101 -31 101 -31 51 -3.5 c 128,-1,84
 1 24 1 24 -32 70.5 c 0,85,86
 -96 160.682 -96 160.682 -96 307 c 0,87,88
 -96 462.247 -96 462.247 -18.5 613 c 0,89,90
 57.3307 760.506 57.3307 760.506 180 851 c 0,91,92
 310.133 947 310.133 947 447.067 947 c 128,-1,93
 584 947 584 947 584 840 c 0,94,95
 584 772.6 584 772.6 470 641.5 c 128,-1,96
 356 510.4 356 510.4 356 425 c 0,36,37
EndSplineSet
EndChar

StartChar: udieresis
Encoding: 252 252 90
Width: 1701
Flags: HW
LayerCount: 2
Fore
SplineSet
1191 1135 m 128,-1,1
 1161 1121 1161 1121 1125 1121 c 128,-1,2
 1089 1121 1089 1121 1055.5 1134.5 c 128,-1,3
 1022 1148 1022 1148 996.5 1173 c 0,4,5
 942 1226.43 942 1226.43 942 1310 c 0,6,7
 942 1427.03 942 1427.03 1129.5 1483 c 0,8,9
 1193.15 1502 1193.15 1502 1233.57 1502 c 128,-1,10
 1274 1502 1274 1502 1294 1492 c 128,-1,11
 1314 1482 1314 1482 1327 1465 c 0,12,13
 1353 1431 1353 1431 1353 1396 c 128,-1,14
 1353 1361 1353 1361 1345.5 1335 c 128,-1,15
 1338 1309 1338 1309 1324.5 1280 c 128,-1,16
 1311 1251 1311 1251 1291 1222.5 c 128,-1,17
 1271 1194 1271 1194 1246 1171.5 c 128,-1,0
 1221 1149 1221 1149 1191 1135 c 128,-1,1
569 1135 m 128,-1,19
 539 1121 539 1121 503 1121 c 128,-1,20
 467 1121 467 1121 433.5 1134.5 c 128,-1,21
 400 1148 400 1148 374.5 1173 c 0,22,23
 320 1226.43 320 1226.43 320 1310 c 0,24,25
 320 1427.03 320 1427.03 507.5 1483 c 0,26,27
 571.15 1502 571.15 1502 611.575 1502 c 128,-1,28
 652 1502 652 1502 672 1492 c 128,-1,29
 692 1482 692 1482 705 1465 c 0,30,31
 731 1431 731 1431 731 1396 c 128,-1,32
 731 1361 731 1361 723.5 1335 c 128,-1,33
 716 1309 716 1309 702.5 1280 c 128,-1,34
 689 1251 689 1251 669 1222.5 c 128,-1,35
 649 1194 649 1194 624 1171.5 c 128,-1,18
 599 1149 599 1149 569 1135 c 128,-1,19
1265 503 m 0,36,37
 1265 402 1265 402 1354 402 c 256,38,39
 1443 402 1443 402 1661.5 573 c 1,40,-1
 1750 645 l 2,41,42
 1837 717 1837 717 1916 717 c 0,43,44
 1945 717 1945 717 1954 701.5 c 128,-1,45
 1963 686 1963 686 1963 662.5 c 128,-1,46
 1963 639 1963 639 1954.5 613.5 c 128,-1,47
 1946 588 1946 588 1931 559.5 c 0,48,49
 1897.94 496.677 1897.94 496.677 1866.97 461.839 c 128,-1,50
 1836 427 1836 427 1794.5 389.5 c 128,-1,51
 1753 352 1753 352 1696 305.5 c 128,-1,52
 1639 259 1639 259 1570 210.5 c 128,-1,53
 1501 162 1501 162 1431 121.5 c 0,54,55
 1272.85 30 1272.85 30 1171 30 c 0,56,57
 1048.91 30 1048.91 30 979.5 116.5 c 0,58,59
 915.347 196.444 915.347 196.444 907 330 c 1,60,61
 727.315 144.519 727.315 144.519 526.5 45 c 0,62,63
 403.411 -16 403.411 -16 318.205 -16 c 128,-1,64
 233 -16 233 -16 169 4.5 c 128,-1,65
 105 25 105 25 57 65.5 c 0,66,67
 -47 153.25 -47 153.25 -47 308 c 0,68,69
 -47 530.39 -47 530.39 112 735.5 c 0,70,71
 162 800 162 800 224 848 c 1,72,73
 357.538 932 357.538 932 508 932 c 0,74,75
 573.812 932 573.812 932 602 891 c 0,76,77
 613 875 613 875 613 849.5 c 128,-1,78
 613 824 613 824 598.5 790.5 c 128,-1,79
 584 757 584 757 563 720.5 c 128,-1,80
 542 684 542 684 516.5 645 c 128,-1,81
 491 606 491 606 470 569 c 0,82,83
 420 480.905 420 480.905 420 442.452 c 128,-1,84
 420 404 420 404 442 386 c 128,-1,85
 464 368 464 368 495.5 368 c 0,86,87
 566.8 368 566.8 368 616.9 402.5 c 128,-1,88
 667 437 667 437 715.5 482 c 1,89,-1
 810.5 574.5 l 1,90,-1
 901 667.5 l 2,91,92
 997.583 767.375 997.583 767.375 1048.29 791.688 c 128,-1,93
 1099 816 1099 816 1122 810 c 128,-1,94
 1145 804 1145 804 1169 788.5 c 128,-1,95
 1193 773 1193 773 1216 751 c 0,96,97
 1270.26 699.1 1270.26 699.1 1276 657 c 1,98,99
 1277.78 630.333 1277.78 630.333 1271.39 576.666 c 128,-1,100
 1265 523 1265 523 1265 503 c 0,36,37
EndSplineSet
EndChar

StartChar: Adieresis
Encoding: 196 196 91
Width: 2551
Flags: HW
LayerCount: 2
Fore
SplineSet
2447.5 1627 m 128,-1,1
 2433 1662 2433 1662 2433 1702 c 128,-1,2
 2433 1742 2433 1742 2449.5 1772.5 c 128,-1,3
 2466 1803 2466 1803 2493 1826.5 c 128,-1,4
 2520 1850 2520 1850 2553.5 1867 c 128,-1,5
 2587 1884 2587 1884 2620.5 1895 c 0,6,7
 2684.45 1916 2684.45 1916 2724.73 1916 c 128,-1,8
 2765 1916 2765 1916 2785 1906 c 128,-1,9
 2805 1896 2805 1896 2818 1879 c 0,10,11
 2844 1845 2844 1845 2844 1809.5 c 128,-1,12
 2844 1774 2844 1774 2836.5 1745.5 c 128,-1,13
 2829 1717 2829 1717 2815.5 1686 c 128,-1,14
 2802 1655 2802 1655 2782 1624.5 c 128,-1,15
 2762 1594 2762 1594 2737 1569.5 c 0,16,17
 2681.39 1515 2681.39 1515 2630.69 1515 c 128,-1,18
 2580 1515 2580 1515 2546.5 1528.5 c 128,-1,19
 2513 1542 2513 1542 2487.5 1567 c 128,-1,0
 2462 1592 2462 1592 2447.5 1627 c 128,-1,1
1825.5 1627 m 128,-1,21
 1811 1662 1811 1662 1811 1702 c 128,-1,22
 1811 1742 1811 1742 1827.5 1772.5 c 128,-1,23
 1844 1803 1844 1803 1871 1826.5 c 128,-1,24
 1898 1850 1898 1850 1931.5 1867 c 128,-1,25
 1965 1884 1965 1884 1998.5 1895 c 0,26,27
 2062.45 1916 2062.45 1916 2102.73 1916 c 128,-1,28
 2143 1916 2143 1916 2163 1906 c 128,-1,29
 2183 1896 2183 1896 2196 1879 c 0,30,31
 2222 1845 2222 1845 2222 1809.5 c 128,-1,32
 2222 1774 2222 1774 2214.5 1745.5 c 128,-1,33
 2207 1717 2207 1717 2193.5 1686 c 128,-1,34
 2180 1655 2180 1655 2160 1624.5 c 128,-1,35
 2140 1594 2140 1594 2115 1569.5 c 0,36,37
 2059.39 1515 2059.39 1515 2008.69 1515 c 128,-1,38
 1958 1515 1958 1515 1924.5 1528.5 c 128,-1,39
 1891 1542 1891 1542 1865.5 1567 c 128,-1,20
 1840 1592 1840 1592 1825.5 1627 c 128,-1,21
257 -67 m 0,40,41
 205 -67 205 -67 158.5 -42.5 c 128,-1,42
 112 -18 112 -18 74.5 27 c 0,43,44
 -11 129.6 -11 129.6 -11 274 c 0,45,46
 -11 333 -11 333 35.5 392.5 c 128,-1,47
 82 452 82 452 187.5 499.5 c 0,48,49
 426.263 607 426.263 607 883 607 c 1,50,-1
 1720 1255.5 l 2,51,52
 1762 1289 1762 1289 1769.5 1296.5 c 0,53,54
 1783 1310 1783 1310 1803.5 1310 c 128,-1,55
 1824 1310 1824 1310 1843.5 1306 c 128,-1,56
 1863 1302 1863 1302 1879 1295 c 0,57,58
 1914 1279.69 1914 1279.69 1914 1260 c 0,59,60
 1914 1246 1914 1246 1907 1238.5 c 2,61,-1
 1335 610 l 1,62,-1
 1579 610 l 1,63,64
 1595 646 1595 646 1632.5 709.5 c 1,65,-1
 1724 859.5 l 1,66,67
 1778 946 1778 946 1830.5 1022 c 1,68,-1
 1931 1162 l 1,69,70
 2086.25 1369 2086.25 1369 2155 1369 c 0,71,72
 2162.44 1369 2162.44 1369 2209.72 1350.5 c 128,-1,73
 2257 1332 2257 1332 2290 1314.5 c 0,74,75
 2370 1272.08 2370 1272.08 2370 1235 c 0,76,77
 2370 1200.25 2370 1200.25 2339 1161.62 c 128,-1,78
 2308 1123 2308 1123 2273.5 1071 c 128,-1,79
 2239 1019 2239 1019 2199.5 953.5 c 128,-1,80
 2160 888 2160 888 2120 814.5 c 128,-1,81
 2080 741 2080 741 2048 672 c 0,82,83
 1975 514.594 1975 514.594 1975 459.297 c 128,-1,84
 1975 404 1975 404 1983.5 379 c 128,-1,85
 1992 354 1992 354 2004.5 341.5 c 0,86,87
 2023 323 2023 323 2065 323 c 128,-1,88
 2107 323 2107 323 2150.5 338.5 c 128,-1,89
 2194 354 2194 354 2235.5 377.5 c 128,-1,90
 2277 401 2277 401 2317 428.5 c 128,-1,91
 2357 456 2357 456 2395 479.5 c 0,92,93
 2483.13 534 2483.13 534 2525.06 534 c 128,-1,94
 2567 534 2567 534 2581.5 514.5 c 128,-1,95
 2596 495 2596 495 2596 464 c 128,-1,96
 2596 433 2596 433 2570 380.5 c 128,-1,97
 2544 328 2544 328 2497 272 c 128,-1,98
 2450 216 2450 216 2386 161.5 c 128,-1,99
 2322 107 2322 107 2246 64.5 c 0,100,101
 2075.22 -30.9999 2075.22 -30.9999 1911 -31 c 0,102,103
 1762.68 -31 1762.68 -31 1649.5 73 c 0,104,105
 1524 188.324 1524 188.324 1524 370 c 0,106,107
 1524 379 1524 379 1524 388 c 128,-1,108
 1524 397 1524 397 1525 407 c 1,109,-1
 1106 354 l 1,110,111
 928.69 179.695 928.69 179.695 677.5 56.5 c 0,112,113
 425.688 -67 425.688 -67 257 -67 c 0,40,41
EndSplineSet
EndChar

StartChar: Edotaccent
Encoding: 278 278 92
Width: 1867
Flags: HW
LayerCount: 2
Fore
SplineSet
1531 1526.5 m 128,-1,1
 1497 1511 1497 1511 1455 1511 c 128,-1,2
 1413 1511 1413 1511 1374 1525 c 128,-1,3
 1335 1539 1335 1539 1306 1564 c 0,4,5
 1243 1618.31 1243 1618.31 1243 1702 c 0,6,7
 1243 1830.81 1243 1830.81 1459 1894.5 c 0,8,9
 1531.91 1916 1531.91 1916 1578.96 1916 c 128,-1,10
 1626 1916 1626 1916 1649.5 1905.5 c 128,-1,11
 1673 1895 1673 1895 1688 1878 c 0,12,13
 1718 1844 1718 1844 1718 1808.5 c 128,-1,14
 1718 1773 1718 1773 1709.5 1744 c 128,-1,15
 1701 1715 1701 1715 1685 1684 c 128,-1,16
 1669 1653 1669 1653 1646 1622 c 128,-1,17
 1623 1591 1623 1591 1594 1566.5 c 128,-1,0
 1565 1542 1565 1542 1531 1526.5 c 128,-1,1
101.5 112 m 128,-1,19
 58 163 58 163 43.5 208 c 0,20,21
 22 274.724 22 274.724 22 322.862 c 128,-1,22
 22 371 22 371 53.5 433 c 128,-1,23
 85 495 85 495 158.5 556 c 0,24,25
 318.467 688.762 318.467 688.762 649 784 c 1,26,27
 542.684 829.104 542.684 829.104 528 927 c 1,28,29
 513.083 1038.88 513.083 1038.88 624.5 1126.5 c 0,30,31
 828.723 1287.1 828.723 1287.1 1411.5 1343.5 c 0,32,33
 1592.33 1361 1592.33 1361 1673.67 1361 c 128,-1,34
 1755 1361 1755 1361 1789.5 1335 c 128,-1,35
 1824 1309 1824 1309 1830.5 1257.5 c 128,-1,36
 1837 1206 1837 1206 1811 1171 c 128,-1,37
 1785 1136 1785 1136 1737 1115 c 0,38,39
 1647.86 1076 1647.86 1076 1494 1076 c 0,40,41
 1381.11 1076 1381.11 1076 1288.5 1110.5 c 0,42,43
 1263 1120 1263 1120 1249 1131 c 1,44,45
 1049.41 1068.79 1049.41 1068.79 1021.5 992.5 c 0,46,47
 1014 972 1014 972 1016 955 c 0,48,49
 1025 894 1025 894 1096 865 c 128,-1,50
 1167 836 1167 836 1312 828 c 1,51,52
 1360 824 1360 824 1383.5 802 c 128,-1,53
 1407 780 1407 780 1410.5 756 c 128,-1,54
 1414 732 1414 732 1407 718.5 c 128,-1,55
 1400 705 1400 705 1386.5 696 c 0,56,57
 1362.09 679.727 1362.09 679.727 1291.05 668.864 c 128,-1,58
 1220 658 1220 658 1126 638.5 c 128,-1,59
 1032 619 1032 619 947 597 c 128,-1,60
 862 575 862 575 789.5 552 c 128,-1,61
 717 529 717 529 664.5 507.5 c 0,62,63
 552.072 461.458 552.072 461.458 556.036 432.729 c 128,-1,64
 560 404 560 404 579 383 c 128,-1,65
 598 362 598 362 630 346.5 c 0,66,67
 689.532 317.664 689.532 317.664 776.266 310.332 c 128,-1,68
 863 303 863 303 944.5 303 c 128,-1,69
 1026 303 1026 303 1119.5 316.5 c 128,-1,70
 1213 330 1213 330 1294.5 351 c 128,-1,71
 1376 372 1376 372 1444.5 395.5 c 128,-1,72
 1513 419 1513 419 1563.5 440 c 2,73,-1
 1646 474.5 l 2,74,75
 1678 488 1678 488 1704 488 c 0,76,77
 1773.1 488 1773.1 488 1782 415 c 0,78,79
 1793.64 316.043 1793.64 316.043 1559.5 191.5 c 0,80,81
 1247.11 25.3376 1247.11 25.3376 868.5 -26 c 0,82,83
 780 -38 780 -38 656.5 -38 c 128,-1,84
 533 -38 533 -38 416 -22 c 128,-1,85
 299 -6 299 -6 222 27.5 c 128,-1,18
 145 61 145 61 101.5 112 c 128,-1,19
EndSplineSet
EndChar

StartChar: Edieresis
Encoding: 203 203 93
Width: 1867
Flags: HW
LayerCount: 2
Fore
SplineSet
1580.5 1627 m 128,-1,1
 1566 1662 1566 1662 1566 1702 c 128,-1,2
 1566 1742 1566 1742 1582.5 1772.5 c 128,-1,3
 1599 1803 1599 1803 1626 1826.5 c 128,-1,4
 1653 1850 1653 1850 1686.5 1867 c 128,-1,5
 1720 1884 1720 1884 1753.5 1895 c 0,6,7
 1817.45 1916 1817.45 1916 1857.73 1916 c 128,-1,8
 1898 1916 1898 1916 1918 1906 c 128,-1,9
 1938 1896 1938 1896 1951 1879 c 0,10,11
 1977 1845 1977 1845 1977 1809.5 c 128,-1,12
 1977 1774 1977 1774 1969.5 1745.5 c 128,-1,13
 1962 1717 1962 1717 1948.5 1686 c 128,-1,14
 1935 1655 1935 1655 1915 1624.5 c 128,-1,15
 1895 1594 1895 1594 1870 1569.5 c 0,16,17
 1814.39 1515 1814.39 1515 1763.69 1515 c 128,-1,18
 1713 1515 1713 1515 1679.5 1528.5 c 128,-1,19
 1646 1542 1646 1542 1620.5 1567 c 128,-1,0
 1595 1592 1595 1592 1580.5 1627 c 128,-1,1
1193 1530 m 128,-1,21
 1163 1515 1163 1515 1127 1515 c 128,-1,22
 1091 1515 1091 1515 1057.5 1528.5 c 128,-1,23
 1024 1542 1024 1542 998.5 1567 c 0,24,25
 944 1620.43 944 1620.43 944 1704 c 0,26,27
 944 1833.43 944 1833.43 1131.5 1895 c 0,28,29
 1195.45 1916 1195.45 1916 1235.73 1916 c 128,-1,30
 1276 1916 1276 1916 1296 1906 c 128,-1,31
 1316 1896 1316 1896 1329 1879 c 0,32,33
 1355 1845 1355 1845 1355 1809.5 c 128,-1,34
 1355 1774 1355 1774 1347.5 1745.5 c 128,-1,35
 1340 1717 1340 1717 1326.5 1686 c 128,-1,36
 1313 1655 1313 1655 1293 1624.5 c 128,-1,37
 1273 1594 1273 1594 1248 1569.5 c 128,-1,20
 1223 1545 1223 1545 1193 1530 c 128,-1,21
101.5 112 m 128,-1,39
 58 163 58 163 43.5 208 c 0,40,41
 22 274.724 22 274.724 22 322.862 c 128,-1,42
 22 371 22 371 53.5 433 c 128,-1,43
 85 495 85 495 158.5 556 c 0,44,45
 318.467 688.762 318.467 688.762 649 784 c 1,46,47
 542.684 829.104 542.684 829.104 528 927 c 1,48,49
 513.083 1038.88 513.083 1038.88 624.5 1126.5 c 0,50,51
 828.723 1287.1 828.723 1287.1 1411.5 1343.5 c 0,52,53
 1592.33 1361 1592.33 1361 1673.67 1361 c 128,-1,54
 1755 1361 1755 1361 1789.5 1335 c 128,-1,55
 1824 1309 1824 1309 1830.5 1257.5 c 128,-1,56
 1837 1206 1837 1206 1811 1171 c 128,-1,57
 1785 1136 1785 1136 1737 1115 c 0,58,59
 1647.86 1076 1647.86 1076 1494 1076 c 0,60,61
 1381.11 1076 1381.11 1076 1288.5 1110.5 c 0,62,63
 1263 1120 1263 1120 1249 1131 c 1,64,65
 1049.41 1068.79 1049.41 1068.79 1021.5 992.5 c 0,66,67
 1014 972 1014 972 1016 955 c 0,68,69
 1025 894 1025 894 1096 865 c 128,-1,70
 1167 836 1167 836 1312 828 c 1,71,72
 1360 824 1360 824 1383.5 802 c 128,-1,73
 1407 780 1407 780 1410.5 756 c 128,-1,74
 1414 732 1414 732 1407 718.5 c 128,-1,75
 1400 705 1400 705 1386.5 696 c 0,76,77
 1362.09 679.727 1362.09 679.727 1291.05 668.864 c 128,-1,78
 1220 658 1220 658 1126 638.5 c 128,-1,79
 1032 619 1032 619 947 597 c 128,-1,80
 862 575 862 575 789.5 552 c 128,-1,81
 717 529 717 529 664.5 507.5 c 0,82,83
 552.072 461.458 552.072 461.458 556.036 432.729 c 128,-1,84
 560 404 560 404 579 383 c 128,-1,85
 598 362 598 362 630 346.5 c 0,86,87
 689.532 317.664 689.532 317.664 776.266 310.332 c 128,-1,88
 863 303 863 303 944.5 303 c 128,-1,89
 1026 303 1026 303 1119.5 316.5 c 128,-1,90
 1213 330 1213 330 1294.5 351 c 128,-1,91
 1376 372 1376 372 1444.5 395.5 c 128,-1,92
 1513 419 1513 419 1563.5 440 c 2,93,-1
 1646 474.5 l 2,94,95
 1678 488 1678 488 1704 488 c 0,96,97
 1773.1 488 1773.1 488 1782 415 c 0,98,99
 1793.64 316.043 1793.64 316.043 1559.5 191.5 c 0,100,101
 1247.11 25.3376 1247.11 25.3376 868.5 -26 c 0,102,103
 780 -38 780 -38 656.5 -38 c 128,-1,104
 533 -38 533 -38 416 -22 c 128,-1,105
 299 -6 299 -6 222 27.5 c 128,-1,38
 145 61 145 61 101.5 112 c 128,-1,39
EndSplineSet
EndChar

StartChar: Udieresis
Encoding: 220 220 94
Width: 2039
Flags: HW
LayerCount: 2
Fore
SplineSet
1716 1530 m 128,-1,1
 1686 1515 1686 1515 1650 1515 c 128,-1,2
 1614 1515 1614 1515 1580.5 1528.5 c 128,-1,3
 1547 1542 1547 1542 1521.5 1567 c 0,4,5
 1467 1620.43 1467 1620.43 1467 1704 c 0,6,7
 1467 1833.43 1467 1833.43 1654.5 1895 c 0,8,9
 1718.45 1916 1718.45 1916 1758.73 1916 c 128,-1,10
 1799 1916 1799 1916 1819 1906 c 128,-1,11
 1839 1896 1839 1896 1852 1879 c 0,12,13
 1878 1845 1878 1845 1878 1809.5 c 128,-1,14
 1878 1774 1878 1774 1870.5 1745.5 c 128,-1,15
 1863 1717 1863 1717 1849.5 1686 c 128,-1,16
 1836 1655 1836 1655 1816 1624.5 c 128,-1,17
 1796 1594 1796 1594 1771 1569.5 c 128,-1,0
 1746 1545 1746 1545 1716 1530 c 128,-1,1
1094 1530 m 128,-1,19
 1064 1515 1064 1515 1028 1515 c 128,-1,20
 992 1515 992 1515 958.5 1528.5 c 128,-1,21
 925 1542 925 1542 899.5 1567 c 0,22,23
 845 1620.43 845 1620.43 845 1704 c 0,24,25
 845 1833.43 845 1833.43 1032.5 1895 c 0,26,27
 1096.45 1916 1096.45 1916 1136.73 1916 c 128,-1,28
 1177 1916 1177 1916 1197 1906 c 128,-1,29
 1217 1896 1217 1896 1230 1879 c 0,30,31
 1256 1845 1256 1845 1256 1809.5 c 128,-1,32
 1256 1774 1256 1774 1248.5 1745.5 c 128,-1,33
 1241 1717 1241 1717 1227.5 1686 c 128,-1,34
 1214 1655 1214 1655 1194 1624.5 c 128,-1,35
 1174 1594 1174 1594 1149 1569.5 c 128,-1,18
 1124 1545 1124 1545 1094 1530 c 128,-1,19
1578 473 m 0,36,37
 1578 372 1578 372 1641 372 c 0,38,39
 1668.56 372 1668.56 372 1737.78 416.5 c 1,40,41
 1873.66 506.719 1873.66 506.719 1925.83 544.359 c 2,42,-1
 2006 603 l 2,43,44
 2034 624 2034 624 2061.5 646 c 128,-1,45
 2089 668 2089 668 2129 684.5 c 128,-1,46
 2169 701 2169 701 2194 701 c 128,-1,47
 2219 701 2219 701 2226 683 c 128,-1,48
 2233 665 2233 665 2233 639 c 128,-1,49
 2233 613 2233 613 2222.5 586.5 c 128,-1,50
 2212 560 2212 560 2195 530.5 c 0,51,52
 2146.93 447.089 2146.93 447.089 2096.97 399.044 c 128,-1,53
 2047 351 2047 351 2010 319.5 c 1,54,-1
 1927 252 l 1,55,56
 1694.03 69.6774 1694.03 69.6774 1530 15 c 0,57,58
 1485 0 1485 0 1424.5 0 c 128,-1,59
 1364 0 1364 0 1308 29 c 128,-1,60
 1252 58 1252 58 1219 104.5 c 0,61,62
 1160 187.636 1160 187.636 1160 332 c 0,63,64
 1160 393 1160 393 1170 451 c 1,65,66
 951.218 216.097 951.218 216.097 793 116 c 0,67,68
 584.355 -16 584.355 -16 355 -16 c 0,69,70
 221.047 -16 221.047 -16 111 75 c 0,71,72
 -6 171.75 -6 171.75 -6 308 c 0,73,74
 -6 567.406 -6 567.406 333.5 1038 c 1,75,-1
 431 1167.5 l 1,76,77
 530.508 1293.47 530.508 1293.47 588 1347 c 1,78,79
 601 1357 601 1357 623 1357 c 256,80,81
 696 1357 696 1357 788.5 1283 c 0,82,83
 886.682 1204.45 886.682 1204.45 878 1135 c 1,84,85
 869.606 1052.74 869.606 1052.74 773.5 930 c 0,86,87
 732 877 732 877 684.5 822.5 c 128,-1,88
 637 768 637 768 594.5 712.5 c 0,89,90
 494.733 582.216 494.733 582.216 483 485 c 0,91,92
 475.964 432.227 475.964 432.227 523.5 406 c 0,93,94
 538 398 538 398 579 398 c 128,-1,95
 620 398 620 398 691.5 424.5 c 128,-1,96
 763 451 763 451 836.5 494.5 c 128,-1,97
 910 538 910 538 982.5 593 c 128,-1,98
 1055 648 1055 648 1120.5 705 c 128,-1,99
 1186 762 1186 762 1241 816.5 c 2,100,-1
 1336 913 l 1,101,102
 1632 1240.88 1632 1240.88 1666.5 1276.44 c 0,103,104
 1739.81 1352 1739.81 1352 1756.9 1352 c 128,-1,105
 1774 1352 1774 1352 1795.5 1343 c 128,-1,106
 1817 1334 1817 1334 1841.5 1319 c 128,-1,107
 1866 1304 1866 1304 1890.5 1285 c 128,-1,108
 1915 1266 1915 1266 1935.5 1244.5 c 0,109,110
 1981.26 1196.51 1981.26 1196.51 1985 1161 c 1,111,112
 1990.55 1138.78 1990.55 1138.78 1956.28 1073.39 c 128,-1,113
 1922 1008 1922 1008 1882 961.5 c 2,114,-1
 1794.5 860.5 l 2,115,116
 1612.52 651.699 1612.52 651.699 1586 539 c 0,117,118
 1578 505 1578 505 1578 473 c 0,36,37
EndSplineSet
EndChar

StartChar: Eth
Encoding: 208 208 95
Width: 2214
Flags: HW
LayerCount: 2
Fore
SplineSet
430 535 m 2,0,1
 335 535 335 535 335 596 c 0,2,3
 335 637 335 637 365.5 667.5 c 0,4,5
 418.957 720.957 418.957 720.957 468 723 c 2,6,-1
 559 727 l 1,7,-1
 727 986 l 1,8,9
 494.515 925.352 494.515 925.352 341.5 835 c 0,10,11
 289 804 289 804 254 771 c 1,12,13
 187.889 720 187.889 720 147.444 720 c 0,14,15
 72 720 72 720 72 787 c 0,16,17
 72 817 72 817 83.5 841 c 128,-1,18
 95 865 95 865 113.5 898 c 128,-1,19
 132 931 132 931 156.5 970.5 c 128,-1,20
 181 1010 181 1010 211 1052.5 c 128,-1,21
 241 1095 241 1095 275 1134.5 c 0,22,23
 351.185 1223.01 351.185 1223.01 406.092 1249 c 128,-1,24
 461 1275 461 1275 525.5 1294.5 c 128,-1,25
 590 1314 590 1314 677 1330 c 0,26,27
 878.188 1367 878.188 1367 1113 1367 c 0,28,29
 1622.04 1367 1622.04 1367 1913 1219.5 c 0,30,31
 2155 1096.82 2155 1096.82 2155 878 c 0,32,33
 2155 831.2 2155 831.2 2141.5 765.1 c 128,-1,34
 2128 699 2128 699 2078.5 599 c 128,-1,35
 2029 499 2029 499 1944 406 c 128,-1,36
 1859 313 1859 313 1737.5 231.5 c 128,-1,37
 1616 150 1616 150 1454.5 89 c 0,38,39
 1107.67 -42 1107.67 -42 636 -42 c 0,40,41
 452.014 -42 452.014 -42 351 39.5 c 0,42,43
 268 106.466 268 106.466 268 203 c 0,44,45
 268 236.815 268 236.815 284 269.407 c 128,-1,46
 300 302 300 302 322.5 341.5 c 2,47,-1
 438 535 l 1,48,-1
 430 535 l 2,0,1
803 535 m 1,49,50
 767 452.412 767 452.412 767 425.206 c 128,-1,51
 767 398 767 398 779.5 376.5 c 128,-1,52
 792 355 792 355 817 338.5 c 0,53,54
 873.818 301 873.818 301 985.909 301 c 128,-1,55
 1098 301 1098 301 1215.5 319 c 128,-1,56
 1333 337 1333 337 1431 367 c 128,-1,57
 1529 397 1529 397 1606 435.5 c 128,-1,58
 1683 474 1683 474 1737.5 514.5 c 0,59,60
 1848.23 596.789 1848.23 596.789 1861 667 c 0,61,62
 1864 683 1864 683 1864 701 c 0,63,64
 1864 906.376 1864 906.376 1426 992.5 c 0,65,66
 1258.09 1025.52 1258.09 1025.52 1063 1030 c 1,67,-1
 906 743 l 1,68,-1
 1222 758 l 2,69,70
 1258.83 759.938 1258.83 759.938 1280 727 c 0,71,72
 1311.75 677.618 1311.75 677.618 1260 600 c 0,73,74
 1216.67 535 1216.67 535 1148 535 c 2,75,-1
 803 535 l 1,49,50
EndSplineSet
EndChar

StartChar: Dcroat
Encoding: 272 272 96
Width: 2214
Flags: HW
LayerCount: 2
Fore
SplineSet
430 535 m 2,0,1
 335 535 335 535 335 596 c 0,2,3
 335 637 335 637 365.5 667.5 c 0,4,5
 418.957 720.957 418.957 720.957 468 723 c 2,6,-1
 559 727 l 1,7,-1
 727 986 l 1,8,9
 494.515 925.352 494.515 925.352 341.5 835 c 0,10,11
 289 804 289 804 254 771 c 1,12,13
 187.889 720 187.889 720 147.444 720 c 0,14,15
 72 720 72 720 72 787 c 0,16,17
 72 817 72 817 83.5 841 c 128,-1,18
 95 865 95 865 113.5 898 c 128,-1,19
 132 931 132 931 156.5 970.5 c 128,-1,20
 181 1010 181 1010 211 1052.5 c 128,-1,21
 241 1095 241 1095 275 1134.5 c 0,22,23
 351.185 1223.01 351.185 1223.01 406.092 1249 c 128,-1,24
 461 1275 461 1275 525.5 1294.5 c 128,-1,25
 590 1314 590 1314 677 1330 c 0,26,27
 878.188 1367 878.188 1367 1113 1367 c 0,28,29
 1622.04 1367 1622.04 1367 1913 1219.5 c 0,30,31
 2155 1096.82 2155 1096.82 2155 878 c 0,32,33
 2155 831.2 2155 831.2 2141.5 765.1 c 128,-1,34
 2128 699 2128 699 2078.5 599 c 128,-1,35
 2029 499 2029 499 1944 406 c 128,-1,36
 1859 313 1859 313 1737.5 231.5 c 128,-1,37
 1616 150 1616 150 1454.5 89 c 0,38,39
 1107.67 -42 1107.67 -42 636 -42 c 0,40,41
 452.014 -42 452.014 -42 351 39.5 c 0,42,43
 268 106.466 268 106.466 268 203 c 0,44,45
 268 236.815 268 236.815 284 269.407 c 128,-1,46
 300 302 300 302 322.5 341.5 c 2,47,-1
 438 535 l 1,48,-1
 430 535 l 2,0,1
803 535 m 1,49,50
 767 452.412 767 452.412 767 425.206 c 128,-1,51
 767 398 767 398 779.5 376.5 c 128,-1,52
 792 355 792 355 817 338.5 c 0,53,54
 873.818 301 873.818 301 985.909 301 c 128,-1,55
 1098 301 1098 301 1215.5 319 c 128,-1,56
 1333 337 1333 337 1431 367 c 128,-1,57
 1529 397 1529 397 1606 435.5 c 128,-1,58
 1683 474 1683 474 1737.5 514.5 c 0,59,60
 1848.23 596.789 1848.23 596.789 1861 667 c 0,61,62
 1864 683 1864 683 1864 701 c 0,63,64
 1864 906.376 1864 906.376 1426 992.5 c 0,65,66
 1258.09 1025.52 1258.09 1025.52 1063 1030 c 1,67,-1
 906 743 l 1,68,-1
 1222 758 l 2,69,70
 1258.83 759.938 1258.83 759.938 1280 727 c 0,71,72
 1311.75 677.618 1311.75 677.618 1260 600 c 0,73,74
 1216.67 535 1216.67 535 1148 535 c 2,75,-1
 803 535 l 1,49,50
EndSplineSet
EndChar

StartChar: Tbar
Encoding: 358 358 97
Width: 1698
Flags: HW
LayerCount: 2
Fore
SplineSet
1517 992 m 1,0,-1
 1315 1007 l 1,1,2
 1272 941 1272 941 1234.5 872 c 1,3,-1
 1162 733 l 1,4,-1
 1384 733 l 2,5,6
 1428.08 733 1428.08 733 1448 696 c 0,7,8
 1455 683 1455 683 1455 670.5 c 0,9,10
 1455 620.8 1455 620.8 1429 584.4 c 128,-1,11
 1403 548 1403 548 1383.5 533.5 c 0,12,13
 1348.66 507.597 1348.66 507.597 1303 510 c 2,14,-1
 1066 520 l 1,15,-1
 938.5 203 l 2,16,17
 877.742 52.7619 877.742 52.7619 842 0 c 1,18,19
 786.792 -53 786.792 -53 706 -53 c 0,20,21
 653.214 -53 653.214 -53 605 -26 c 1,22,23
 570 -5 570 -5 570 59 c 0,24,25
 570 178.5 570 178.5 627 378 c 2,26,-1
 672 536 l 1,27,-1
 474 545 l 1,28,29
 341 559.778 341 559.778 341 638 c 0,30,31
 341 691.538 341 691.538 375.5 711 c 0,32,33
 411.578 731.352 411.578 731.352 452.789 732.176 c 128,-1,34
 494 733 494 733 512 733 c 2,35,-1
 734 733 l 1,36,37
 789.505 890.974 789.505 890.974 869 1027 c 1,38,-1
 797 1028 l 1,39,40
 642.571 1028 642.571 1028 581.286 1011.5 c 128,-1,41
 520 995 520 995 476.5 981 c 128,-1,42
 433 967 433 967 388 951 c 128,-1,43
 343 935 343 935 305.5 920 c 0,44,45
 221.125 886.25 221.125 886.25 206.062 873.625 c 128,-1,46
 191 861 191 861 169 861 c 128,-1,47
 147 861 147 861 128.5 868.5 c 128,-1,48
 110 876 110 876 95 889.5 c 0,49,50
 62 919.2 62 919.2 62 954.6 c 128,-1,51
 62 990 62 990 85.5 1024 c 128,-1,52
 109 1058 109 1058 158 1101.5 c 128,-1,53
 207 1145 207 1145 259 1185.5 c 2,54,-1
 354.5 1261 l 2,55,56
 398 1296 398 1296 413 1318 c 256,57,58
 456.739 1382.15 456.739 1382.15 623.5 1404.5 c 0,59,60
 672 1411 672 1411 722.5 1411 c 128,-1,61
 773 1411 773 1411 860.5 1403 c 128,-1,62
 948 1395 948 1395 1069.5 1385.5 c 0,63,64
 1395.63 1360 1395.63 1360 1549.32 1360 c 128,-1,65
 1703 1360 1703 1360 1725 1363.5 c 2,66,67
 1770.5 1371 l 2,68,69
 1835.12 1382 1835.12 1382 1862 1382 c 0,70,71
 1929 1382 1929 1382 1929 1335 c 0,72,73
 1929 1274.81 1929 1274.81 1835.5 1164 c 2,74,-1
 1817 1142 l 1,75,76
 1735.06 1042.24 1735.06 1042.24 1609 1005 c 0,77,78
 1565 992 1565 992 1517 992 c 1,0,-1
EndSplineSet
EndChar

StartChar: tbar
Encoding: 359 359 98
Width: 1020
Flags: HW
LayerCount: 2
Fore
SplineSet
1105 685 m 0,0,1
 1203 685 1203 685 1203 617 c 0,2,3
 1203 551.824 1203 551.824 1111 449 c 1,4,-1
 1061.5 398.5 l 2,5,6
 972.594 307.344 972.594 307.344 854.297 219.172 c 128,-1,7
 736 131 736 131 645.5 80.5 c 0,8,9
 436.723 -36 436.723 -36 267 -36 c 0,10,11
 106.651 -36 106.651 -36 5.5 60.5 c 0,12,13
 -81 143.023 -81 143.023 -81 244 c 0,14,15
 -81 416.057 -81 416.057 1 648 c 1,16,17
 -151 656 -151 656 -151 742 c 0,18,19
 -151 795.538 -151 795.538 -116.5 815 c 0,20,21
 -80.4222 835.352 -80.4222 835.352 -39.2111 836.176 c 128,-1,22
 2 837 2 837 20 837 c 2,23,-1
 80 837 l 1,24,-1
 95.5 868 l 2,25,26
 103 883 103 883 111 897.5 c 0,27,28
 129 930.125 129 930.125 129 941 c 1,29,-1
 0 941 l 2,30,31
 -73 941 -73 941 -113 975 c 128,-1,32
 -153 1009 -153 1009 -153 1052 c 128,-1,33
 -153 1095 -153 1095 -137 1115 c 128,-1,34
 -121 1135 -121 1135 -97 1144.5 c 0,35,36
 -62.8947 1158 -62.8947 1158 3 1158 c 2,37,-1
 248 1157 l 1,38,39
 256 1160 256 1160 280 1200 c 2,40,-1
 341 1305 l 1,41,42
 380 1375 380 1375 419.5 1408 c 128,-1,43
 459 1441 459 1441 512.5 1441 c 128,-1,44
 566 1441 566 1441 602.5 1431 c 128,-1,45
 639 1421 639 1421 663.5 1405.5 c 0,46,47
 713 1374.18 713 1374.18 713 1336 c 0,48,49
 713 1319.62 713 1319.62 702 1292.81 c 2,50,-1
 646 1157 l 1,51,-1
 1121 1158 l 2,52,53
 1183 1158 1183 1158 1183 1094 c 0,54,55
 1183 942 1183 942 912 942 c 2,56,-1
 546 941 l 1,57,58
 536.471 934.647 536.471 934.647 523.235 913.323 c 2,59,-1
 499.5 874 l 2,60,61
 489 856 489 856 479 837 c 1,62,-1
 641 837 l 2,63,64
 685.077 837 685.077 837 705 800 c 0,65,66
 712 787 712 787 712 774.5 c 0,67,68
 712 724.8 712 724.8 686 688.4 c 128,-1,69
 660 652 660 652 640.5 637.5 c 0,70,71
 605.664 611.597 605.664 611.597 560 614 c 2,72,-1
 381 625 l 1,73,74
 347 535.143 347 535.143 347 477.071 c 128,-1,75
 347 419 347 419 382.5 374 c 128,-1,76
 418 329 418 329 477 329 c 128,-1,77
 536 329 536 329 592.5 352 c 128,-1,78
 649 375 649 375 703 408.5 c 0,79,80
 800.882 469.223 800.882 469.223 856.941 521.111 c 128,-1,81
 913 573 913 573 950 600 c 2,82,-1
 1020 649 l 1,83,84
 1074 685 1074 685 1105 685 c 0,0,1
EndSplineSet
EndChar

StartChar: dcroat
Encoding: 273 273 99
Width: 1529
Flags: HW
LayerCount: 2
Fore
SplineSet
1707 739 m 0,0,1
 1752 739 1752 739 1752 693 c 0,2,3
 1752 619.923 1752 619.923 1656 487 c 0,4,5
 1589.48 393.875 1589.48 393.875 1379.5 229 c 0,6,7
 1131.15 34 1131.15 34 980 34 c 0,8,9
 865.877 34 865.877 34 807.5 130.5 c 0,10,11
 772.807 187.85 772.807 187.85 751 300 c 1,12,-1
 661.5 236 l 1,13,14
 295.014 -18 295.014 -18 114 -18 c 0,15,16
 -37.0909 -18 -37.0909 -18 -127.5 92.5 c 0,17,18
 -208 190.889 -208 190.889 -208 329 c 0,19,20
 -208 481.314 -208 481.314 -104 569 c 0,21,22
 108.407 746.649 108.407 746.649 423 862 c 0,23,24
 551.182 909 551.182 909 585.091 909 c 128,-1,25
 619 909 619 909 647.5 897.5 c 128,-1,26
 676 886 676 886 703.5 867.5 c 0,27,28
 770 822.764 770 822.764 770 781 c 0,29,30
 770 747 770 747 728 726 c 0,31,32
 715 719 715 719 684 707 c 128,-1,33
 653 695 653 695 607.5 673.5 c 0,34,35
 487.266 616.686 487.266 616.686 372 536 c 1,36,37
 290 466.148 290 466.148 290 424.574 c 128,-1,38
 290 383 290 383 348 383 c 0,39,40
 396 383 396 383 540.5 468 c 1,41,42
 625 519.5 l 1,43,44
 716.263 577.083 716.263 577.083 771 624 c 1,45,46
 849.487 891.345 849.487 891.345 924 1059 c 1,47,-1
 711 1059 l 2,48,49
 636.649 1059 636.649 1059 595.5 1102.5 c 0,50,51
 578 1121 578 1121 578 1150.5 c 128,-1,52
 578 1180 578 1180 595 1198 c 128,-1,53
 612 1216 612 1216 638 1226.5 c 0,54,55
 682.421 1244.44 682.421 1244.44 749 1247 c 2,56,-1
 1027 1257 l 1,57,58
 1200.66 1570 1200.66 1570 1376 1570 c 0,59,60
 1444.31 1570 1444.31 1570 1484.16 1545 c 0,61,62
 1556 1499.92 1556 1499.92 1556 1453 c 0,63,64
 1556 1368.63 1556 1368.63 1516 1276 c 1,65,-1
 1654 1281 l 2,66,67
 1690.83 1282.94 1690.83 1282.94 1712 1250 c 0,68,69
 1743.75 1200.62 1743.75 1200.62 1692 1123 c 0,70,71
 1648.67 1058 1648.67 1058 1580 1058 c 2,72,-1
 1386 1058 l 1,73,74
 1329 979 1329 979 1268.5 904 c 128,-1,75
 1208 829 1208 829 1162 757 c 1,76,77
 1104 632.077 1104 632.077 1104 543 c 0,78,79
 1104 415 1104 415 1197 415 c 0,80,81
 1249.54 415 1249.54 415 1387.5 526.5 c 1,82,-1
 1506 626.5 l 1,83,84
 1589.18 699.78 1589.18 699.78 1670.5 730.5 c 0,85,86
 1693 739 1693 739 1707 739 c 0,0,1
EndSplineSet
EndChar

